<svg xmlns="http://www.w3.org/2000/svg" xmlns:xlink="http://www.w3.org/1999/xlink" width="600" height="400" viewBox="0 0 2400 1600">
<defs>
  <clipPath id="clip910">
    <rect x="0" y="0" width="2400" height="1600"></rect>
  </clipPath>
</defs>
<path clip-path="url(#clip910)" d="M0 1600 L2400 1600 L2400 0 L0 0  Z" fill="#ffffff" fill-rule="evenodd" fill-opacity="1"></path>
<defs>
  <clipPath id="clip911">
    <rect x="480" y="0" width="1681" height="1600"></rect>
  </clipPath>
</defs>
<path clip-path="url(#clip910)" d="M235.283 1423.18 L2352.76 1423.18 L2352.76 123.472 L235.283 123.472  Z" fill="#ffffff" fill-rule="evenodd" fill-opacity="1"></path>
<defs>
  <clipPath id="clip912">
    <rect x="235" y="123" width="2118" height="1301"></rect>
  </clipPath>
</defs>
<polyline clip-path="url(#clip912)" style="stroke:#000000; stroke-linecap:round; stroke-linejoin:round; stroke-width:2; stroke-opacity:0.1; fill:none" points="295.211,1423.18 295.211,123.472 "></polyline>
<polyline clip-path="url(#clip912)" style="stroke:#000000; stroke-linecap:round; stroke-linejoin:round; stroke-width:2; stroke-opacity:0.1; fill:none" points="694.735,1423.18 694.735,123.472 "></polyline>
<polyline clip-path="url(#clip912)" style="stroke:#000000; stroke-linecap:round; stroke-linejoin:round; stroke-width:2; stroke-opacity:0.1; fill:none" points="1094.26,1423.18 1094.26,123.472 "></polyline>
<polyline clip-path="url(#clip912)" style="stroke:#000000; stroke-linecap:round; stroke-linejoin:round; stroke-width:2; stroke-opacity:0.1; fill:none" points="1493.78,1423.18 1493.78,123.472 "></polyline>
<polyline clip-path="url(#clip912)" style="stroke:#000000; stroke-linecap:round; stroke-linejoin:round; stroke-width:2; stroke-opacity:0.1; fill:none" points="1893.3,1423.18 1893.3,123.472 "></polyline>
<polyline clip-path="url(#clip912)" style="stroke:#000000; stroke-linecap:round; stroke-linejoin:round; stroke-width:2; stroke-opacity:0.1; fill:none" points="2292.83,1423.18 2292.83,123.472 "></polyline>
<polyline clip-path="url(#clip910)" style="stroke:#000000; stroke-linecap:round; stroke-linejoin:round; stroke-width:4; stroke-opacity:1; fill:none" points="235.283,1423.18 2352.76,1423.18 "></polyline>
<polyline clip-path="url(#clip910)" style="stroke:#000000; stroke-linecap:round; stroke-linejoin:round; stroke-width:4; stroke-opacity:1; fill:none" points="295.211,1423.18 295.211,1404.28 "></polyline>
<polyline clip-path="url(#clip910)" style="stroke:#000000; stroke-linecap:round; stroke-linejoin:round; stroke-width:4; stroke-opacity:1; fill:none" points="694.735,1423.18 694.735,1404.28 "></polyline>
<polyline clip-path="url(#clip910)" style="stroke:#000000; stroke-linecap:round; stroke-linejoin:round; stroke-width:4; stroke-opacity:1; fill:none" points="1094.26,1423.18 1094.26,1404.28 "></polyline>
<polyline clip-path="url(#clip910)" style="stroke:#000000; stroke-linecap:round; stroke-linejoin:round; stroke-width:4; stroke-opacity:1; fill:none" points="1493.78,1423.18 1493.78,1404.28 "></polyline>
<polyline clip-path="url(#clip910)" style="stroke:#000000; stroke-linecap:round; stroke-linejoin:round; stroke-width:4; stroke-opacity:1; fill:none" points="1893.3,1423.18 1893.3,1404.28 "></polyline>
<polyline clip-path="url(#clip910)" style="stroke:#000000; stroke-linecap:round; stroke-linejoin:round; stroke-width:4; stroke-opacity:1; fill:none" points="2292.83,1423.18 2292.83,1404.28 "></polyline>
<path clip-path="url(#clip910)" d="M272.596 1454.1 Q268.985 1454.1 267.156 1457.66 Q265.35 1461.2 265.35 1468.33 Q265.35 1475.44 267.156 1479.01 Q268.985 1482.55 272.596 1482.55 Q276.23 1482.55 278.035 1479.01 Q279.864 1475.44 279.864 1468.33 Q279.864 1461.2 278.035 1457.66 Q276.23 1454.1 272.596 1454.1 M272.596 1450.39 Q278.406 1450.39 281.461 1455 Q284.54 1459.58 284.54 1468.33 Q284.54 1477.06 281.461 1481.67 Q278.406 1486.25 272.596 1486.25 Q266.786 1486.25 263.707 1481.67 Q260.651 1477.06 260.651 1468.33 Q260.651 1459.58 263.707 1455 Q266.786 1450.39 272.596 1450.39 Z" fill="#000000" fill-rule="nonzero" fill-opacity="1"></path><path clip-path="url(#clip910)" d="M292.758 1479.7 L297.642 1479.7 L297.642 1485.58 L292.758 1485.58 L292.758 1479.7 Z" fill="#000000" fill-rule="nonzero" fill-opacity="1"></path><path clip-path="url(#clip910)" d="M317.827 1454.1 Q314.216 1454.1 312.387 1457.66 Q310.582 1461.2 310.582 1468.33 Q310.582 1475.44 312.387 1479.01 Q314.216 1482.55 317.827 1482.55 Q321.461 1482.55 323.267 1479.01 Q325.095 1475.44 325.095 1468.33 Q325.095 1461.2 323.267 1457.66 Q321.461 1454.1 317.827 1454.1 M317.827 1450.39 Q323.637 1450.39 326.693 1455 Q329.771 1459.58 329.771 1468.33 Q329.771 1477.06 326.693 1481.67 Q323.637 1486.25 317.827 1486.25 Q312.017 1486.25 308.938 1481.67 Q305.883 1477.06 305.883 1468.33 Q305.883 1459.58 308.938 1455 Q312.017 1450.39 317.827 1450.39 Z" fill="#000000" fill-rule="nonzero" fill-opacity="1"></path><path clip-path="url(#clip910)" d="M672.732 1454.1 Q669.121 1454.1 667.293 1457.66 Q665.487 1461.2 665.487 1468.33 Q665.487 1475.44 667.293 1479.01 Q669.121 1482.55 672.732 1482.55 Q676.367 1482.55 678.172 1479.01 Q680.001 1475.44 680.001 1468.33 Q680.001 1461.2 678.172 1457.66 Q676.367 1454.1 672.732 1454.1 M672.732 1450.39 Q678.543 1450.39 681.598 1455 Q684.677 1459.58 684.677 1468.33 Q684.677 1477.06 681.598 1481.67 Q678.543 1486.25 672.732 1486.25 Q666.922 1486.25 663.844 1481.67 Q660.788 1477.06 660.788 1468.33 Q660.788 1459.58 663.844 1455 Q666.922 1450.39 672.732 1450.39 Z" fill="#000000" fill-rule="nonzero" fill-opacity="1"></path><path clip-path="url(#clip910)" d="M692.894 1479.7 L697.779 1479.7 L697.779 1485.58 L692.894 1485.58 L692.894 1479.7 Z" fill="#000000" fill-rule="nonzero" fill-opacity="1"></path><path clip-path="url(#clip910)" d="M708.774 1481.64 L716.413 1481.64 L716.413 1455.28 L708.103 1456.95 L708.103 1452.69 L716.366 1451.02 L721.042 1451.02 L721.042 1481.64 L728.681 1481.64 L728.681 1485.58 L708.774 1485.58 L708.774 1481.64 Z" fill="#000000" fill-rule="nonzero" fill-opacity="1"></path><path clip-path="url(#clip910)" d="M1072.44 1454.1 Q1068.83 1454.1 1067 1457.66 Q1065.2 1461.2 1065.2 1468.33 Q1065.2 1475.44 1067 1479.01 Q1068.83 1482.55 1072.44 1482.55 Q1076.07 1482.55 1077.88 1479.01 Q1079.71 1475.44 1079.71 1468.33 Q1079.71 1461.2 1077.88 1457.66 Q1076.07 1454.1 1072.44 1454.1 M1072.44 1450.39 Q1078.25 1450.39 1081.31 1455 Q1084.39 1459.58 1084.39 1468.33 Q1084.39 1477.06 1081.31 1481.67 Q1078.25 1486.25 1072.44 1486.25 Q1066.63 1486.25 1063.55 1481.67 Q1060.5 1477.06 1060.5 1468.33 Q1060.5 1459.58 1063.55 1455 Q1066.63 1450.39 1072.44 1450.39 Z" fill="#000000" fill-rule="nonzero" fill-opacity="1"></path><path clip-path="url(#clip910)" d="M1092.6 1479.7 L1097.49 1479.7 L1097.49 1485.58 L1092.6 1485.58 L1092.6 1479.7 Z" fill="#000000" fill-rule="nonzero" fill-opacity="1"></path><path clip-path="url(#clip910)" d="M1111.7 1481.64 L1128.02 1481.64 L1128.02 1485.58 L1106.07 1485.58 L1106.07 1481.64 Q1108.74 1478.89 1113.32 1474.26 Q1117.93 1469.61 1119.11 1468.27 Q1121.35 1465.74 1122.23 1464.01 Q1123.13 1462.25 1123.13 1460.56 Q1123.13 1457.8 1121.19 1456.07 Q1119.27 1454.33 1116.17 1454.33 Q1113.97 1454.33 1111.51 1455.09 Q1109.08 1455.86 1106.31 1457.41 L1106.31 1452.69 Q1109.13 1451.55 1111.58 1450.97 Q1114.04 1450.39 1116.07 1450.39 Q1121.45 1450.39 1124.64 1453.08 Q1127.83 1455.77 1127.83 1460.26 Q1127.83 1462.39 1127.02 1464.31 Q1126.24 1466.2 1124.13 1468.8 Q1123.55 1469.47 1120.45 1472.69 Q1117.35 1475.88 1111.7 1481.64 Z" fill="#000000" fill-rule="nonzero" fill-opacity="1"></path><path clip-path="url(#clip910)" d="M1471.49 1454.1 Q1467.88 1454.1 1466.05 1457.66 Q1464.24 1461.2 1464.24 1468.33 Q1464.24 1475.44 1466.05 1479.01 Q1467.88 1482.55 1471.49 1482.55 Q1475.12 1482.55 1476.93 1479.01 Q1478.76 1475.44 1478.76 1468.33 Q1478.76 1461.2 1476.93 1457.66 Q1475.12 1454.1 1471.49 1454.1 M1471.49 1450.39 Q1477.3 1450.39 1480.36 1455 Q1483.43 1459.58 1483.43 1468.33 Q1483.43 1477.06 1480.36 1481.67 Q1477.3 1486.25 1471.49 1486.25 Q1465.68 1486.25 1462.6 1481.67 Q1459.55 1477.06 1459.55 1468.33 Q1459.55 1459.58 1462.6 1455 Q1465.68 1450.39 1471.49 1450.39 Z" fill="#000000" fill-rule="nonzero" fill-opacity="1"></path><path clip-path="url(#clip910)" d="M1491.65 1479.7 L1496.54 1479.7 L1496.54 1485.58 L1491.65 1485.58 L1491.65 1479.7 Z" fill="#000000" fill-rule="nonzero" fill-opacity="1"></path><path clip-path="url(#clip910)" d="M1520.89 1466.95 Q1524.24 1467.66 1526.12 1469.93 Q1528.02 1472.2 1528.02 1475.53 Q1528.02 1480.65 1524.5 1483.45 Q1520.98 1486.25 1514.5 1486.25 Q1512.32 1486.25 1510.01 1485.81 Q1507.72 1485.39 1505.26 1484.54 L1505.26 1480.02 Q1507.21 1481.16 1509.52 1481.74 Q1511.84 1482.32 1514.36 1482.32 Q1518.76 1482.32 1521.05 1480.58 Q1523.36 1478.84 1523.36 1475.53 Q1523.36 1472.48 1521.21 1470.77 Q1519.08 1469.03 1515.26 1469.03 L1511.23 1469.03 L1511.23 1465.19 L1515.45 1465.19 Q1518.9 1465.19 1520.73 1463.82 Q1522.55 1462.43 1522.55 1459.84 Q1522.55 1457.18 1520.66 1455.77 Q1518.78 1454.33 1515.26 1454.33 Q1513.34 1454.33 1511.14 1454.75 Q1508.94 1455.16 1506.3 1456.04 L1506.3 1451.88 Q1508.97 1451.14 1511.28 1450.77 Q1513.62 1450.39 1515.68 1450.39 Q1521 1450.39 1524.1 1452.83 Q1527.21 1455.23 1527.21 1459.35 Q1527.21 1462.22 1525.56 1464.21 Q1523.92 1466.18 1520.89 1466.95 Z" fill="#000000" fill-rule="nonzero" fill-opacity="1"></path><path clip-path="url(#clip910)" d="M1870.45 1454.1 Q1866.83 1454.1 1865.01 1457.66 Q1863.2 1461.2 1863.2 1468.33 Q1863.2 1475.44 1865.01 1479.01 Q1866.83 1482.55 1870.45 1482.55 Q1874.08 1482.55 1875.89 1479.01 Q1877.71 1475.44 1877.71 1468.33 Q1877.71 1461.2 1875.89 1457.66 Q1874.08 1454.1 1870.45 1454.1 M1870.45 1450.39 Q1876.26 1450.39 1879.31 1455 Q1882.39 1459.58 1882.39 1468.33 Q1882.39 1477.06 1879.31 1481.67 Q1876.26 1486.25 1870.45 1486.25 Q1864.64 1486.25 1861.56 1481.67 Q1858.5 1477.06 1858.5 1468.33 Q1858.5 1459.58 1861.56 1455 Q1864.64 1450.39 1870.45 1450.39 Z" fill="#000000" fill-rule="nonzero" fill-opacity="1"></path><path clip-path="url(#clip910)" d="M1890.61 1479.7 L1895.49 1479.7 L1895.49 1485.58 L1890.61 1485.58 L1890.61 1479.7 Z" fill="#000000" fill-rule="nonzero" fill-opacity="1"></path><path clip-path="url(#clip910)" d="M1918.52 1455.09 L1906.72 1473.54 L1918.52 1473.54 L1918.52 1455.09 M1917.3 1451.02 L1923.18 1451.02 L1923.18 1473.54 L1928.11 1473.54 L1928.11 1477.43 L1923.18 1477.43 L1923.18 1485.58 L1918.52 1485.58 L1918.52 1477.43 L1902.92 1477.43 L1902.92 1472.92 L1917.3 1451.02 Z" fill="#000000" fill-rule="nonzero" fill-opacity="1"></path><path clip-path="url(#clip910)" d="M2270.71 1454.1 Q2267.1 1454.1 2265.27 1457.66 Q2263.46 1461.2 2263.46 1468.33 Q2263.46 1475.44 2265.27 1479.01 Q2267.1 1482.55 2270.71 1482.55 Q2274.34 1482.55 2276.15 1479.01 Q2277.98 1475.44 2277.98 1468.33 Q2277.98 1461.2 2276.15 1457.66 Q2274.34 1454.1 2270.71 1454.1 M2270.71 1450.39 Q2276.52 1450.39 2279.58 1455 Q2282.65 1459.58 2282.65 1468.33 Q2282.65 1477.06 2279.58 1481.67 Q2276.52 1486.25 2270.71 1486.25 Q2264.9 1486.25 2261.82 1481.67 Q2258.77 1477.06 2258.77 1468.33 Q2258.77 1459.58 2261.82 1455 Q2264.9 1450.39 2270.71 1450.39 Z" fill="#000000" fill-rule="nonzero" fill-opacity="1"></path><path clip-path="url(#clip910)" d="M2290.87 1479.7 L2295.76 1479.7 L2295.76 1485.58 L2290.87 1485.58 L2290.87 1479.7 Z" fill="#000000" fill-rule="nonzero" fill-opacity="1"></path><path clip-path="url(#clip910)" d="M2305.99 1451.02 L2324.34 1451.02 L2324.34 1454.96 L2310.27 1454.96 L2310.27 1463.43 Q2311.29 1463.08 2312.31 1462.92 Q2313.32 1462.73 2314.34 1462.73 Q2320.13 1462.73 2323.51 1465.9 Q2326.89 1469.08 2326.89 1474.49 Q2326.89 1480.07 2323.42 1483.17 Q2319.95 1486.25 2313.63 1486.25 Q2311.45 1486.25 2309.18 1485.88 Q2306.94 1485.51 2304.53 1484.77 L2304.53 1480.07 Q2306.61 1481.2 2308.83 1481.76 Q2311.06 1482.32 2313.53 1482.32 Q2317.54 1482.32 2319.88 1480.21 Q2322.21 1478.1 2322.21 1474.49 Q2322.21 1470.88 2319.88 1468.77 Q2317.54 1466.67 2313.53 1466.67 Q2311.66 1466.67 2309.78 1467.08 Q2307.93 1467.5 2305.99 1468.38 L2305.99 1451.02 Z" fill="#000000" fill-rule="nonzero" fill-opacity="1"></path><path clip-path="url(#clip910)" d="M1215.9 1520.52 L1256.1 1520.52 L1256.1 1525.93 L1239.23 1525.93 L1239.23 1568.04 L1232.77 1568.04 L1232.77 1525.93 L1215.9 1525.93 L1215.9 1520.52 Z" fill="#000000" fill-rule="nonzero" fill-opacity="1"></path><path clip-path="url(#clip910)" d="M1260.04 1532.4 L1265.9 1532.4 L1265.9 1568.04 L1260.04 1568.04 L1260.04 1532.4 M1260.04 1518.52 L1265.9 1518.52 L1265.9 1525.93 L1260.04 1525.93 L1260.04 1518.52 Z" fill="#000000" fill-rule="nonzero" fill-opacity="1"></path><path clip-path="url(#clip910)" d="M1305.91 1539.24 Q1308.1 1535.29 1311.16 1533.41 Q1314.21 1531.54 1318.35 1531.54 Q1323.92 1531.54 1326.95 1535.45 Q1329.97 1539.33 1329.97 1546.53 L1329.97 1568.04 L1324.08 1568.04 L1324.08 1546.72 Q1324.08 1541.59 1322.27 1539.11 Q1320.45 1536.63 1316.73 1536.63 Q1312.18 1536.63 1309.54 1539.65 Q1306.89 1542.68 1306.89 1547.9 L1306.89 1568.04 L1301.01 1568.04 L1301.01 1546.72 Q1301.01 1541.56 1299.19 1539.11 Q1297.38 1536.63 1293.59 1536.63 Q1289.1 1536.63 1286.46 1539.68 Q1283.82 1542.71 1283.82 1547.9 L1283.82 1568.04 L1277.93 1568.04 L1277.93 1532.4 L1283.82 1532.4 L1283.82 1537.93 Q1285.82 1534.66 1288.62 1533.1 Q1291.43 1531.54 1295.28 1531.54 Q1299.16 1531.54 1301.87 1533.51 Q1304.6 1535.48 1305.91 1539.24 Z" fill="#000000" fill-rule="nonzero" fill-opacity="1"></path><path clip-path="url(#clip910)" d="M1372.14 1548.76 L1372.14 1551.62 L1345.22 1551.62 Q1345.6 1557.67 1348.84 1560.85 Q1352.12 1564 1357.95 1564 Q1361.32 1564 1364.47 1563.17 Q1367.65 1562.35 1370.77 1560.69 L1370.77 1566.23 Q1367.62 1567.57 1364.31 1568.27 Q1361 1568.97 1357.6 1568.97 Q1349.07 1568.97 1344.07 1564 Q1339.1 1559.04 1339.1 1550.57 Q1339.1 1541.82 1343.82 1536.69 Q1348.56 1531.54 1356.58 1531.54 Q1363.77 1531.54 1367.94 1536.18 Q1372.14 1540.8 1372.14 1548.76 M1366.29 1547.04 Q1366.22 1542.23 1363.58 1539.37 Q1360.97 1536.5 1356.64 1536.5 Q1351.74 1536.5 1348.78 1539.27 Q1345.85 1542.04 1345.41 1547.07 L1366.29 1547.04 Z" fill="#000000" fill-rule="nonzero" fill-opacity="1"></path><polyline clip-path="url(#clip912)" style="stroke:#000000; stroke-linecap:round; stroke-linejoin:round; stroke-width:2; stroke-opacity:0.1; fill:none" points="235.283,1386.4 2352.76,1386.4 "></polyline>
<polyline clip-path="url(#clip912)" style="stroke:#000000; stroke-linecap:round; stroke-linejoin:round; stroke-width:2; stroke-opacity:0.1; fill:none" points="235.283,1044.79 2352.76,1044.79 "></polyline>
<polyline clip-path="url(#clip912)" style="stroke:#000000; stroke-linecap:round; stroke-linejoin:round; stroke-width:2; stroke-opacity:0.1; fill:none" points="235.283,703.176 2352.76,703.176 "></polyline>
<polyline clip-path="url(#clip912)" style="stroke:#000000; stroke-linecap:round; stroke-linejoin:round; stroke-width:2; stroke-opacity:0.1; fill:none" points="235.283,361.567 2352.76,361.567 "></polyline>
<polyline clip-path="url(#clip910)" style="stroke:#000000; stroke-linecap:round; stroke-linejoin:round; stroke-width:4; stroke-opacity:1; fill:none" points="235.283,1423.18 235.283,123.472 "></polyline>
<polyline clip-path="url(#clip910)" style="stroke:#000000; stroke-linecap:round; stroke-linejoin:round; stroke-width:4; stroke-opacity:1; fill:none" points="235.283,1386.4 254.18,1386.4 "></polyline>
<polyline clip-path="url(#clip910)" style="stroke:#000000; stroke-linecap:round; stroke-linejoin:round; stroke-width:4; stroke-opacity:1; fill:none" points="235.283,1044.79 254.18,1044.79 "></polyline>
<polyline clip-path="url(#clip910)" style="stroke:#000000; stroke-linecap:round; stroke-linejoin:round; stroke-width:4; stroke-opacity:1; fill:none" points="235.283,703.176 254.18,703.176 "></polyline>
<polyline clip-path="url(#clip910)" style="stroke:#000000; stroke-linecap:round; stroke-linejoin:round; stroke-width:4; stroke-opacity:1; fill:none" points="235.283,361.567 254.18,361.567 "></polyline>
<path clip-path="url(#clip910)" d="M187.338 1372.19 Q183.727 1372.19 181.899 1375.76 Q180.093 1379.3 180.093 1386.43 Q180.093 1393.54 181.899 1397.1 Q183.727 1400.64 187.338 1400.64 Q190.973 1400.64 192.778 1397.1 Q194.607 1393.54 194.607 1386.43 Q194.607 1379.3 192.778 1375.76 Q190.973 1372.19 187.338 1372.19 M187.338 1368.49 Q193.149 1368.49 196.204 1373.1 Q199.283 1377.68 199.283 1386.43 Q199.283 1395.16 196.204 1399.76 Q193.149 1404.35 187.338 1404.35 Q181.528 1404.35 178.45 1399.76 Q175.394 1395.16 175.394 1386.43 Q175.394 1377.68 178.45 1373.1 Q181.528 1368.49 187.338 1368.49 Z" fill="#000000" fill-rule="nonzero" fill-opacity="1"></path><path clip-path="url(#clip910)" d="M121.043 1058.13 L137.362 1058.13 L137.362 1062.07 L115.418 1062.07 L115.418 1058.13 Q118.08 1055.38 122.663 1050.75 Q127.269 1046.09 128.45 1044.75 Q130.695 1042.23 131.575 1040.49 Q132.478 1038.73 132.478 1037.04 Q132.478 1034.29 130.533 1032.55 Q128.612 1030.82 125.51 1030.82 Q123.311 1030.82 120.857 1031.58 Q118.427 1032.34 115.649 1033.89 L115.649 1029.17 Q118.473 1028.04 120.927 1027.46 Q123.38 1026.88 125.418 1026.88 Q130.788 1026.88 133.982 1029.57 Q137.177 1032.25 137.177 1036.74 Q137.177 1038.87 136.367 1040.79 Q135.579 1042.69 133.473 1045.28 Q132.894 1045.96 129.792 1049.17 Q126.691 1052.37 121.043 1058.13 Z" fill="#000000" fill-rule="nonzero" fill-opacity="1"></path><path clip-path="url(#clip910)" d="M157.177 1030.58 Q153.566 1030.58 151.737 1034.15 Q149.931 1037.69 149.931 1044.82 Q149.931 1051.93 151.737 1055.49 Q153.566 1059.03 157.177 1059.03 Q160.811 1059.03 162.616 1055.49 Q164.445 1051.93 164.445 1044.82 Q164.445 1037.69 162.616 1034.15 Q160.811 1030.58 157.177 1030.58 M157.177 1026.88 Q162.987 1026.88 166.042 1031.49 Q169.121 1036.07 169.121 1044.82 Q169.121 1053.55 166.042 1058.15 Q162.987 1062.74 157.177 1062.74 Q151.366 1062.74 148.288 1058.15 Q145.232 1053.55 145.232 1044.82 Q145.232 1036.07 148.288 1031.49 Q151.366 1026.88 157.177 1026.88 Z" fill="#000000" fill-rule="nonzero" fill-opacity="1"></path><path clip-path="url(#clip910)" d="M187.338 1030.58 Q183.727 1030.58 181.899 1034.15 Q180.093 1037.69 180.093 1044.82 Q180.093 1051.93 181.899 1055.49 Q183.727 1059.03 187.338 1059.03 Q190.973 1059.03 192.778 1055.49 Q194.607 1051.93 194.607 1044.82 Q194.607 1037.69 192.778 1034.15 Q190.973 1030.58 187.338 1030.58 M187.338 1026.88 Q193.149 1026.88 196.204 1031.49 Q199.283 1036.07 199.283 1044.82 Q199.283 1053.55 196.204 1058.15 Q193.149 1062.74 187.338 1062.74 Q181.528 1062.74 178.45 1058.15 Q175.394 1053.55 175.394 1044.82 Q175.394 1036.07 178.45 1031.49 Q181.528 1026.88 187.338 1026.88 Z" fill="#000000" fill-rule="nonzero" fill-opacity="1"></path><path clip-path="url(#clip910)" d="M129.862 689.971 L118.056 708.419 L129.862 708.419 L129.862 689.971 M128.635 685.896 L134.515 685.896 L134.515 708.419 L139.445 708.419 L139.445 712.308 L134.515 712.308 L134.515 720.456 L129.862 720.456 L129.862 712.308 L114.26 712.308 L114.26 707.794 L128.635 685.896 Z" fill="#000000" fill-rule="nonzero" fill-opacity="1"></path><path clip-path="url(#clip910)" d="M157.177 688.975 Q153.566 688.975 151.737 692.54 Q149.931 696.082 149.931 703.211 Q149.931 710.318 151.737 713.882 Q153.566 717.424 157.177 717.424 Q160.811 717.424 162.616 713.882 Q164.445 710.318 164.445 703.211 Q164.445 696.082 162.616 692.54 Q160.811 688.975 157.177 688.975 M157.177 685.271 Q162.987 685.271 166.042 689.878 Q169.121 694.461 169.121 703.211 Q169.121 711.938 166.042 716.544 Q162.987 721.128 157.177 721.128 Q151.366 721.128 148.288 716.544 Q145.232 711.938 145.232 703.211 Q145.232 694.461 148.288 689.878 Q151.366 685.271 157.177 685.271 Z" fill="#000000" fill-rule="nonzero" fill-opacity="1"></path><path clip-path="url(#clip910)" d="M187.338 688.975 Q183.727 688.975 181.899 692.54 Q180.093 696.082 180.093 703.211 Q180.093 710.318 181.899 713.882 Q183.727 717.424 187.338 717.424 Q190.973 717.424 192.778 713.882 Q194.607 710.318 194.607 703.211 Q194.607 696.082 192.778 692.54 Q190.973 688.975 187.338 688.975 M187.338 685.271 Q193.149 685.271 196.204 689.878 Q199.283 694.461 199.283 703.211 Q199.283 711.938 196.204 716.544 Q193.149 721.128 187.338 721.128 Q181.528 721.128 178.45 716.544 Q175.394 711.938 175.394 703.211 Q175.394 694.461 178.45 689.878 Q181.528 685.271 187.338 685.271 Z" fill="#000000" fill-rule="nonzero" fill-opacity="1"></path><path clip-path="url(#clip910)" d="M127.593 359.703 Q124.445 359.703 122.593 361.856 Q120.765 364.009 120.765 367.759 Q120.765 371.486 122.593 373.662 Q124.445 375.814 127.593 375.814 Q130.742 375.814 132.57 373.662 Q134.422 371.486 134.422 367.759 Q134.422 364.009 132.57 361.856 Q130.742 359.703 127.593 359.703 M136.876 345.051 L136.876 349.31 Q135.117 348.477 133.311 348.037 Q131.529 347.597 129.769 347.597 Q125.14 347.597 122.686 350.722 Q120.255 353.847 119.908 360.166 Q121.274 358.153 123.334 357.088 Q125.394 356 127.871 356 Q133.08 356 136.089 359.171 Q139.121 362.319 139.121 367.759 Q139.121 373.083 135.973 376.301 Q132.825 379.518 127.593 379.518 Q121.598 379.518 118.427 374.935 Q115.256 370.328 115.256 361.602 Q115.256 353.407 119.144 348.546 Q123.033 343.662 129.584 343.662 Q131.343 343.662 133.126 344.009 Q134.931 344.356 136.876 345.051 Z" fill="#000000" fill-rule="nonzero" fill-opacity="1"></path><path clip-path="url(#clip910)" d="M157.177 347.366 Q153.566 347.366 151.737 350.93 Q149.931 354.472 149.931 361.602 Q149.931 368.708 151.737 372.273 Q153.566 375.814 157.177 375.814 Q160.811 375.814 162.616 372.273 Q164.445 368.708 164.445 361.602 Q164.445 354.472 162.616 350.93 Q160.811 347.366 157.177 347.366 M157.177 343.662 Q162.987 343.662 166.042 348.268 Q169.121 352.852 169.121 361.602 Q169.121 370.328 166.042 374.935 Q162.987 379.518 157.177 379.518 Q151.366 379.518 148.288 374.935 Q145.232 370.328 145.232 361.602 Q145.232 352.852 148.288 348.268 Q151.366 343.662 157.177 343.662 Z" fill="#000000" fill-rule="nonzero" fill-opacity="1"></path><path clip-path="url(#clip910)" d="M187.338 347.366 Q183.727 347.366 181.899 350.93 Q180.093 354.472 180.093 361.602 Q180.093 368.708 181.899 372.273 Q183.727 375.814 187.338 375.814 Q190.973 375.814 192.778 372.273 Q194.607 368.708 194.607 361.602 Q194.607 354.472 192.778 350.93 Q190.973 347.366 187.338 347.366 M187.338 343.662 Q193.149 343.662 196.204 348.268 Q199.283 352.852 199.283 361.602 Q199.283 370.328 196.204 374.935 Q193.149 379.518 187.338 379.518 Q181.528 379.518 178.45 374.935 Q175.394 370.328 175.394 361.602 Q175.394 352.852 178.45 348.268 Q181.528 343.662 187.338 343.662 Z" fill="#000000" fill-rule="nonzero" fill-opacity="1"></path><path clip-path="url(#clip910)" d="M16.4842 891.887 L16.4842 885.458 L64.0042 885.458 L64.0042 891.887 L16.4842 891.887 Z" fill="#000000" fill-rule="nonzero" fill-opacity="1"></path><path clip-path="url(#clip910)" d="M42.4881 843.285 L64.0042 843.285 L64.0042 849.142 L42.679 849.142 Q37.6183 849.142 35.1038 851.115 Q32.5894 853.088 32.5894 857.035 Q32.5894 861.777 35.6131 864.515 Q38.6368 867.252 43.8567 867.252 L64.0042 867.252 L64.0042 873.14 L28.3562 873.14 L28.3562 867.252 L33.8944 867.252 Q30.6797 865.151 29.0883 862.319 Q27.4968 859.454 27.4968 855.73 Q27.4968 849.587 31.3163 846.436 Q35.1038 843.285 42.4881 843.285 Z" fill="#000000" fill-rule="nonzero" fill-opacity="1"></path><path clip-path="url(#clip910)" d="M18.2347 825.811 L28.3562 825.811 L28.3562 813.748 L32.9077 813.748 L32.9077 825.811 L52.2594 825.811 Q56.6199 825.811 57.8613 824.634 Q59.1026 823.424 59.1026 819.764 L59.1026 813.748 L64.0042 813.748 L64.0042 819.764 Q64.0042 826.543 61.4897 829.121 Q58.9434 831.7 52.2594 831.7 L32.9077 831.7 L32.9077 835.996 L28.3562 835.996 L28.3562 831.7 L18.2347 831.7 L18.2347 825.811 Z" fill="#000000" fill-rule="nonzero" fill-opacity="1"></path><path clip-path="url(#clip910)" d="M44.7161 775.554 L47.5806 775.554 L47.5806 802.481 Q53.6281 802.099 56.8109 798.852 Q59.9619 795.574 59.9619 789.75 Q59.9619 786.376 59.1344 783.225 Q58.3069 780.042 56.6518 776.923 L62.1899 776.923 Q63.5267 780.074 64.227 783.384 Q64.9272 786.694 64.9272 790.1 Q64.9272 798.63 59.9619 803.627 Q54.9967 808.592 46.5303 808.592 Q37.7774 808.592 32.6531 803.881 Q27.4968 799.139 27.4968 791.118 Q27.4968 783.925 32.1438 779.755 Q36.7589 775.554 44.7161 775.554 M42.9973 781.41 Q38.1912 781.474 35.3266 784.116 Q32.4621 786.726 32.4621 791.054 Q32.4621 795.956 35.2312 798.916 Q38.0002 801.844 43.0292 802.29 L42.9973 781.41 Z" fill="#000000" fill-rule="nonzero" fill-opacity="1"></path><path clip-path="url(#clip910)" d="M33.8307 745.285 Q33.2578 746.272 33.0032 747.449 Q32.7167 748.595 32.7167 749.996 Q32.7167 754.961 35.9632 757.635 Q39.1779 760.276 45.2253 760.276 L64.0042 760.276 L64.0042 766.165 L28.3562 766.165 L28.3562 760.276 L33.8944 760.276 Q30.6479 758.43 29.0883 755.47 Q27.4968 752.51 27.4968 748.277 Q27.4968 747.672 27.5923 746.94 Q27.656 746.208 27.8151 745.317 L33.8307 745.285 Z" fill="#000000" fill-rule="nonzero" fill-opacity="1"></path><path clip-path="url(#clip910)" d="M28.3562 743.344 L28.3562 737.137 L58.275 725.997 L28.3562 714.857 L28.3562 708.65 L64.0042 722.018 L64.0042 729.976 L28.3562 743.344 Z" fill="#000000" fill-rule="nonzero" fill-opacity="1"></path><path clip-path="url(#clip910)" d="M46.0847 684.365 Q46.0847 691.463 47.7079 694.2 Q49.3312 696.938 53.2461 696.938 Q56.3653 696.938 58.2114 694.9 Q60.0256 692.832 60.0256 689.299 Q60.0256 684.429 56.5881 681.501 Q53.1188 678.541 47.3897 678.541 L46.0847 678.541 L46.0847 684.365 M43.6657 672.684 L64.0042 672.684 L64.0042 678.541 L58.5933 678.541 Q61.8398 680.546 63.3994 683.538 Q64.9272 686.53 64.9272 690.858 Q64.9272 696.333 61.8716 699.579 Q58.7843 702.794 53.6281 702.794 Q47.6125 702.794 44.5569 698.784 Q41.5014 694.741 41.5014 686.752 L41.5014 678.541 L40.9285 678.541 Q36.8862 678.541 34.6901 681.214 Q32.4621 683.856 32.4621 688.662 Q32.4621 691.718 33.1941 694.614 Q33.9262 697.51 35.3903 700.184 L29.9795 700.184 Q28.7381 696.969 28.1334 693.946 Q27.4968 690.922 27.4968 688.057 Q27.4968 680.323 31.5072 676.504 Q35.5176 672.684 43.6657 672.684 Z" fill="#000000" fill-rule="nonzero" fill-opacity="1"></path><path clip-path="url(#clip910)" d="M14.479 660.621 L14.479 654.765 L64.0042 654.765 L64.0042 660.621 L14.479 660.621 Z" fill="#000000" fill-rule="nonzero" fill-opacity="1"></path><path clip-path="url(#clip910)" d="M945.783 12.096 L953.966 12.096 L953.966 72.576 L945.783 72.576 L945.783 12.096 Z" fill="#000000" fill-rule="nonzero" fill-opacity="1"></path><path clip-path="url(#clip910)" d="M1007.64 45.1919 L1007.64 72.576 L1000.19 72.576 L1000.19 45.4349 Q1000.19 38.994 997.675 35.7938 Q995.164 32.5936 990.141 32.5936 Q984.105 32.5936 980.621 36.4419 Q977.137 40.2903 977.137 46.9338 L977.137 72.576 L969.643 72.576 L969.643 27.2059 L977.137 27.2059 L977.137 34.2544 Q979.811 30.163 983.416 28.1376 Q987.062 26.1121 991.802 26.1121 Q999.62 26.1121 1003.63 30.9732 Q1007.64 35.7938 1007.64 45.1919 Z" fill="#000000" fill-rule="nonzero" fill-opacity="1"></path><path clip-path="url(#clip910)" d="M1029.88 14.324 L1029.88 27.2059 L1045.23 27.2059 L1045.23 32.9987 L1029.88 32.9987 L1029.88 57.6282 Q1029.88 63.1779 1031.38 64.7578 Q1032.92 66.3376 1037.58 66.3376 L1045.23 66.3376 L1045.23 72.576 L1037.58 72.576 Q1028.95 72.576 1025.67 69.3758 Q1022.39 66.1351 1022.39 57.6282 L1022.39 32.9987 L1016.92 32.9987 L1016.92 27.2059 L1022.39 27.2059 L1022.39 14.324 L1029.88 14.324 Z" fill="#000000" fill-rule="nonzero" fill-opacity="1"></path><path clip-path="url(#clip910)" d="M1093.84 48.0275 L1093.84 51.6733 L1059.57 51.6733 Q1060.06 59.3701 1064.19 63.421 Q1068.36 67.4314 1075.78 67.4314 Q1080.07 67.4314 1084.08 66.3781 Q1088.13 65.3249 1092.1 63.2184 L1092.1 70.267 Q1088.09 71.9684 1083.88 72.8596 Q1079.67 73.7508 1075.33 73.7508 Q1064.47 73.7508 1058.11 67.4314 Q1051.8 61.1119 1051.8 50.3365 Q1051.8 39.1965 1057.79 32.6746 Q1063.83 26.1121 1074.04 26.1121 Q1083.19 26.1121 1088.5 32.0264 Q1093.84 37.9003 1093.84 48.0275 M1086.39 45.84 Q1086.31 39.7232 1082.95 36.0774 Q1079.63 32.4315 1074.12 32.4315 Q1067.88 32.4315 1064.11 35.9558 Q1060.38 39.4801 1059.82 45.8805 L1086.39 45.84 Z" fill="#000000" fill-rule="nonzero" fill-opacity="1"></path><path clip-path="url(#clip910)" d="M1132.37 34.1734 Q1131.11 33.4443 1129.61 33.1202 Q1128.16 32.7556 1126.37 32.7556 Q1120.05 32.7556 1116.65 36.8875 Q1113.29 40.9789 1113.29 48.6757 L1113.29 72.576 L1105.79 72.576 L1105.79 27.2059 L1113.29 27.2059 L1113.29 34.2544 Q1115.64 30.1225 1119.41 28.1376 Q1123.17 26.1121 1128.56 26.1121 Q1129.33 26.1121 1130.26 26.2337 Q1131.19 26.3147 1132.33 26.5172 L1132.37 34.1734 Z" fill="#000000" fill-rule="nonzero" fill-opacity="1"></path><path clip-path="url(#clip910)" d="M1134.84 27.2059 L1142.74 27.2059 L1156.92 65.2844 L1171.09 27.2059 L1178.99 27.2059 L1161.98 72.576 L1151.85 72.576 L1134.84 27.2059 Z" fill="#000000" fill-rule="nonzero" fill-opacity="1"></path><path clip-path="url(#clip910)" d="M1209.9 49.7694 Q1200.87 49.7694 1197.39 51.8354 Q1193.9 53.9013 1193.9 58.8839 Q1193.9 62.8538 1196.49 65.2034 Q1199.13 67.5124 1203.62 67.5124 Q1209.82 67.5124 1213.55 63.1374 Q1217.32 58.7219 1217.32 51.4303 L1217.32 49.7694 L1209.9 49.7694 M1224.77 46.6907 L1224.77 72.576 L1217.32 72.576 L1217.32 65.6895 Q1214.76 69.8214 1210.96 71.8063 Q1207.15 73.7508 1201.64 73.7508 Q1194.67 73.7508 1190.54 69.8619 Q1186.45 65.9325 1186.45 59.3701 Q1186.45 51.7138 1191.55 47.825 Q1196.7 43.9361 1206.86 43.9361 L1217.32 43.9361 L1217.32 43.2069 Q1217.32 38.0623 1213.91 35.2672 Q1210.55 32.4315 1204.43 32.4315 Q1200.54 32.4315 1196.86 33.3632 Q1193.17 34.295 1189.77 36.1584 L1189.77 29.2718 Q1193.86 27.692 1197.71 26.9223 Q1201.56 26.1121 1205.2 26.1121 Q1215.05 26.1121 1219.91 31.2163 Q1224.77 36.3204 1224.77 46.6907 Z" fill="#000000" fill-rule="nonzero" fill-opacity="1"></path><path clip-path="url(#clip910)" d="M1240.12 9.54393 L1247.58 9.54393 L1247.58 72.576 L1240.12 72.576 L1240.12 9.54393 Z" fill="#000000" fill-rule="nonzero" fill-opacity="1"></path><path clip-path="url(#clip910)" d="M1292.1 28.5427 L1292.1 35.5912 Q1288.94 33.9709 1285.53 33.1607 Q1282.13 32.3505 1278.48 32.3505 Q1272.93 32.3505 1270.14 34.0519 Q1267.38 35.7533 1267.38 39.156 Q1267.38 41.7486 1269.37 43.2475 Q1271.35 44.7058 1277.35 46.0426 L1279.9 46.6097 Q1287.84 48.3111 1291.16 51.4303 Q1294.53 54.509 1294.53 60.0587 Q1294.53 66.3781 1289.5 70.0644 Q1284.52 73.7508 1275.77 73.7508 Q1272.12 73.7508 1268.15 73.0216 Q1264.22 72.3329 1259.85 70.9151 L1259.85 63.2184 Q1263.98 65.3654 1267.99 66.4591 Q1272 67.5124 1275.93 67.5124 Q1281.2 67.5124 1284.03 65.73 Q1286.87 63.9071 1286.87 60.6258 Q1286.87 57.5877 1284.8 55.9673 Q1282.78 54.3469 1275.85 52.8481 L1273.26 52.2405 Q1266.33 50.7821 1263.25 47.7845 Q1260.17 44.7463 1260.17 39.4801 Q1260.17 33.0797 1264.71 29.5959 Q1269.25 26.1121 1277.59 26.1121 Q1281.72 26.1121 1285.37 26.7198 Q1289.02 27.3274 1292.1 28.5427 Z" fill="#000000" fill-rule="nonzero" fill-opacity="1"></path><path clip-path="url(#clip910)" d="M1327.42 27.2059 L1335.32 27.2059 L1349.5 65.2844 L1363.67 27.2059 L1371.57 27.2059 L1354.56 72.576 L1344.43 72.576 L1327.42 27.2059 Z" fill="#000000" fill-rule="nonzero" fill-opacity="1"></path><path clip-path="url(#clip910)" d="M1410.79 28.5427 L1410.79 35.5912 Q1407.63 33.9709 1404.22 33.1607 Q1400.82 32.3505 1397.18 32.3505 Q1391.63 32.3505 1388.83 34.0519 Q1386.08 35.7533 1386.08 39.156 Q1386.08 41.7486 1388.06 43.2475 Q1390.05 44.7058 1396.04 46.0426 L1398.59 46.6097 Q1406.53 48.3111 1409.85 51.4303 Q1413.22 54.509 1413.22 60.0587 Q1413.22 66.3781 1408.19 70.0644 Q1403.21 73.7508 1394.46 73.7508 Q1390.82 73.7508 1386.85 73.0216 Q1382.92 72.3329 1378.54 70.9151 L1378.54 63.2184 Q1382.67 65.3654 1386.68 66.4591 Q1390.69 67.5124 1394.62 67.5124 Q1399.89 67.5124 1402.73 65.73 Q1405.56 63.9071 1405.56 60.6258 Q1405.56 57.5877 1403.5 55.9673 Q1401.47 54.3469 1394.54 52.8481 L1391.95 52.2405 Q1385.02 50.7821 1381.94 47.7845 Q1378.87 44.7463 1378.87 39.4801 Q1378.87 33.0797 1383.4 29.5959 Q1387.94 26.1121 1396.28 26.1121 Q1400.42 26.1121 1404.06 26.7198 Q1407.71 27.3274 1410.79 28.5427 Z" fill="#000000" fill-rule="nonzero" fill-opacity="1"></path><path clip-path="url(#clip910)" d="M1443.4 12.096 L1494.56 12.096 L1494.56 18.9825 L1473.09 18.9825 L1473.09 72.576 L1464.87 72.576 L1464.87 18.9825 L1443.4 18.9825 L1443.4 12.096 Z" fill="#000000" fill-rule="nonzero" fill-opacity="1"></path><path clip-path="url(#clip910)" d="M1499.58 27.2059 L1507.04 27.2059 L1507.04 72.576 L1499.58 72.576 L1499.58 27.2059 M1499.58 9.54393 L1507.04 9.54393 L1507.04 18.9825 L1499.58 18.9825 L1499.58 9.54393 Z" fill="#000000" fill-rule="nonzero" fill-opacity="1"></path><path clip-path="url(#clip910)" d="M1557.96 35.9153 Q1560.75 30.8922 1564.64 28.5022 Q1568.53 26.1121 1573.8 26.1121 Q1580.88 26.1121 1584.73 31.0947 Q1588.58 36.0368 1588.58 45.1919 L1588.58 72.576 L1581.09 72.576 L1581.09 45.4349 Q1581.09 38.913 1578.78 35.7533 Q1576.47 32.5936 1571.73 32.5936 Q1565.94 32.5936 1562.57 36.4419 Q1559.21 40.2903 1559.21 46.9338 L1559.21 72.576 L1551.72 72.576 L1551.72 45.4349 Q1551.72 38.8725 1549.41 35.7533 Q1547.1 32.5936 1542.28 32.5936 Q1536.57 32.5936 1533.21 36.4824 Q1529.84 40.3308 1529.84 46.9338 L1529.84 72.576 L1522.35 72.576 L1522.35 27.2059 L1529.84 27.2059 L1529.84 34.2544 Q1532.39 30.082 1535.96 28.0971 Q1539.52 26.1121 1544.43 26.1121 Q1549.37 26.1121 1552.81 28.6237 Q1556.3 31.1352 1557.96 35.9153 Z" fill="#000000" fill-rule="nonzero" fill-opacity="1"></path><path clip-path="url(#clip910)" d="M1642.26 48.0275 L1642.26 51.6733 L1607.98 51.6733 Q1608.47 59.3701 1612.6 63.421 Q1616.78 67.4314 1624.19 67.4314 Q1628.48 67.4314 1632.49 66.3781 Q1636.54 65.3249 1640.51 63.2184 L1640.51 70.267 Q1636.5 71.9684 1632.29 72.8596 Q1628.08 73.7508 1623.74 73.7508 Q1612.89 73.7508 1606.53 67.4314 Q1600.21 61.1119 1600.21 50.3365 Q1600.21 39.1965 1606.2 32.6746 Q1612.24 26.1121 1622.45 26.1121 Q1631.6 26.1121 1636.91 32.0264 Q1642.26 37.9003 1642.26 48.0275 M1634.8 45.84 Q1634.72 39.7232 1631.36 36.0774 Q1628.04 32.4315 1622.53 32.4315 Q1616.29 32.4315 1612.52 35.9558 Q1608.79 39.4801 1608.23 45.8805 L1634.8 45.84 Z" fill="#000000" fill-rule="nonzero" fill-opacity="1"></path><path clip-path="url(#clip912)" d="M295.211 1386.4 L295.211 1377.86 L295.211 1386.4 L295.211 1386.4  Z" fill="#0000ff" fill-rule="evenodd" fill-opacity="0.3"></path>
<polyline clip-path="url(#clip912)" style="stroke:#0000ff; stroke-linecap:round; stroke-linejoin:round; stroke-width:4; stroke-opacity:1; fill:none" points="295.211,1386.4 295.211,1377.86 "></polyline>
<path clip-path="url(#clip912)" d="M295.211 1386.4 L295.211 1377.86 L295.211 1386.4 L295.211 1386.4  Z" fill="#0000ff" fill-rule="evenodd" fill-opacity="0.3"></path>
<polyline clip-path="url(#clip912)" style="stroke:#0000ff; stroke-linecap:round; stroke-linejoin:round; stroke-width:4; stroke-opacity:1; fill:none" points="295.211,1386.4 295.211,1377.86 "></polyline>
<path clip-path="url(#clip912)" d="M375.116 1383.01 L375.116 1374.47 L375.116 1386.4 L375.116 1386.4  Z" fill="#0000ff" fill-rule="evenodd" fill-opacity="0.3"></path>
<polyline clip-path="url(#clip912)" style="stroke:#0000ff; stroke-linecap:round; stroke-linejoin:round; stroke-width:4; stroke-opacity:1; fill:none" points="375.116,1383.01 375.116,1374.47 "></polyline>
<path clip-path="url(#clip912)" d="M415.068 1377.94 L415.068 1369.4 L415.068 1386.4 L415.068 1386.4  Z" fill="#0000ff" fill-rule="evenodd" fill-opacity="0.3"></path>
<polyline clip-path="url(#clip912)" style="stroke:#0000ff; stroke-linecap:round; stroke-linejoin:round; stroke-width:4; stroke-opacity:1; fill:none" points="415.068,1377.94 415.068,1369.4 "></polyline>
<path clip-path="url(#clip912)" d="M455.021 1371.18 L455.021 1362.64 L455.021 1386.4 L455.021 1386.4  Z" fill="#0000ff" fill-rule="evenodd" fill-opacity="0.3"></path>
<polyline clip-path="url(#clip912)" style="stroke:#0000ff; stroke-linecap:round; stroke-linejoin:round; stroke-width:4; stroke-opacity:1; fill:none" points="455.021,1371.18 455.021,1362.64 "></polyline>
<path clip-path="url(#clip912)" d="M494.973 1362.72 L494.973 1354.18 L494.973 1386.4 L494.973 1386.4  Z" fill="#0000ff" fill-rule="evenodd" fill-opacity="0.3"></path>
<polyline clip-path="url(#clip912)" style="stroke:#0000ff; stroke-linecap:round; stroke-linejoin:round; stroke-width:4; stroke-opacity:1; fill:none" points="494.973,1362.72 494.973,1354.18 "></polyline>
<path clip-path="url(#clip912)" d="M534.925 1352.58 L534.925 1344.04 L534.925 1386.4 L534.925 1386.4  Z" fill="#0000ff" fill-rule="evenodd" fill-opacity="0.3"></path>
<polyline clip-path="url(#clip912)" style="stroke:#0000ff; stroke-linecap:round; stroke-linejoin:round; stroke-width:4; stroke-opacity:1; fill:none" points="534.925,1352.58 534.925,1344.04 "></polyline>
<path clip-path="url(#clip912)" d="M574.878 1340.74 L574.878 1332.2 L574.878 1386.4 L574.878 1386.4  Z" fill="#0000ff" fill-rule="evenodd" fill-opacity="0.3"></path>
<polyline clip-path="url(#clip912)" style="stroke:#0000ff; stroke-linecap:round; stroke-linejoin:round; stroke-width:4; stroke-opacity:1; fill:none" points="574.878,1340.74 574.878,1332.2 "></polyline>
<path clip-path="url(#clip912)" d="M614.83 1327.21 L614.83 1318.67 L614.83 1386.4 L614.83 1386.4  Z" fill="#0000ff" fill-rule="evenodd" fill-opacity="0.3"></path>
<polyline clip-path="url(#clip912)" style="stroke:#0000ff; stroke-linecap:round; stroke-linejoin:round; stroke-width:4; stroke-opacity:1; fill:none" points="614.83,1327.21 614.83,1318.67 "></polyline>
<path clip-path="url(#clip912)" d="M654.782 1311.99 L654.782 1303.45 L654.782 1386.4 L654.782 1386.4  Z" fill="#0000ff" fill-rule="evenodd" fill-opacity="0.3"></path>
<polyline clip-path="url(#clip912)" style="stroke:#0000ff; stroke-linecap:round; stroke-linejoin:round; stroke-width:4; stroke-opacity:1; fill:none" points="654.782,1311.99 654.782,1303.45 "></polyline>
<path clip-path="url(#clip912)" d="M694.735 1295.08 L694.735 1286.54 L694.735 1386.4 L694.735 1386.4  Z" fill="#0000ff" fill-rule="evenodd" fill-opacity="0.3"></path>
<polyline clip-path="url(#clip912)" style="stroke:#0000ff; stroke-linecap:round; stroke-linejoin:round; stroke-width:4; stroke-opacity:1; fill:none" points="694.735,1295.08 694.735,1286.54 "></polyline>
<path clip-path="url(#clip912)" d="M734.687 1276.48 L734.687 1267.94 L734.687 1386.4 L734.687 1386.4  Z" fill="#0000ff" fill-rule="evenodd" fill-opacity="0.3"></path>
<polyline clip-path="url(#clip912)" style="stroke:#0000ff; stroke-linecap:round; stroke-linejoin:round; stroke-width:4; stroke-opacity:1; fill:none" points="734.687,1276.48 734.687,1267.94 "></polyline>
<path clip-path="url(#clip912)" d="M774.639 1256.19 L774.639 1247.65 L774.639 1386.4 L774.639 1386.4  Z" fill="#0000ff" fill-rule="evenodd" fill-opacity="0.3"></path>
<polyline clip-path="url(#clip912)" style="stroke:#0000ff; stroke-linecap:round; stroke-linejoin:round; stroke-width:4; stroke-opacity:1; fill:none" points="774.639,1256.19 774.639,1247.65 "></polyline>
<path clip-path="url(#clip912)" d="M814.592 1234.21 L814.592 1225.67 L814.592 1386.4 L814.592 1386.4  Z" fill="#0000ff" fill-rule="evenodd" fill-opacity="0.3"></path>
<polyline clip-path="url(#clip912)" style="stroke:#0000ff; stroke-linecap:round; stroke-linejoin:round; stroke-width:4; stroke-opacity:1; fill:none" points="814.592,1234.21 814.592,1225.67 "></polyline>
<path clip-path="url(#clip912)" d="M854.544 1225.67 L854.544 1198.51 L854.544 1386.4 L854.544 1386.4  Z" fill="#0000ff" fill-rule="evenodd" fill-opacity="0.3"></path>
<polyline clip-path="url(#clip912)" style="stroke:#0000ff; stroke-linecap:round; stroke-linejoin:round; stroke-width:4; stroke-opacity:1; fill:none" points="854.544,1225.67 854.544,1198.51 "></polyline>
<path clip-path="url(#clip912)" d="M934.448 1218.9 L934.448 1191.75 L934.448 1386.4 L934.448 1386.4  Z" fill="#0000ff" fill-rule="evenodd" fill-opacity="0.3"></path>
<polyline clip-path="url(#clip912)" style="stroke:#0000ff; stroke-linecap:round; stroke-linejoin:round; stroke-width:4; stroke-opacity:1; fill:none" points="934.448,1218.9 934.448,1191.75 "></polyline>
<path clip-path="url(#clip912)" d="M974.401 1218.9 L974.401 1191.75 L974.401 1386.4 L974.401 1386.4  Z" fill="#0000ff" fill-rule="evenodd" fill-opacity="0.3"></path>
<polyline clip-path="url(#clip912)" style="stroke:#0000ff; stroke-linecap:round; stroke-linejoin:round; stroke-width:4; stroke-opacity:1; fill:none" points="974.401,1218.9 974.401,1191.75 "></polyline>
<path clip-path="url(#clip912)" d="M1054.31 1212.14 L1054.31 1184.98 L1054.31 1386.4 L1054.31 1386.4  Z" fill="#0000ff" fill-rule="evenodd" fill-opacity="0.3"></path>
<polyline clip-path="url(#clip912)" style="stroke:#0000ff; stroke-linecap:round; stroke-linejoin:round; stroke-width:4; stroke-opacity:1; fill:none" points="1054.31,1212.14 1054.31,1184.98 "></polyline>
<path clip-path="url(#clip912)" d="M1094.26 1212.14 L1094.26 1184.98 L1094.26 1386.4 L1094.26 1386.4  Z" fill="#0000ff" fill-rule="evenodd" fill-opacity="0.3"></path>
<polyline clip-path="url(#clip912)" style="stroke:#0000ff; stroke-linecap:round; stroke-linejoin:round; stroke-width:4; stroke-opacity:1; fill:none" points="1094.26,1212.14 1094.26,1184.98 "></polyline>
<path clip-path="url(#clip912)" d="M1174.16 1205.38 L1174.16 1178.22 L1174.16 1386.4 L1174.16 1386.4  Z" fill="#0000ff" fill-rule="evenodd" fill-opacity="0.3"></path>
<polyline clip-path="url(#clip912)" style="stroke:#0000ff; stroke-linecap:round; stroke-linejoin:round; stroke-width:4; stroke-opacity:1; fill:none" points="1174.16,1205.38 1174.16,1178.22 "></polyline>
<path clip-path="url(#clip912)" d="M1214.11 1205.38 L1214.11 1178.22 L1214.11 1386.4 L1214.11 1386.4  Z" fill="#0000ff" fill-rule="evenodd" fill-opacity="0.3"></path>
<polyline clip-path="url(#clip912)" style="stroke:#0000ff; stroke-linecap:round; stroke-linejoin:round; stroke-width:4; stroke-opacity:1; fill:none" points="1214.11,1205.38 1214.11,1178.22 "></polyline>
<path clip-path="url(#clip912)" d="M1294.02 1198.61 L1294.02 1171.45 L1294.02 1386.4 L1294.02 1386.4  Z" fill="#0000ff" fill-rule="evenodd" fill-opacity="0.3"></path>
<polyline clip-path="url(#clip912)" style="stroke:#0000ff; stroke-linecap:round; stroke-linejoin:round; stroke-width:4; stroke-opacity:1; fill:none" points="1294.02,1198.61 1294.02,1171.45 "></polyline>
<path clip-path="url(#clip912)" d="M1333.97 1198.61 L1333.97 1171.45 L1333.97 1386.4 L1333.97 1386.4  Z" fill="#0000ff" fill-rule="evenodd" fill-opacity="0.3"></path>
<polyline clip-path="url(#clip912)" style="stroke:#0000ff; stroke-linecap:round; stroke-linejoin:round; stroke-width:4; stroke-opacity:1; fill:none" points="1333.97,1198.61 1333.97,1171.45 "></polyline>
<path clip-path="url(#clip912)" d="M1413.88 1191.85 L1413.88 1164.69 L1413.88 1386.4 L1413.88 1386.4  Z" fill="#0000ff" fill-rule="evenodd" fill-opacity="0.3"></path>
<polyline clip-path="url(#clip912)" style="stroke:#0000ff; stroke-linecap:round; stroke-linejoin:round; stroke-width:4; stroke-opacity:1; fill:none" points="1413.88,1191.85 1413.88,1164.69 "></polyline>
<path clip-path="url(#clip912)" d="M1453.83 1181.7 L1453.83 1154.55 L1453.83 1386.4 L1453.83 1386.4  Z" fill="#0000ff" fill-rule="evenodd" fill-opacity="0.3"></path>
<polyline clip-path="url(#clip912)" style="stroke:#0000ff; stroke-linecap:round; stroke-linejoin:round; stroke-width:4; stroke-opacity:1; fill:none" points="1453.83,1181.7 1453.83,1154.55 "></polyline>
<path clip-path="url(#clip912)" d="M1493.78 1168.18 L1493.78 1141.02 L1493.78 1386.4 L1493.78 1386.4  Z" fill="#0000ff" fill-rule="evenodd" fill-opacity="0.3"></path>
<polyline clip-path="url(#clip912)" style="stroke:#0000ff; stroke-linecap:round; stroke-linejoin:round; stroke-width:4; stroke-opacity:1; fill:none" points="1493.78,1168.18 1493.78,1141.02 "></polyline>
<path clip-path="url(#clip912)" d="M1533.73 1151.27 L1533.73 1124.11 L1533.73 1386.4 L1533.73 1386.4  Z" fill="#0000ff" fill-rule="evenodd" fill-opacity="0.3"></path>
<polyline clip-path="url(#clip912)" style="stroke:#0000ff; stroke-linecap:round; stroke-linejoin:round; stroke-width:4; stroke-opacity:1; fill:none" points="1533.73,1151.27 1533.73,1124.11 "></polyline>
<path clip-path="url(#clip912)" d="M1573.69 1130.97 L1573.69 1103.82 L1573.69 1386.4 L1573.69 1386.4  Z" fill="#0000ff" fill-rule="evenodd" fill-opacity="0.3"></path>
<polyline clip-path="url(#clip912)" style="stroke:#0000ff; stroke-linecap:round; stroke-linejoin:round; stroke-width:4; stroke-opacity:1; fill:none" points="1573.69,1130.97 1573.69,1103.82 "></polyline>
<path clip-path="url(#clip912)" d="M1613.64 1107.3 L1613.64 1080.14 L1613.64 1386.4 L1613.64 1386.4  Z" fill="#0000ff" fill-rule="evenodd" fill-opacity="0.3"></path>
<polyline clip-path="url(#clip912)" style="stroke:#0000ff; stroke-linecap:round; stroke-linejoin:round; stroke-width:4; stroke-opacity:1; fill:none" points="1613.64,1107.3 1613.64,1080.14 "></polyline>
<path clip-path="url(#clip912)" d="M1653.59 1080.25 L1653.59 1053.09 L1653.59 1386.4 L1653.59 1386.4  Z" fill="#0000ff" fill-rule="evenodd" fill-opacity="0.3"></path>
<polyline clip-path="url(#clip912)" style="stroke:#0000ff; stroke-linecap:round; stroke-linejoin:round; stroke-width:4; stroke-opacity:1; fill:none" points="1653.59,1080.25 1653.59,1053.09 "></polyline>
<path clip-path="url(#clip912)" d="M1693.54 1049.81 L1693.54 1022.65 L1693.54 1386.4 L1693.54 1386.4  Z" fill="#0000ff" fill-rule="evenodd" fill-opacity="0.3"></path>
<polyline clip-path="url(#clip912)" style="stroke:#0000ff; stroke-linecap:round; stroke-linejoin:round; stroke-width:4; stroke-opacity:1; fill:none" points="1693.54,1049.81 1693.54,1022.65 "></polyline>
<path clip-path="url(#clip912)" d="M1733.49 1015.99 L1733.49 988.83 L1733.49 1386.4 L1733.49 1386.4  Z" fill="#0000ff" fill-rule="evenodd" fill-opacity="0.3"></path>
<polyline clip-path="url(#clip912)" style="stroke:#0000ff; stroke-linecap:round; stroke-linejoin:round; stroke-width:4; stroke-opacity:1; fill:none" points="1733.49,1015.99 1733.49,988.83 "></polyline>
<path clip-path="url(#clip912)" d="M1773.45 978.787 L1773.45 951.629 L1773.45 1386.4 L1773.45 1386.4  Z" fill="#0000ff" fill-rule="evenodd" fill-opacity="0.3"></path>
<polyline clip-path="url(#clip912)" style="stroke:#0000ff; stroke-linecap:round; stroke-linejoin:round; stroke-width:4; stroke-opacity:1; fill:none" points="1773.45,978.787 1773.45,951.629 "></polyline>
<path clip-path="url(#clip912)" d="M1813.4 938.204 L1813.4 911.046 L1813.4 1386.4 L1813.4 1386.4  Z" fill="#0000ff" fill-rule="evenodd" fill-opacity="0.3"></path>
<polyline clip-path="url(#clip912)" style="stroke:#0000ff; stroke-linecap:round; stroke-linejoin:round; stroke-width:4; stroke-opacity:1; fill:none" points="1813.4,938.204 1813.4,911.046 "></polyline>
<path clip-path="url(#clip912)" d="M1853.35 894.239 L1853.35 867.081 L1853.35 1386.4 L1853.35 1386.4  Z" fill="#0000ff" fill-rule="evenodd" fill-opacity="0.3"></path>
<polyline clip-path="url(#clip912)" style="stroke:#0000ff; stroke-linecap:round; stroke-linejoin:round; stroke-width:4; stroke-opacity:1; fill:none" points="1853.35,894.239 1853.35,867.081 "></polyline>
<path clip-path="url(#clip912)" d="M1893.3 846.892 L1893.3 819.734 L1893.3 1386.4 L1893.3 1386.4  Z" fill="#0000ff" fill-rule="evenodd" fill-opacity="0.3"></path>
<polyline clip-path="url(#clip912)" style="stroke:#0000ff; stroke-linecap:round; stroke-linejoin:round; stroke-width:4; stroke-opacity:1; fill:none" points="1893.3,846.892 1893.3,819.734 "></polyline>
<path clip-path="url(#clip912)" d="M1933.26 796.163 L1933.26 769.005 L1933.26 1386.4 L1933.26 1386.4  Z" fill="#0000ff" fill-rule="evenodd" fill-opacity="0.3"></path>
<polyline clip-path="url(#clip912)" style="stroke:#0000ff; stroke-linecap:round; stroke-linejoin:round; stroke-width:4; stroke-opacity:1; fill:none" points="1933.26,796.163 1933.26,769.005 "></polyline>
<path clip-path="url(#clip912)" d="M1973.21 742.052 L1973.21 714.894 L1973.21 1386.4 L1973.21 1386.4  Z" fill="#0000ff" fill-rule="evenodd" fill-opacity="0.3"></path>
<polyline clip-path="url(#clip912)" style="stroke:#0000ff; stroke-linecap:round; stroke-linejoin:round; stroke-width:4; stroke-opacity:1; fill:none" points="1973.21,742.052 1973.21,714.894 "></polyline>
<path clip-path="url(#clip912)" d="M2013.16 684.559 L2013.16 657.401 L2013.16 1386.4 L2013.16 1386.4  Z" fill="#0000ff" fill-rule="evenodd" fill-opacity="0.3"></path>
<polyline clip-path="url(#clip912)" style="stroke:#0000ff; stroke-linecap:round; stroke-linejoin:round; stroke-width:4; stroke-opacity:1; fill:none" points="2013.16,684.559 2013.16,657.401 "></polyline>
<path clip-path="url(#clip912)" d="M2053.11 623.684 L2053.11 596.526 L2053.11 1386.4 L2053.11 1386.4  Z" fill="#0000ff" fill-rule="evenodd" fill-opacity="0.3"></path>
<polyline clip-path="url(#clip912)" style="stroke:#0000ff; stroke-linecap:round; stroke-linejoin:round; stroke-width:4; stroke-opacity:1; fill:none" points="2053.11,623.684 2053.11,596.526 "></polyline>
<path clip-path="url(#clip912)" d="M2093.07 559.427 L2093.07 532.269 L2093.07 1386.4 L2093.07 1386.4  Z" fill="#0000ff" fill-rule="evenodd" fill-opacity="0.3"></path>
<polyline clip-path="url(#clip912)" style="stroke:#0000ff; stroke-linecap:round; stroke-linejoin:round; stroke-width:4; stroke-opacity:1; fill:none" points="2093.07,559.427 2093.07,532.269 "></polyline>
<path clip-path="url(#clip912)" d="M2133.02 491.788 L2133.02 464.63 L2133.02 1386.4 L2133.02 1386.4  Z" fill="#0000ff" fill-rule="evenodd" fill-opacity="0.3"></path>
<polyline clip-path="url(#clip912)" style="stroke:#0000ff; stroke-linecap:round; stroke-linejoin:round; stroke-width:4; stroke-opacity:1; fill:none" points="2133.02,491.788 2133.02,464.63 "></polyline>
<path clip-path="url(#clip912)" d="M2172.97 420.768 L2172.97 393.61 L2172.97 1386.4 L2172.97 1386.4  Z" fill="#0000ff" fill-rule="evenodd" fill-opacity="0.3"></path>
<polyline clip-path="url(#clip912)" style="stroke:#0000ff; stroke-linecap:round; stroke-linejoin:round; stroke-width:4; stroke-opacity:1; fill:none" points="2172.97,420.768 2172.97,393.61 "></polyline>
<path clip-path="url(#clip912)" d="M2212.92 346.365 L2212.92 319.207 L2212.92 1386.4 L2212.92 1386.4  Z" fill="#0000ff" fill-rule="evenodd" fill-opacity="0.3"></path>
<polyline clip-path="url(#clip912)" style="stroke:#0000ff; stroke-linecap:round; stroke-linejoin:round; stroke-width:4; stroke-opacity:1; fill:none" points="2212.92,346.365 2212.92,319.207 "></polyline>
<path clip-path="url(#clip912)" d="M2252.88 268.581 L2252.88 241.423 L2252.88 1386.4 L2252.88 1386.4  Z" fill="#0000ff" fill-rule="evenodd" fill-opacity="0.3"></path>
<polyline clip-path="url(#clip912)" style="stroke:#0000ff; stroke-linecap:round; stroke-linejoin:round; stroke-width:4; stroke-opacity:1; fill:none" points="2252.88,268.581 2252.88,241.423 "></polyline>
<path clip-path="url(#clip912)" d="M2292.83 187.414 L2292.83 160.256 L2292.83 1386.4 L2292.83 1386.4  Z" fill="#0000ff" fill-rule="evenodd" fill-opacity="0.3"></path>
<polyline clip-path="url(#clip912)" style="stroke:#0000ff; stroke-linecap:round; stroke-linejoin:round; stroke-width:4; stroke-opacity:1; fill:none" points="2292.83,187.414 2292.83,160.256 "></polyline>
<path clip-path="url(#clip912)" d="M854.544 1234.21 L854.544 1232.67 L854.544 1386.4 L854.544 1386.4  Z" fill="#0000ff" fill-rule="evenodd" fill-opacity="0.3"></path>
<polyline clip-path="url(#clip912)" style="stroke:#0000ff; stroke-linecap:round; stroke-linejoin:round; stroke-width:4; stroke-opacity:1; fill:none" points="854.544,1234.21 854.544,1232.67 "></polyline>
<path clip-path="url(#clip912)" d="M934.448 1230.83 L934.448 1229.29 L934.448 1386.4 L934.448 1386.4  Z" fill="#0000ff" fill-rule="evenodd" fill-opacity="0.3"></path>
<polyline clip-path="url(#clip912)" style="stroke:#0000ff; stroke-linecap:round; stroke-linejoin:round; stroke-width:4; stroke-opacity:1; fill:none" points="934.448,1230.83 934.448,1229.29 "></polyline>
<path clip-path="url(#clip912)" d="M974.401 1230.83 L974.401 1229.29 L974.401 1386.4 L974.401 1386.4  Z" fill="#0000ff" fill-rule="evenodd" fill-opacity="0.3"></path>
<polyline clip-path="url(#clip912)" style="stroke:#0000ff; stroke-linecap:round; stroke-linejoin:round; stroke-width:4; stroke-opacity:1; fill:none" points="974.401,1230.83 974.401,1229.29 "></polyline>
<path clip-path="url(#clip912)" d="M1054.31 1224.06 L1054.31 1222.53 L1054.31 1386.4 L1054.31 1386.4  Z" fill="#0000ff" fill-rule="evenodd" fill-opacity="0.3"></path>
<polyline clip-path="url(#clip912)" style="stroke:#0000ff; stroke-linecap:round; stroke-linejoin:round; stroke-width:4; stroke-opacity:1; fill:none" points="1054.31,1224.06 1054.31,1222.53 "></polyline>
<path clip-path="url(#clip912)" d="M1094.26 1224.06 L1094.26 1222.53 L1094.26 1386.4 L1094.26 1386.4  Z" fill="#0000ff" fill-rule="evenodd" fill-opacity="0.3"></path>
<polyline clip-path="url(#clip912)" style="stroke:#0000ff; stroke-linecap:round; stroke-linejoin:round; stroke-width:4; stroke-opacity:1; fill:none" points="1094.26,1224.06 1094.26,1222.53 "></polyline>
<path clip-path="url(#clip912)" d="M1174.16 1217.3 L1174.16 1215.76 L1174.16 1386.4 L1174.16 1386.4  Z" fill="#0000ff" fill-rule="evenodd" fill-opacity="0.3"></path>
<polyline clip-path="url(#clip912)" style="stroke:#0000ff; stroke-linecap:round; stroke-linejoin:round; stroke-width:4; stroke-opacity:1; fill:none" points="1174.16,1217.3 1174.16,1215.76 "></polyline>
<path clip-path="url(#clip912)" d="M1214.11 1217.3 L1214.11 1215.76 L1214.11 1386.4 L1214.11 1386.4  Z" fill="#0000ff" fill-rule="evenodd" fill-opacity="0.3"></path>
<polyline clip-path="url(#clip912)" style="stroke:#0000ff; stroke-linecap:round; stroke-linejoin:round; stroke-width:4; stroke-opacity:1; fill:none" points="1214.11,1217.3 1214.11,1215.76 "></polyline>
<path clip-path="url(#clip912)" d="M1294.02 1210.54 L1294.02 1209 L1294.02 1386.4 L1294.02 1386.4  Z" fill="#0000ff" fill-rule="evenodd" fill-opacity="0.3"></path>
<polyline clip-path="url(#clip912)" style="stroke:#0000ff; stroke-linecap:round; stroke-linejoin:round; stroke-width:4; stroke-opacity:1; fill:none" points="1294.02,1210.54 1294.02,1209 "></polyline>
<path clip-path="url(#clip912)" d="M1333.97 1210.54 L1333.97 1209 L1333.97 1386.4 L1333.97 1386.4  Z" fill="#0000ff" fill-rule="evenodd" fill-opacity="0.3"></path>
<polyline clip-path="url(#clip912)" style="stroke:#0000ff; stroke-linecap:round; stroke-linejoin:round; stroke-width:4; stroke-opacity:1; fill:none" points="1333.97,1210.54 1333.97,1209 "></polyline>
<path clip-path="url(#clip912)" d="M1413.88 1203.77 L1413.88 1202.23 L1413.88 1386.4 L1413.88 1386.4  Z" fill="#0000ff" fill-rule="evenodd" fill-opacity="0.3"></path>
<polyline clip-path="url(#clip912)" style="stroke:#0000ff; stroke-linecap:round; stroke-linejoin:round; stroke-width:4; stroke-opacity:1; fill:none" points="1413.88,1203.77 1413.88,1202.23 "></polyline>
<path clip-path="url(#clip912)" d="M1453.83 1203.77 L1453.83 1202.23 L1453.83 1386.4 L1453.83 1386.4  Z" fill="#0000ff" fill-rule="evenodd" fill-opacity="0.3"></path>
<polyline clip-path="url(#clip912)" style="stroke:#0000ff; stroke-linecap:round; stroke-linejoin:round; stroke-width:4; stroke-opacity:1; fill:none" points="1453.83,1203.77 1453.83,1202.23 "></polyline>
<path clip-path="url(#clip912)" d="M1533.73 1197.01 L1533.73 1195.47 L1533.73 1386.4 L1533.73 1386.4  Z" fill="#0000ff" fill-rule="evenodd" fill-opacity="0.3"></path>
<polyline clip-path="url(#clip912)" style="stroke:#0000ff; stroke-linecap:round; stroke-linejoin:round; stroke-width:4; stroke-opacity:1; fill:none" points="1533.73,1197.01 1533.73,1195.47 "></polyline>
<path clip-path="url(#clip912)" d="M1573.69 1186.86 L1573.69 1185.32 L1573.69 1386.4 L1573.69 1386.4  Z" fill="#0000ff" fill-rule="evenodd" fill-opacity="0.3"></path>
<polyline clip-path="url(#clip912)" style="stroke:#0000ff; stroke-linecap:round; stroke-linejoin:round; stroke-width:4; stroke-opacity:1; fill:none" points="1573.69,1186.86 1573.69,1185.32 "></polyline>
<path clip-path="url(#clip912)" d="M1613.64 1173.33 L1613.64 1171.8 L1613.64 1386.4 L1613.64 1386.4  Z" fill="#0000ff" fill-rule="evenodd" fill-opacity="0.3"></path>
<polyline clip-path="url(#clip912)" style="stroke:#0000ff; stroke-linecap:round; stroke-linejoin:round; stroke-width:4; stroke-opacity:1; fill:none" points="1613.64,1173.33 1613.64,1171.8 "></polyline>
<path clip-path="url(#clip912)" d="M1653.59 1156.42 L1653.59 1154.89 L1653.59 1386.4 L1653.59 1386.4  Z" fill="#0000ff" fill-rule="evenodd" fill-opacity="0.3"></path>
<polyline clip-path="url(#clip912)" style="stroke:#0000ff; stroke-linecap:round; stroke-linejoin:round; stroke-width:4; stroke-opacity:1; fill:none" points="1653.59,1156.42 1653.59,1154.89 "></polyline>
<path clip-path="url(#clip912)" d="M1693.54 1136.13 L1693.54 1134.6 L1693.54 1386.4 L1693.54 1386.4  Z" fill="#0000ff" fill-rule="evenodd" fill-opacity="0.3"></path>
<polyline clip-path="url(#clip912)" style="stroke:#0000ff; stroke-linecap:round; stroke-linejoin:round; stroke-width:4; stroke-opacity:1; fill:none" points="1693.54,1136.13 1693.54,1134.6 "></polyline>
<path clip-path="url(#clip912)" d="M1733.49 1112.46 L1733.49 1110.92 L1733.49 1386.4 L1733.49 1386.4  Z" fill="#0000ff" fill-rule="evenodd" fill-opacity="0.3"></path>
<polyline clip-path="url(#clip912)" style="stroke:#0000ff; stroke-linecap:round; stroke-linejoin:round; stroke-width:4; stroke-opacity:1; fill:none" points="1733.49,1112.46 1733.49,1110.92 "></polyline>
<path clip-path="url(#clip912)" d="M1773.45 1085.4 L1773.45 1083.87 L1773.45 1386.4 L1773.45 1386.4  Z" fill="#0000ff" fill-rule="evenodd" fill-opacity="0.3"></path>
<polyline clip-path="url(#clip912)" style="stroke:#0000ff; stroke-linecap:round; stroke-linejoin:round; stroke-width:4; stroke-opacity:1; fill:none" points="1773.45,1085.4 1773.45,1083.87 "></polyline>
<path clip-path="url(#clip912)" d="M1813.4 1054.97 L1813.4 1053.43 L1813.4 1386.4 L1813.4 1386.4  Z" fill="#0000ff" fill-rule="evenodd" fill-opacity="0.3"></path>
<polyline clip-path="url(#clip912)" style="stroke:#0000ff; stroke-linecap:round; stroke-linejoin:round; stroke-width:4; stroke-opacity:1; fill:none" points="1813.4,1054.97 1813.4,1053.43 "></polyline>
<path clip-path="url(#clip912)" d="M1853.35 1021.15 L1853.35 1019.61 L1853.35 1386.4 L1853.35 1386.4  Z" fill="#0000ff" fill-rule="evenodd" fill-opacity="0.3"></path>
<polyline clip-path="url(#clip912)" style="stroke:#0000ff; stroke-linecap:round; stroke-linejoin:round; stroke-width:4; stroke-opacity:1; fill:none" points="1853.35,1021.15 1853.35,1019.61 "></polyline>
<path clip-path="url(#clip912)" d="M1893.3 983.945 L1893.3 982.408 L1893.3 1386.4 L1893.3 1386.4  Z" fill="#0000ff" fill-rule="evenodd" fill-opacity="0.3"></path>
<polyline clip-path="url(#clip912)" style="stroke:#0000ff; stroke-linecap:round; stroke-linejoin:round; stroke-width:4; stroke-opacity:1; fill:none" points="1893.3,983.945 1893.3,982.408 "></polyline>
<path clip-path="url(#clip912)" d="M1933.26 943.362 L1933.26 941.825 L1933.26 1386.4 L1933.26 1386.4  Z" fill="#0000ff" fill-rule="evenodd" fill-opacity="0.3"></path>
<polyline clip-path="url(#clip912)" style="stroke:#0000ff; stroke-linecap:round; stroke-linejoin:round; stroke-width:4; stroke-opacity:1; fill:none" points="1933.26,943.362 1933.26,941.825 "></polyline>
<path clip-path="url(#clip912)" d="M1973.21 899.397 L1973.21 897.86 L1973.21 1386.4 L1973.21 1386.4  Z" fill="#0000ff" fill-rule="evenodd" fill-opacity="0.3"></path>
<polyline clip-path="url(#clip912)" style="stroke:#0000ff; stroke-linecap:round; stroke-linejoin:round; stroke-width:4; stroke-opacity:1; fill:none" points="1973.21,899.397 1973.21,897.86 "></polyline>
<path clip-path="url(#clip912)" d="M2013.16 852.05 L2013.16 850.513 L2013.16 1386.4 L2013.16 1386.4  Z" fill="#0000ff" fill-rule="evenodd" fill-opacity="0.3"></path>
<polyline clip-path="url(#clip912)" style="stroke:#0000ff; stroke-linecap:round; stroke-linejoin:round; stroke-width:4; stroke-opacity:1; fill:none" points="2013.16,852.05 2013.16,850.513 "></polyline>
<path clip-path="url(#clip912)" d="M2053.11 801.321 L2053.11 799.784 L2053.11 1386.4 L2053.11 1386.4  Z" fill="#0000ff" fill-rule="evenodd" fill-opacity="0.3"></path>
<polyline clip-path="url(#clip912)" style="stroke:#0000ff; stroke-linecap:round; stroke-linejoin:round; stroke-width:4; stroke-opacity:1; fill:none" points="2053.11,801.321 2053.11,799.784 "></polyline>
<path clip-path="url(#clip912)" d="M2093.07 747.21 L2093.07 745.673 L2093.07 1386.4 L2093.07 1386.4  Z" fill="#0000ff" fill-rule="evenodd" fill-opacity="0.3"></path>
<polyline clip-path="url(#clip912)" style="stroke:#0000ff; stroke-linecap:round; stroke-linejoin:round; stroke-width:4; stroke-opacity:1; fill:none" points="2093.07,747.21 2093.07,745.673 "></polyline>
<path clip-path="url(#clip912)" d="M2133.02 689.717 L2133.02 688.18 L2133.02 1386.4 L2133.02 1386.4  Z" fill="#0000ff" fill-rule="evenodd" fill-opacity="0.3"></path>
<polyline clip-path="url(#clip912)" style="stroke:#0000ff; stroke-linecap:round; stroke-linejoin:round; stroke-width:4; stroke-opacity:1; fill:none" points="2133.02,689.717 2133.02,688.18 "></polyline>
<path clip-path="url(#clip912)" d="M2172.97 628.842 L2172.97 627.305 L2172.97 1386.4 L2172.97 1386.4  Z" fill="#0000ff" fill-rule="evenodd" fill-opacity="0.3"></path>
<polyline clip-path="url(#clip912)" style="stroke:#0000ff; stroke-linecap:round; stroke-linejoin:round; stroke-width:4; stroke-opacity:1; fill:none" points="2172.97,628.842 2172.97,627.305 "></polyline>
<path clip-path="url(#clip912)" d="M2212.92 564.585 L2212.92 563.048 L2212.92 1386.4 L2212.92 1386.4  Z" fill="#0000ff" fill-rule="evenodd" fill-opacity="0.3"></path>
<polyline clip-path="url(#clip912)" style="stroke:#0000ff; stroke-linecap:round; stroke-linejoin:round; stroke-width:4; stroke-opacity:1; fill:none" points="2212.92,564.585 2212.92,563.048 "></polyline>
<path clip-path="url(#clip912)" d="M2252.88 496.947 L2252.88 495.409 L2252.88 1386.4 L2252.88 1386.4  Z" fill="#0000ff" fill-rule="evenodd" fill-opacity="0.3"></path>
<polyline clip-path="url(#clip912)" style="stroke:#0000ff; stroke-linecap:round; stroke-linejoin:round; stroke-width:4; stroke-opacity:1; fill:none" points="2252.88,496.947 2252.88,495.409 "></polyline>
</svg>