<svg xmlns="http://www.w3.org/2000/svg" xmlns:xlink="http://www.w3.org/1999/xlink" width="600" height="400" viewBox="0 0 2400 1600">
<defs>
  <clipPath id="clip520">
    <rect x="0" y="0" width="2400" height="1600"></rect>
  </clipPath>
</defs>
<path clip-path="url(#clip520)" d="M0 1600 L2400 1600 L2400 0 L0 0  Z" fill="#ffffff" fill-rule="evenodd" fill-opacity="1"></path>
<defs>
  <clipPath id="clip521">
    <rect x="480" y="0" width="1681" height="1600"></rect>
  </clipPath>
</defs>
<path clip-path="url(#clip520)" d="M232.389 1423.18 L2352.76 1423.18 L2352.76 123.472 L232.389 123.472  Z" fill="#ffffff" fill-rule="evenodd" fill-opacity="1"></path>
<defs>
  <clipPath id="clip522">
    <rect x="232" y="123" width="2121" height="1301"></rect>
  </clipPath>
</defs>
<polyline clip-path="url(#clip522)" style="stroke:#000000; stroke-linecap:round; stroke-linejoin:round; stroke-width:2; stroke-opacity:0.1; fill:none" points="292.4,1423.18 292.4,123.472 "></polyline>
<polyline clip-path="url(#clip522)" style="stroke:#000000; stroke-linecap:round; stroke-linejoin:round; stroke-width:2; stroke-opacity:0.1; fill:none" points="802.692,1423.18 802.692,123.472 "></polyline>
<polyline clip-path="url(#clip522)" style="stroke:#000000; stroke-linecap:round; stroke-linejoin:round; stroke-width:2; stroke-opacity:0.1; fill:none" points="1312.98,1423.18 1312.98,123.472 "></polyline>
<polyline clip-path="url(#clip522)" style="stroke:#000000; stroke-linecap:round; stroke-linejoin:round; stroke-width:2; stroke-opacity:0.1; fill:none" points="1823.28,1423.18 1823.28,123.472 "></polyline>
<polyline clip-path="url(#clip522)" style="stroke:#000000; stroke-linecap:round; stroke-linejoin:round; stroke-width:2; stroke-opacity:0.1; fill:none" points="2333.57,1423.18 2333.57,123.472 "></polyline>
<polyline clip-path="url(#clip520)" style="stroke:#000000; stroke-linecap:round; stroke-linejoin:round; stroke-width:4; stroke-opacity:1; fill:none" points="232.389,1423.18 2352.76,1423.18 "></polyline>
<polyline clip-path="url(#clip520)" style="stroke:#000000; stroke-linecap:round; stroke-linejoin:round; stroke-width:4; stroke-opacity:1; fill:none" points="292.4,1423.18 292.4,1404.28 "></polyline>
<polyline clip-path="url(#clip520)" style="stroke:#000000; stroke-linecap:round; stroke-linejoin:round; stroke-width:4; stroke-opacity:1; fill:none" points="802.692,1423.18 802.692,1404.28 "></polyline>
<polyline clip-path="url(#clip520)" style="stroke:#000000; stroke-linecap:round; stroke-linejoin:round; stroke-width:4; stroke-opacity:1; fill:none" points="1312.98,1423.18 1312.98,1404.28 "></polyline>
<polyline clip-path="url(#clip520)" style="stroke:#000000; stroke-linecap:round; stroke-linejoin:round; stroke-width:4; stroke-opacity:1; fill:none" points="1823.28,1423.18 1823.28,1404.28 "></polyline>
<polyline clip-path="url(#clip520)" style="stroke:#000000; stroke-linecap:round; stroke-linejoin:round; stroke-width:4; stroke-opacity:1; fill:none" points="2333.57,1423.18 2333.57,1404.28 "></polyline>
<path clip-path="url(#clip520)" d="M292.4 1454.1 Q288.789 1454.1 286.96 1457.66 Q285.154 1461.2 285.154 1468.33 Q285.154 1475.44 286.96 1479.01 Q288.789 1482.55 292.4 1482.55 Q296.034 1482.55 297.84 1479.01 Q299.668 1475.44 299.668 1468.33 Q299.668 1461.2 297.84 1457.66 Q296.034 1454.1 292.4 1454.1 M292.4 1450.39 Q298.21 1450.39 301.265 1455 Q304.344 1459.58 304.344 1468.33 Q304.344 1477.06 301.265 1481.67 Q298.21 1486.25 292.4 1486.25 Q286.59 1486.25 283.511 1481.67 Q280.455 1477.06 280.455 1468.33 Q280.455 1459.58 283.511 1455 Q286.59 1450.39 292.4 1450.39 Z" fill="#000000" fill-rule="nonzero" fill-opacity="1"></path><path clip-path="url(#clip520)" d="M793.074 1481.64 L800.713 1481.64 L800.713 1455.28 L792.403 1456.95 L792.403 1452.69 L800.667 1451.02 L805.342 1451.02 L805.342 1481.64 L812.981 1481.64 L812.981 1485.58 L793.074 1485.58 L793.074 1481.64 Z" fill="#000000" fill-rule="nonzero" fill-opacity="1"></path><path clip-path="url(#clip520)" d="M1307.64 1481.64 L1323.96 1481.64 L1323.96 1485.58 L1302.01 1485.58 L1302.01 1481.64 Q1304.67 1478.89 1309.26 1474.26 Q1313.86 1469.61 1315.04 1468.27 Q1317.29 1465.74 1318.17 1464.01 Q1319.07 1462.25 1319.07 1460.56 Q1319.07 1457.8 1317.13 1456.07 Q1315.21 1454.33 1312.1 1454.33 Q1309.91 1454.33 1307.45 1455.09 Q1305.02 1455.86 1302.24 1457.41 L1302.24 1452.69 Q1305.07 1451.55 1307.52 1450.97 Q1309.98 1450.39 1312.01 1450.39 Q1317.38 1450.39 1320.58 1453.08 Q1323.77 1455.77 1323.77 1460.26 Q1323.77 1462.39 1322.96 1464.31 Q1322.17 1466.2 1320.07 1468.8 Q1319.49 1469.47 1316.39 1472.69 Q1313.29 1475.88 1307.64 1481.64 Z" fill="#000000" fill-rule="nonzero" fill-opacity="1"></path><path clip-path="url(#clip520)" d="M1827.52 1466.95 Q1830.88 1467.66 1832.76 1469.93 Q1834.65 1472.2 1834.65 1475.53 Q1834.65 1480.65 1831.14 1483.45 Q1827.62 1486.25 1821.14 1486.25 Q1818.96 1486.25 1816.64 1485.81 Q1814.35 1485.39 1811.9 1484.54 L1811.9 1480.02 Q1813.84 1481.16 1816.16 1481.74 Q1818.47 1482.32 1821 1482.32 Q1825.39 1482.32 1827.69 1480.58 Q1830 1478.84 1830 1475.53 Q1830 1472.48 1827.85 1470.77 Q1825.72 1469.03 1821.9 1469.03 L1817.87 1469.03 L1817.87 1465.19 L1822.08 1465.19 Q1825.53 1465.19 1827.36 1463.82 Q1829.19 1462.43 1829.19 1459.84 Q1829.19 1457.18 1827.29 1455.77 Q1825.42 1454.33 1821.9 1454.33 Q1819.98 1454.33 1817.78 1454.75 Q1815.58 1455.16 1812.94 1456.04 L1812.94 1451.88 Q1815.6 1451.14 1817.92 1450.77 Q1820.26 1450.39 1822.32 1450.39 Q1827.64 1450.39 1830.74 1452.83 Q1833.84 1455.23 1833.84 1459.35 Q1833.84 1462.22 1832.2 1464.21 Q1830.56 1466.18 1827.52 1466.95 Z" fill="#000000" fill-rule="nonzero" fill-opacity="1"></path><path clip-path="url(#clip520)" d="M2336.58 1455.09 L2324.77 1473.54 L2336.58 1473.54 L2336.58 1455.09 M2335.35 1451.02 L2341.23 1451.02 L2341.23 1473.54 L2346.16 1473.54 L2346.16 1477.43 L2341.23 1477.43 L2341.23 1485.58 L2336.58 1485.58 L2336.58 1477.43 L2320.98 1477.43 L2320.98 1472.92 L2335.35 1451.02 Z" fill="#000000" fill-rule="nonzero" fill-opacity="1"></path><path clip-path="url(#clip520)" d="M1214.45 1520.52 L1254.65 1520.52 L1254.65 1525.93 L1237.78 1525.93 L1237.78 1568.04 L1231.32 1568.04 L1231.32 1525.93 L1214.45 1525.93 L1214.45 1520.52 Z" fill="#000000" fill-rule="nonzero" fill-opacity="1"></path><path clip-path="url(#clip520)" d="M1258.6 1532.4 L1264.45 1532.4 L1264.45 1568.04 L1258.6 1568.04 L1258.6 1532.4 M1258.6 1518.52 L1264.45 1518.52 L1264.45 1525.93 L1258.6 1525.93 L1258.6 1518.52 Z" fill="#000000" fill-rule="nonzero" fill-opacity="1"></path><path clip-path="url(#clip520)" d="M1304.46 1539.24 Q1306.66 1535.29 1309.71 1533.41 Q1312.77 1531.54 1316.91 1531.54 Q1322.48 1531.54 1325.5 1535.45 Q1328.52 1539.33 1328.52 1546.53 L1328.52 1568.04 L1322.63 1568.04 L1322.63 1546.72 Q1322.63 1541.59 1320.82 1539.11 Q1319.01 1536.63 1315.28 1536.63 Q1310.73 1536.63 1308.09 1539.65 Q1305.45 1542.68 1305.45 1547.9 L1305.45 1568.04 L1299.56 1568.04 L1299.56 1546.72 Q1299.56 1541.56 1297.74 1539.11 Q1295.93 1536.63 1292.14 1536.63 Q1287.66 1536.63 1285.01 1539.68 Q1282.37 1542.71 1282.37 1547.9 L1282.37 1568.04 L1276.48 1568.04 L1276.48 1532.4 L1282.37 1532.4 L1282.37 1537.93 Q1284.38 1534.66 1287.18 1533.1 Q1289.98 1531.54 1293.83 1531.54 Q1297.71 1531.54 1300.42 1533.51 Q1303.16 1535.48 1304.46 1539.24 Z" fill="#000000" fill-rule="nonzero" fill-opacity="1"></path><path clip-path="url(#clip520)" d="M1370.7 1548.76 L1370.7 1551.62 L1343.77 1551.62 Q1344.15 1557.67 1347.4 1560.85 Q1350.68 1564 1356.5 1564 Q1359.87 1564 1363.03 1563.17 Q1366.21 1562.35 1369.33 1560.69 L1369.33 1566.23 Q1366.18 1567.57 1362.87 1568.27 Q1359.56 1568.97 1356.15 1568.97 Q1347.62 1568.97 1342.62 1564 Q1337.66 1559.04 1337.66 1550.57 Q1337.66 1541.82 1342.37 1536.69 Q1347.11 1531.54 1355.13 1531.54 Q1362.32 1531.54 1366.49 1536.18 Q1370.7 1540.8 1370.7 1548.76 M1364.84 1547.04 Q1364.78 1542.23 1362.13 1539.37 Q1359.52 1536.5 1355.2 1536.5 Q1350.29 1536.5 1347.33 1539.27 Q1344.41 1542.04 1343.96 1547.07 L1364.84 1547.04 Z" fill="#000000" fill-rule="nonzero" fill-opacity="1"></path><polyline clip-path="url(#clip522)" style="stroke:#000000; stroke-linecap:round; stroke-linejoin:round; stroke-width:2; stroke-opacity:0.1; fill:none" points="232.389,1333.09 2352.76,1333.09 "></polyline>
<polyline clip-path="url(#clip522)" style="stroke:#000000; stroke-linecap:round; stroke-linejoin:round; stroke-width:2; stroke-opacity:0.1; fill:none" points="232.389,1066.53 2352.76,1066.53 "></polyline>
<polyline clip-path="url(#clip522)" style="stroke:#000000; stroke-linecap:round; stroke-linejoin:round; stroke-width:2; stroke-opacity:0.1; fill:none" points="232.389,799.981 2352.76,799.981 "></polyline>
<polyline clip-path="url(#clip522)" style="stroke:#000000; stroke-linecap:round; stroke-linejoin:round; stroke-width:2; stroke-opacity:0.1; fill:none" points="232.389,533.429 2352.76,533.429 "></polyline>
<polyline clip-path="url(#clip522)" style="stroke:#000000; stroke-linecap:round; stroke-linejoin:round; stroke-width:2; stroke-opacity:0.1; fill:none" points="232.389,266.877 2352.76,266.877 "></polyline>
<polyline clip-path="url(#clip520)" style="stroke:#000000; stroke-linecap:round; stroke-linejoin:round; stroke-width:4; stroke-opacity:1; fill:none" points="232.389,1423.18 232.389,123.472 "></polyline>
<polyline clip-path="url(#clip520)" style="stroke:#000000; stroke-linecap:round; stroke-linejoin:round; stroke-width:4; stroke-opacity:1; fill:none" points="232.389,1333.09 251.287,1333.09 "></polyline>
<polyline clip-path="url(#clip520)" style="stroke:#000000; stroke-linecap:round; stroke-linejoin:round; stroke-width:4; stroke-opacity:1; fill:none" points="232.389,1066.53 251.287,1066.53 "></polyline>
<polyline clip-path="url(#clip520)" style="stroke:#000000; stroke-linecap:round; stroke-linejoin:round; stroke-width:4; stroke-opacity:1; fill:none" points="232.389,799.981 251.287,799.981 "></polyline>
<polyline clip-path="url(#clip520)" style="stroke:#000000; stroke-linecap:round; stroke-linejoin:round; stroke-width:4; stroke-opacity:1; fill:none" points="232.389,533.429 251.287,533.429 "></polyline>
<polyline clip-path="url(#clip520)" style="stroke:#000000; stroke-linecap:round; stroke-linejoin:round; stroke-width:4; stroke-opacity:1; fill:none" points="232.389,266.877 251.287,266.877 "></polyline>
<path clip-path="url(#clip520)" d="M184.445 1318.88 Q180.834 1318.88 179.005 1322.45 Q177.2 1325.99 177.2 1333.12 Q177.2 1340.23 179.005 1343.79 Q180.834 1347.33 184.445 1347.33 Q188.079 1347.33 189.885 1343.79 Q191.713 1340.23 191.713 1333.12 Q191.713 1325.99 189.885 1322.45 Q188.079 1318.88 184.445 1318.88 M184.445 1315.18 Q190.255 1315.18 193.311 1319.79 Q196.389 1324.37 196.389 1333.12 Q196.389 1341.85 193.311 1346.45 Q190.255 1351.04 184.445 1351.04 Q178.635 1351.04 175.556 1346.45 Q172.501 1341.85 172.501 1333.12 Q172.501 1324.37 175.556 1319.79 Q178.635 1315.18 184.445 1315.18 Z" fill="#000000" fill-rule="nonzero" fill-opacity="1"></path><path clip-path="url(#clip520)" d="M149.306 1079.88 L165.626 1079.88 L165.626 1083.81 L143.681 1083.81 L143.681 1079.88 Q146.343 1077.12 150.927 1072.49 Q155.533 1067.84 156.714 1066.5 Q158.959 1063.98 159.839 1062.24 Q160.741 1060.48 160.741 1058.79 Q160.741 1056.04 158.797 1054.3 Q156.876 1052.56 153.774 1052.56 Q151.575 1052.56 149.121 1053.33 Q146.691 1054.09 143.913 1055.64 L143.913 1050.92 Q146.737 1049.79 149.191 1049.21 Q151.644 1048.63 153.681 1048.63 Q159.052 1048.63 162.246 1051.31 Q165.44 1054 165.44 1058.49 Q165.44 1060.62 164.63 1062.54 Q163.843 1064.44 161.737 1067.03 Q161.158 1067.7 158.056 1070.92 Q154.954 1074.11 149.306 1079.88 Z" fill="#000000" fill-rule="nonzero" fill-opacity="1"></path><path clip-path="url(#clip520)" d="M175.487 1049.25 L193.843 1049.25 L193.843 1053.19 L179.769 1053.19 L179.769 1061.66 Q180.788 1061.31 181.806 1061.15 Q182.825 1060.97 183.843 1060.97 Q189.63 1060.97 193.01 1064.14 Q196.389 1067.31 196.389 1072.73 Q196.389 1078.3 192.917 1081.41 Q189.445 1084.48 183.126 1084.48 Q180.95 1084.48 178.681 1084.11 Q176.436 1083.74 174.028 1083 L174.028 1078.3 Q176.112 1079.44 178.334 1079.99 Q180.556 1080.55 183.033 1080.55 Q187.038 1080.55 189.375 1078.44 Q191.713 1076.34 191.713 1072.73 Q191.713 1069.11 189.375 1067.01 Q187.038 1064.9 183.033 1064.9 Q181.158 1064.9 179.283 1065.32 Q177.431 1065.73 175.487 1066.61 L175.487 1049.25 Z" fill="#000000" fill-rule="nonzero" fill-opacity="1"></path><path clip-path="url(#clip520)" d="M144.329 782.701 L162.686 782.701 L162.686 786.636 L148.612 786.636 L148.612 795.109 Q149.63 794.761 150.649 794.599 Q151.667 794.414 152.686 794.414 Q158.473 794.414 161.852 797.585 Q165.232 800.757 165.232 806.173 Q165.232 811.752 161.76 814.854 Q158.288 817.932 151.968 817.932 Q149.792 817.932 147.524 817.562 Q145.279 817.192 142.871 816.451 L142.871 811.752 Q144.954 812.886 147.177 813.442 Q149.399 813.997 151.876 813.997 Q155.88 813.997 158.218 811.891 Q160.556 809.784 160.556 806.173 Q160.556 802.562 158.218 800.456 Q155.88 798.349 151.876 798.349 Q150.001 798.349 148.126 798.766 Q146.274 799.183 144.329 800.062 L144.329 782.701 Z" fill="#000000" fill-rule="nonzero" fill-opacity="1"></path><path clip-path="url(#clip520)" d="M184.445 785.78 Q180.834 785.78 179.005 789.345 Q177.2 792.886 177.2 800.016 Q177.2 807.122 179.005 810.687 Q180.834 814.229 184.445 814.229 Q188.079 814.229 189.885 810.687 Q191.713 807.122 191.713 800.016 Q191.713 792.886 189.885 789.345 Q188.079 785.78 184.445 785.78 M184.445 782.076 Q190.255 782.076 193.311 786.683 Q196.389 791.266 196.389 800.016 Q196.389 808.743 193.311 813.349 Q190.255 817.932 184.445 817.932 Q178.635 817.932 175.556 813.349 Q172.501 808.743 172.501 800.016 Q172.501 791.266 175.556 786.683 Q178.635 782.076 184.445 782.076 Z" fill="#000000" fill-rule="nonzero" fill-opacity="1"></path><path clip-path="url(#clip520)" d="M144.098 516.149 L166.32 516.149 L166.32 518.14 L153.774 550.709 L148.89 550.709 L160.695 520.084 L144.098 520.084 L144.098 516.149 Z" fill="#000000" fill-rule="nonzero" fill-opacity="1"></path><path clip-path="url(#clip520)" d="M175.487 516.149 L193.843 516.149 L193.843 520.084 L179.769 520.084 L179.769 528.556 Q180.788 528.209 181.806 528.047 Q182.825 527.862 183.843 527.862 Q189.63 527.862 193.01 531.033 Q196.389 534.205 196.389 539.621 Q196.389 545.2 192.917 548.302 Q189.445 551.38 183.126 551.38 Q180.95 551.38 178.681 551.01 Q176.436 550.64 174.028 549.899 L174.028 545.2 Q176.112 546.334 178.334 546.89 Q180.556 547.445 183.033 547.445 Q187.038 547.445 189.375 545.339 Q191.713 543.232 191.713 539.621 Q191.713 536.01 189.375 533.904 Q187.038 531.797 183.033 531.797 Q181.158 531.797 179.283 532.214 Q177.431 532.631 175.487 533.51 L175.487 516.149 Z" fill="#000000" fill-rule="nonzero" fill-opacity="1"></path><path clip-path="url(#clip520)" d="M114.931 280.222 L122.57 280.222 L122.57 253.856 L114.26 255.523 L114.26 251.264 L122.524 249.597 L127.2 249.597 L127.2 280.222 L134.839 280.222 L134.839 284.157 L114.931 284.157 L114.931 280.222 Z" fill="#000000" fill-rule="nonzero" fill-opacity="1"></path><path clip-path="url(#clip520)" d="M154.283 252.676 Q150.672 252.676 148.843 256.241 Q147.038 259.782 147.038 266.912 Q147.038 274.018 148.843 277.583 Q150.672 281.125 154.283 281.125 Q157.917 281.125 159.723 277.583 Q161.552 274.018 161.552 266.912 Q161.552 259.782 159.723 256.241 Q157.917 252.676 154.283 252.676 M154.283 248.972 Q160.093 248.972 163.149 253.579 Q166.227 258.162 166.227 266.912 Q166.227 275.639 163.149 280.245 Q160.093 284.828 154.283 284.828 Q148.473 284.828 145.394 280.245 Q142.339 275.639 142.339 266.912 Q142.339 258.162 145.394 253.579 Q148.473 248.972 154.283 248.972 Z" fill="#000000" fill-rule="nonzero" fill-opacity="1"></path><path clip-path="url(#clip520)" d="M184.445 252.676 Q180.834 252.676 179.005 256.241 Q177.2 259.782 177.2 266.912 Q177.2 274.018 179.005 277.583 Q180.834 281.125 184.445 281.125 Q188.079 281.125 189.885 277.583 Q191.713 274.018 191.713 266.912 Q191.713 259.782 189.885 256.241 Q188.079 252.676 184.445 252.676 M184.445 248.972 Q190.255 248.972 193.311 253.579 Q196.389 258.162 196.389 266.912 Q196.389 275.639 193.311 280.245 Q190.255 284.828 184.445 284.828 Q178.635 284.828 175.556 280.245 Q172.501 275.639 172.501 266.912 Q172.501 258.162 175.556 253.579 Q178.635 248.972 184.445 248.972 Z" fill="#000000" fill-rule="nonzero" fill-opacity="1"></path><path clip-path="url(#clip520)" d="M16.4842 891.887 L16.4842 885.458 L64.0042 885.458 L64.0042 891.887 L16.4842 891.887 Z" fill="#000000" fill-rule="nonzero" fill-opacity="1"></path><path clip-path="url(#clip520)" d="M42.4881 843.285 L64.0042 843.285 L64.0042 849.142 L42.679 849.142 Q37.6183 849.142 35.1038 851.115 Q32.5894 853.088 32.5894 857.035 Q32.5894 861.777 35.6131 864.515 Q38.6368 867.252 43.8567 867.252 L64.0042 867.252 L64.0042 873.14 L28.3562 873.14 L28.3562 867.252 L33.8944 867.252 Q30.6797 865.151 29.0883 862.319 Q27.4968 859.454 27.4968 855.73 Q27.4968 849.587 31.3163 846.436 Q35.1038 843.285 42.4881 843.285 Z" fill="#000000" fill-rule="nonzero" fill-opacity="1"></path><path clip-path="url(#clip520)" d="M18.2347 825.811 L28.3562 825.811 L28.3562 813.748 L32.9077 813.748 L32.9077 825.811 L52.2594 825.811 Q56.6199 825.811 57.8613 824.634 Q59.1026 823.424 59.1026 819.764 L59.1026 813.748 L64.0042 813.748 L64.0042 819.764 Q64.0042 826.543 61.4897 829.121 Q58.9434 831.7 52.2594 831.7 L32.9077 831.7 L32.9077 835.996 L28.3562 835.996 L28.3562 831.7 L18.2347 831.7 L18.2347 825.811 Z" fill="#000000" fill-rule="nonzero" fill-opacity="1"></path><path clip-path="url(#clip520)" d="M44.7161 775.554 L47.5806 775.554 L47.5806 802.481 Q53.6281 802.099 56.8109 798.852 Q59.9619 795.574 59.9619 789.75 Q59.9619 786.376 59.1344 783.225 Q58.3069 780.042 56.6518 776.923 L62.1899 776.923 Q63.5267 780.074 64.227 783.384 Q64.9272 786.694 64.9272 790.1 Q64.9272 798.63 59.9619 803.627 Q54.9967 808.592 46.5303 808.592 Q37.7774 808.592 32.6531 803.881 Q27.4968 799.139 27.4968 791.118 Q27.4968 783.925 32.1438 779.755 Q36.7589 775.554 44.7161 775.554 M42.9973 781.41 Q38.1912 781.474 35.3266 784.116 Q32.4621 786.726 32.4621 791.054 Q32.4621 795.956 35.2312 798.916 Q38.0002 801.844 43.0292 802.29 L42.9973 781.41 Z" fill="#000000" fill-rule="nonzero" fill-opacity="1"></path><path clip-path="url(#clip520)" d="M33.8307 745.285 Q33.2578 746.272 33.0032 747.449 Q32.7167 748.595 32.7167 749.996 Q32.7167 754.961 35.9632 757.635 Q39.1779 760.276 45.2253 760.276 L64.0042 760.276 L64.0042 766.165 L28.3562 766.165 L28.3562 760.276 L33.8944 760.276 Q30.6479 758.43 29.0883 755.47 Q27.4968 752.51 27.4968 748.277 Q27.4968 747.672 27.5923 746.94 Q27.656 746.208 27.8151 745.317 L33.8307 745.285 Z" fill="#000000" fill-rule="nonzero" fill-opacity="1"></path><path clip-path="url(#clip520)" d="M28.3562 743.344 L28.3562 737.137 L58.275 725.997 L28.3562 714.857 L28.3562 708.65 L64.0042 722.018 L64.0042 729.976 L28.3562 743.344 Z" fill="#000000" fill-rule="nonzero" fill-opacity="1"></path><path clip-path="url(#clip520)" d="M46.0847 684.365 Q46.0847 691.463 47.7079 694.2 Q49.3312 696.938 53.2461 696.938 Q56.3653 696.938 58.2114 694.9 Q60.0256 692.832 60.0256 689.299 Q60.0256 684.429 56.5881 681.501 Q53.1188 678.541 47.3897 678.541 L46.0847 678.541 L46.0847 684.365 M43.6657 672.684 L64.0042 672.684 L64.0042 678.541 L58.5933 678.541 Q61.8398 680.546 63.3994 683.538 Q64.9272 686.53 64.9272 690.858 Q64.9272 696.333 61.8716 699.579 Q58.7843 702.794 53.6281 702.794 Q47.6125 702.794 44.5569 698.784 Q41.5014 694.741 41.5014 686.752 L41.5014 678.541 L40.9285 678.541 Q36.8862 678.541 34.6901 681.214 Q32.4621 683.856 32.4621 688.662 Q32.4621 691.718 33.1941 694.614 Q33.9262 697.51 35.3903 700.184 L29.9795 700.184 Q28.7381 696.969 28.1334 693.946 Q27.4968 690.922 27.4968 688.057 Q27.4968 680.323 31.5072 676.504 Q35.5176 672.684 43.6657 672.684 Z" fill="#000000" fill-rule="nonzero" fill-opacity="1"></path><path clip-path="url(#clip520)" d="M14.479 660.621 L14.479 654.765 L64.0042 654.765 L64.0042 660.621 L14.479 660.621 Z" fill="#000000" fill-rule="nonzero" fill-opacity="1"></path><path clip-path="url(#clip520)" d="M944.337 12.096 L952.519 12.096 L952.519 72.576 L944.337 72.576 L944.337 12.096 Z" fill="#000000" fill-rule="nonzero" fill-opacity="1"></path><path clip-path="url(#clip520)" d="M1006.19 45.1919 L1006.19 72.576 L998.74 72.576 L998.74 45.4349 Q998.74 38.994 996.229 35.7938 Q993.717 32.5936 988.694 32.5936 Q982.658 32.5936 979.174 36.4419 Q975.691 40.2903 975.691 46.9338 L975.691 72.576 L968.196 72.576 L968.196 27.2059 L975.691 27.2059 L975.691 34.2544 Q978.364 30.163 981.97 28.1376 Q985.615 26.1121 990.355 26.1121 Q998.173 26.1121 1002.18 30.9732 Q1006.19 35.7938 1006.19 45.1919 Z" fill="#000000" fill-rule="nonzero" fill-opacity="1"></path><path clip-path="url(#clip520)" d="M1028.43 14.324 L1028.43 27.2059 L1043.79 27.2059 L1043.79 32.9987 L1028.43 32.9987 L1028.43 57.6282 Q1028.43 63.1779 1029.93 64.7578 Q1031.47 66.3376 1036.13 66.3376 L1043.79 66.3376 L1043.79 72.576 L1036.13 72.576 Q1027.5 72.576 1024.22 69.3758 Q1020.94 66.1351 1020.94 57.6282 L1020.94 32.9987 L1015.47 32.9987 L1015.47 27.2059 L1020.94 27.2059 L1020.94 14.324 L1028.43 14.324 Z" fill="#000000" fill-rule="nonzero" fill-opacity="1"></path><path clip-path="url(#clip520)" d="M1092.4 48.0275 L1092.4 51.6733 L1058.13 51.6733 Q1058.61 59.3701 1062.74 63.421 Q1066.92 67.4314 1074.33 67.4314 Q1078.62 67.4314 1082.63 66.3781 Q1086.69 65.3249 1090.66 63.2184 L1090.66 70.267 Q1086.64 71.9684 1082.43 72.8596 Q1078.22 73.7508 1073.88 73.7508 Q1063.03 73.7508 1056.67 67.4314 Q1050.35 61.1119 1050.35 50.3365 Q1050.35 39.1965 1056.34 32.6746 Q1062.38 26.1121 1072.59 26.1121 Q1081.74 26.1121 1087.05 32.0264 Q1092.4 37.9003 1092.4 48.0275 M1084.94 45.84 Q1084.86 39.7232 1081.5 36.0774 Q1078.18 32.4315 1072.67 32.4315 Q1066.43 32.4315 1062.66 35.9558 Q1058.94 39.4801 1058.37 45.8805 L1084.94 45.84 Z" fill="#000000" fill-rule="nonzero" fill-opacity="1"></path><path clip-path="url(#clip520)" d="M1130.92 34.1734 Q1129.67 33.4443 1128.17 33.1202 Q1126.71 32.7556 1124.93 32.7556 Q1118.61 32.7556 1115.2 36.8875 Q1111.84 40.9789 1111.84 48.6757 L1111.84 72.576 L1104.35 72.576 L1104.35 27.2059 L1111.84 27.2059 L1111.84 34.2544 Q1114.19 30.1225 1117.96 28.1376 Q1121.73 26.1121 1127.11 26.1121 Q1127.88 26.1121 1128.81 26.2337 Q1129.75 26.3147 1130.88 26.5172 L1130.92 34.1734 Z" fill="#000000" fill-rule="nonzero" fill-opacity="1"></path><path clip-path="url(#clip520)" d="M1133.39 27.2059 L1141.29 27.2059 L1155.47 65.2844 L1169.65 27.2059 L1177.55 27.2059 L1160.53 72.576 L1150.41 72.576 L1133.39 27.2059 Z" fill="#000000" fill-rule="nonzero" fill-opacity="1"></path><path clip-path="url(#clip520)" d="M1208.46 49.7694 Q1199.42 49.7694 1195.94 51.8354 Q1192.45 53.9013 1192.45 58.8839 Q1192.45 62.8538 1195.05 65.2034 Q1197.68 67.5124 1202.18 67.5124 Q1208.37 67.5124 1212.1 63.1374 Q1215.87 58.7219 1215.87 51.4303 L1215.87 49.7694 L1208.46 49.7694 M1223.32 46.6907 L1223.32 72.576 L1215.87 72.576 L1215.87 65.6895 Q1213.32 69.8214 1209.51 71.8063 Q1205.7 73.7508 1200.19 73.7508 Q1193.22 73.7508 1189.09 69.8619 Q1185 65.9325 1185 59.3701 Q1185 51.7138 1190.11 47.825 Q1195.25 43.9361 1205.42 43.9361 L1215.87 43.9361 L1215.87 43.2069 Q1215.87 38.0623 1212.47 35.2672 Q1209.1 32.4315 1202.99 32.4315 Q1199.1 32.4315 1195.41 33.3632 Q1191.73 34.295 1188.32 36.1584 L1188.32 29.2718 Q1192.41 27.692 1196.26 26.9223 Q1200.11 26.1121 1203.76 26.1121 Q1213.6 26.1121 1218.46 31.2163 Q1223.32 36.3204 1223.32 46.6907 Z" fill="#000000" fill-rule="nonzero" fill-opacity="1"></path><path clip-path="url(#clip520)" d="M1238.68 9.54393 L1246.13 9.54393 L1246.13 72.576 L1238.68 72.576 L1238.68 9.54393 Z" fill="#000000" fill-rule="nonzero" fill-opacity="1"></path><path clip-path="url(#clip520)" d="M1290.65 28.5427 L1290.65 35.5912 Q1287.49 33.9709 1284.09 33.1607 Q1280.68 32.3505 1277.04 32.3505 Q1271.49 32.3505 1268.69 34.0519 Q1265.94 35.7533 1265.94 39.156 Q1265.94 41.7486 1267.92 43.2475 Q1269.91 44.7058 1275.9 46.0426 L1278.46 46.6097 Q1286.39 48.3111 1289.72 51.4303 Q1293.08 54.509 1293.08 60.0587 Q1293.08 66.3781 1288.06 70.0644 Q1283.07 73.7508 1274.32 73.7508 Q1270.68 73.7508 1266.71 73.0216 Q1262.78 72.3329 1258.4 70.9151 L1258.4 63.2184 Q1262.54 65.3654 1266.55 66.4591 Q1270.56 67.5124 1274.49 67.5124 Q1279.75 67.5124 1282.59 65.73 Q1285.42 63.9071 1285.42 60.6258 Q1285.42 57.5877 1283.36 55.9673 Q1281.33 54.3469 1274.4 52.8481 L1271.81 52.2405 Q1264.88 50.7821 1261.81 47.7845 Q1258.73 44.7463 1258.73 39.4801 Q1258.73 33.0797 1263.26 29.5959 Q1267.8 26.1121 1276.15 26.1121 Q1280.28 26.1121 1283.92 26.7198 Q1287.57 27.3274 1290.65 28.5427 Z" fill="#000000" fill-rule="nonzero" fill-opacity="1"></path><path clip-path="url(#clip520)" d="M1325.97 27.2059 L1333.87 27.2059 L1348.05 65.2844 L1362.23 27.2059 L1370.13 27.2059 L1353.11 72.576 L1342.99 72.576 L1325.97 27.2059 Z" fill="#000000" fill-rule="nonzero" fill-opacity="1"></path><path clip-path="url(#clip520)" d="M1409.34 28.5427 L1409.34 35.5912 Q1406.18 33.9709 1402.78 33.1607 Q1399.37 32.3505 1395.73 32.3505 Q1390.18 32.3505 1387.38 34.0519 Q1384.63 35.7533 1384.63 39.156 Q1384.63 41.7486 1386.61 43.2475 Q1388.6 44.7058 1394.59 46.0426 L1397.15 46.6097 Q1405.09 48.3111 1408.41 51.4303 Q1411.77 54.509 1411.77 60.0587 Q1411.77 66.3781 1406.75 70.0644 Q1401.76 73.7508 1393.01 73.7508 Q1389.37 73.7508 1385.4 73.0216 Q1381.47 72.3329 1377.09 70.9151 L1377.09 63.2184 Q1381.23 65.3654 1385.24 66.4591 Q1389.25 67.5124 1393.18 67.5124 Q1398.44 67.5124 1401.28 65.73 Q1404.11 63.9071 1404.11 60.6258 Q1404.11 57.5877 1402.05 55.9673 Q1400.02 54.3469 1393.1 52.8481 L1390.5 52.2405 Q1383.58 50.7821 1380.5 47.7845 Q1377.42 44.7463 1377.42 39.4801 Q1377.42 33.0797 1381.96 29.5959 Q1386.49 26.1121 1394.84 26.1121 Q1398.97 26.1121 1402.62 26.7198 Q1406.26 27.3274 1409.34 28.5427 Z" fill="#000000" fill-rule="nonzero" fill-opacity="1"></path><path clip-path="url(#clip520)" d="M1441.95 12.096 L1493.11 12.096 L1493.11 18.9825 L1471.64 18.9825 L1471.64 72.576 L1463.42 72.576 L1463.42 18.9825 L1441.95 18.9825 L1441.95 12.096 Z" fill="#000000" fill-rule="nonzero" fill-opacity="1"></path><path clip-path="url(#clip520)" d="M1498.14 27.2059 L1505.59 27.2059 L1505.59 72.576 L1498.14 72.576 L1498.14 27.2059 M1498.14 9.54393 L1505.59 9.54393 L1505.59 18.9825 L1498.14 18.9825 L1498.14 9.54393 Z" fill="#000000" fill-rule="nonzero" fill-opacity="1"></path><path clip-path="url(#clip520)" d="M1556.51 35.9153 Q1559.3 30.8922 1563.19 28.5022 Q1567.08 26.1121 1572.35 26.1121 Q1579.44 26.1121 1583.29 31.0947 Q1587.13 36.0368 1587.13 45.1919 L1587.13 72.576 L1579.64 72.576 L1579.64 45.4349 Q1579.64 38.913 1577.33 35.7533 Q1575.02 32.5936 1570.28 32.5936 Q1564.49 32.5936 1561.13 36.4419 Q1557.77 40.2903 1557.77 46.9338 L1557.77 72.576 L1550.27 72.576 L1550.27 45.4349 Q1550.27 38.8725 1547.96 35.7533 Q1545.65 32.5936 1540.83 32.5936 Q1535.12 32.5936 1531.76 36.4824 Q1528.4 40.3308 1528.4 46.9338 L1528.4 72.576 L1520.9 72.576 L1520.9 27.2059 L1528.4 27.2059 L1528.4 34.2544 Q1530.95 30.082 1534.51 28.0971 Q1538.08 26.1121 1542.98 26.1121 Q1547.92 26.1121 1551.36 28.6237 Q1554.85 31.1352 1556.51 35.9153 Z" fill="#000000" fill-rule="nonzero" fill-opacity="1"></path><path clip-path="url(#clip520)" d="M1640.81 48.0275 L1640.81 51.6733 L1606.54 51.6733 Q1607.02 59.3701 1611.16 63.421 Q1615.33 67.4314 1622.74 67.4314 Q1627.04 67.4314 1631.05 66.3781 Q1635.1 65.3249 1639.07 63.2184 L1639.07 70.267 Q1635.06 71.9684 1630.84 72.8596 Q1626.63 73.7508 1622.3 73.7508 Q1611.44 73.7508 1605.08 67.4314 Q1598.76 61.1119 1598.76 50.3365 Q1598.76 39.1965 1604.76 32.6746 Q1610.79 26.1121 1621 26.1121 Q1630.15 26.1121 1635.46 32.0264 Q1640.81 37.9003 1640.81 48.0275 M1633.35 45.84 Q1633.27 39.7232 1629.91 36.0774 Q1626.59 32.4315 1621.08 32.4315 Q1614.84 32.4315 1611.07 35.9558 Q1607.35 39.4801 1606.78 45.8805 L1633.35 45.84 Z" fill="#000000" fill-rule="nonzero" fill-opacity="1"></path><path clip-path="url(#clip522)" d="M292.4 1386.4 L292.4 1386.4 L302.606 1365.28 L307.708 1333.62 L312.811 1291.4 L317.914 1238.62 L323.017 1175.29 L328.12 1101.4 L333.223 1016.95 L338.326 921.955 L343.429 816.401 L348.532 700.291 L353.635 573.625 L358.738 436.404 L363.841 288.628 L368.944 288.628 L379.149 309.739 L384.252 309.739 L394.458 330.85 L399.561 288.201 L409.767 309.312 L414.87 309.312 L425.076 330.423 L430.179 330.423 L440.384 351.534 L445.487 286.922 L455.693 308.033 L460.796 308.033 L471.002 329.144 L476.105 329.144 L486.311 350.255 L491.414 286.922 L501.62 308.033 L506.722 308.033 L516.928 329.144 L522.031 329.144 L532.237 350.255 L537.34 286.922 L547.546 308.033 L552.649 308.033 L562.855 329.144 L567.958 329.144 L578.163 350.255 L583.266 286.922 L593.472 308.033 L598.575 308.033 L608.781 329.144 L613.884 329.144 L624.09 350.255 L629.193 286.922 L639.398 308.033 L644.501 308.033 L654.707 329.144 L659.81 329.144 L670.016 350.255 L675.119 286.922 L685.325 308.033 L690.428 308.033 L700.634 329.144 L705.736 329.144 L715.942 350.255 L721.045 286.922 L731.251 308.033 L736.354 308.033 L746.56 329.144 L751.663 329.144 L761.869 350.255 L766.972 286.922 L777.177 308.033 L782.28 308.033 L792.486 329.144 L797.589 329.144 L807.795 350.255 L812.898 286.922 L823.104 308.033 L828.207 308.033 L838.412 329.144 L843.515 329.144 L853.721 350.255 L858.824 286.922 L869.03 308.033 L874.133 308.033 L884.339 329.144 L889.442 329.144 L899.648 350.255 L904.75 286.922 L914.956 308.033 L920.059 308.033 L930.265 329.144 L935.368 329.144 L945.574 350.255 L950.677 286.922 L960.883 308.033 L965.986 308.033 L976.191 329.144 L981.294 329.144 L991.5 350.255 L996.603 286.922 L1006.81 308.033 L1011.91 308.033 L1022.12 329.144 L1027.22 329.144 L1037.43 350.255 L1042.53 286.922 L1052.74 308.033 L1057.84 308.033 L1068.04 329.144 L1073.15 329.144 L1083.35 350.255 L1088.46 286.922 L1098.66 308.033 L1103.76 308.033 L1113.97 329.144 L1119.07 329.144 L1129.28 350.255 L1134.38 286.922 L1144.59 308.033 L1149.69 308.033 L1159.9 329.144 L1165 329.144 L1175.21 350.255 L1180.31 286.922 L1190.51 308.033 L1195.62 308.033 L1205.82 329.144 L1210.93 329.144 L1221.13 350.255 L1226.23 286.922 L1236.44 308.033 L1241.54 308.033 L1251.75 329.144 L1256.85 329.144 L1267.06 350.255 L1272.16 286.922 L1282.37 308.033 L1287.47 308.033 L1297.68 329.144 L1302.78 329.144 L1312.98 350.255 L1318.09 286.922 L1328.29 308.033 L1333.4 308.033 L1343.6 329.144 L1348.7 329.144 L1358.91 350.255 L1364.01 286.922 L1374.22 308.033 L1379.32 308.033 L1389.53 329.144 L1394.63 329.144 L1404.84 350.255 L1409.94 286.922 L1420.15 308.033 L1425.25 308.033 L1435.45 329.144 L1440.56 329.144 L1450.76 350.255 L1455.87 286.922 L1466.07 308.033 L1471.17 308.033 L1481.38 329.144 L1486.48 329.144 L1496.69 350.255 L1501.79 286.922 L1512 308.033 L1517.1 308.033 L1527.31 329.144 L1532.41 329.144 L1542.62 350.255 L1547.72 286.922 L1557.92 308.033 L1563.03 308.033 L1573.23 329.144 L1578.34 329.144 L1588.54 350.255 L1593.65 286.922 L1603.85 308.033 L1608.95 308.033 L1619.16 329.144 L1624.26 329.144 L1634.47 350.255 L1639.57 286.922 L1649.78 308.033 L1654.88 308.033 L1665.09 329.144 L1670.19 329.144 L1680.39 350.255 L1685.5 286.922 L1695.7 308.033 L1700.81 308.033 L1711.01 329.144 L1716.12 329.144 L1726.32 350.255 L1731.42 286.922 L1741.63 308.033 L1746.73 308.033 L1756.94 329.144 L1762.04 329.144 L1772.25 350.255 L1777.35 286.922 L1787.56 308.033 L1792.66 308.033 L1802.86 329.144 L1807.97 329.144 L1818.17 350.255 L1823.28 286.922 L1833.48 308.033 L1838.59 308.033 L1848.79 329.144 L1853.89 329.144 L1864.1 350.255 L1869.2 286.922 L1879.41 308.033 L1884.51 308.033 L1894.72 329.144 L1899.82 329.144 L1910.03 350.255 L1915.13 286.922 L1925.34 308.033 L1930.44 308.033 L1940.64 329.144 L1945.75 329.144 L1955.95 350.255 L1961.06 286.922 L1971.26 308.033 L1976.36 308.033 L1986.57 329.144 L1991.67 329.144 L2001.88 350.255 L2006.98 286.922 L2017.19 308.033 L2022.29 308.033 L2032.5 329.144 L2037.6 329.144 L2047.81 350.255 L2052.91 286.922 L2063.11 308.033 L2068.22 308.033 L2078.42 329.144 L2083.53 329.144 L2093.73 350.255 L2098.83 286.922 L2109.04 308.033 L2114.14 308.033 L2124.35 329.144 L2129.45 329.144 L2139.66 350.255 L2144.76 286.922 L2154.97 308.033 L2160.07 308.033 L2170.28 329.144 L2175.38 329.144 L2185.58 350.255 L2190.69 286.922 L2200.89 308.033 L2206 308.033 L2216.2 329.144 L2221.3 329.144 L2231.51 350.255 L2236.61 286.922 L2246.82 308.033 L2251.92 308.033 L2262.13 329.144 L2267.23 329.144 L2277.44 350.255 L2282.54 286.922 L2292.75 308.033 L2292.75 181.367 L2282.54 160.256 L2277.44 223.589 L2267.23 202.478 L2262.13 202.478 L2251.92 181.367 L2246.82 181.367 L2236.61 160.256 L2231.51 223.589 L2221.3 202.478 L2216.2 202.478 L2206 181.367 L2200.89 181.367 L2190.69 160.256 L2185.58 223.589 L2175.38 202.478 L2170.28 202.478 L2160.07 181.367 L2154.97 181.367 L2144.76 160.256 L2139.66 223.589 L2129.45 202.478 L2124.35 202.478 L2114.14 181.367 L2109.04 181.367 L2098.83 160.256 L2093.73 223.589 L2083.53 202.478 L2078.42 202.478 L2068.22 181.367 L2063.11 181.367 L2052.91 160.256 L2047.81 223.589 L2037.6 202.478 L2032.5 202.478 L2022.29 181.367 L2017.19 181.367 L2006.98 160.256 L2001.88 223.589 L1991.67 202.478 L1986.57 202.478 L1976.36 181.367 L1971.26 181.367 L1961.06 160.256 L1955.95 223.589 L1945.75 202.478 L1940.64 202.478 L1930.44 181.367 L1925.34 181.367 L1915.13 160.256 L1910.03 223.589 L1899.82 202.478 L1894.72 202.478 L1884.51 181.367 L1879.41 181.367 L1869.2 160.256 L1864.1 223.589 L1853.89 202.478 L1848.79 202.478 L1838.59 181.367 L1833.48 181.367 L1823.28 160.256 L1818.17 223.589 L1807.97 202.478 L1802.86 202.478 L1792.66 181.367 L1787.56 181.367 L1777.35 160.256 L1772.25 223.589 L1762.04 202.478 L1756.94 202.478 L1746.73 181.367 L1741.63 181.367 L1731.42 160.256 L1726.32 223.589 L1716.12 202.478 L1711.01 202.478 L1700.81 181.367 L1695.7 181.367 L1685.5 160.256 L1680.39 223.589 L1670.19 202.478 L1665.09 202.478 L1654.88 181.367 L1649.78 181.367 L1639.57 160.256 L1634.47 223.589 L1624.26 202.478 L1619.16 202.478 L1608.95 181.367 L1603.85 181.367 L1593.65 160.256 L1588.54 223.589 L1578.34 202.478 L1573.23 202.478 L1563.03 181.367 L1557.92 181.367 L1547.72 160.256 L1542.62 223.589 L1532.41 202.478 L1527.31 202.478 L1517.1 181.367 L1512 181.367 L1501.79 160.256 L1496.69 223.589 L1486.48 202.478 L1481.38 202.478 L1471.17 181.367 L1466.07 181.367 L1455.87 160.256 L1450.76 223.589 L1440.56 202.478 L1435.45 202.478 L1425.25 181.367 L1420.15 181.367 L1409.94 160.256 L1404.84 223.589 L1394.63 202.478 L1389.53 202.478 L1379.32 181.367 L1374.22 181.367 L1364.01 160.256 L1358.91 223.589 L1348.7 202.478 L1343.6 202.478 L1333.4 181.367 L1328.29 181.367 L1318.09 160.256 L1312.98 223.589 L1302.78 202.478 L1297.68 202.478 L1287.47 181.367 L1282.37 181.367 L1272.16 160.256 L1267.06 223.589 L1256.85 202.478 L1251.75 202.478 L1241.54 181.367 L1236.44 181.367 L1226.23 160.256 L1221.13 223.589 L1210.93 202.478 L1205.82 202.478 L1195.62 181.367 L1190.51 181.367 L1180.31 160.256 L1175.21 223.589 L1165 202.478 L1159.9 202.478 L1149.69 181.367 L1144.59 181.367 L1134.38 160.256 L1129.28 223.589 L1119.07 202.478 L1113.97 202.478 L1103.76 181.367 L1098.66 181.367 L1088.46 160.256 L1083.35 223.589 L1073.15 202.478 L1068.04 202.478 L1057.84 181.367 L1052.74 181.367 L1042.53 160.256 L1037.43 223.589 L1027.22 202.478 L1022.12 202.478 L1011.91 181.367 L1006.81 181.367 L996.603 160.256 L991.5 223.589 L981.294 202.478 L976.191 202.478 L965.986 181.367 L960.883 181.367 L950.677 160.256 L945.574 223.589 L935.368 202.478 L930.265 202.478 L920.059 181.367 L914.956 181.367 L904.75 160.256 L899.648 223.589 L889.442 202.478 L884.339 202.478 L874.133 181.367 L869.03 181.367 L858.824 160.256 L853.721 223.589 L843.515 202.478 L838.412 202.478 L828.207 181.367 L823.104 181.367 L812.898 160.256 L807.795 223.589 L797.589 202.478 L792.486 202.478 L782.28 181.367 L777.177 181.367 L766.972 160.256 L761.869 223.589 L751.663 202.478 L746.56 202.478 L736.354 181.367 L731.251 181.367 L721.045 160.256 L715.942 223.589 L705.736 202.478 L700.634 202.478 L690.428 181.367 L685.325 181.367 L675.119 160.256 L670.016 223.589 L659.81 202.478 L654.707 202.478 L644.501 181.367 L639.398 181.367 L629.193 160.256 L624.09 223.589 L613.884 202.478 L608.781 202.478 L598.575 181.367 L593.472 181.367 L583.266 160.256 L578.163 223.589 L567.958 202.478 L562.855 202.478 L552.649 181.367 L547.546 181.367 L537.34 160.256 L532.237 223.589 L522.031 202.478 L516.928 202.478 L506.722 181.367 L501.62 181.367 L491.414 160.256 L486.311 223.589 L476.105 202.478 L471.002 202.478 L460.796 181.367 L455.693 181.367 L445.487 160.256 L440.384 223.589 L430.179 202.478 L425.076 202.478 L414.87 181.367 L409.767 181.367 L399.561 160.256 L394.458 224.229 L384.252 203.118 L379.149 203.118 L368.944 182.007 L363.841 182.007 L358.738 329.783 L353.635 467.004 L348.532 593.67 L343.429 709.78 L338.326 815.335 L333.223 910.334 L328.12 994.777 L323.017 1068.67 L317.914 1132 L312.811 1184.78 L307.708 1227 L302.606 1258.66 L292.4 1279.77 L292.4 1279.77  Z" fill="#009af9" fill-rule="evenodd" fill-opacity="0.3"></path>
<polyline clip-path="url(#clip522)" style="stroke:#009af9; stroke-linecap:round; stroke-linejoin:round; stroke-width:4; stroke-opacity:1; fill:none" points="292.4,1333.09 292.4,1333.09 302.606,1311.97 307.708,1280.31 312.811,1238.09 317.914,1185.31 323.017,1121.98 328.12,1048.09 333.223,963.644 338.326,868.645 343.429,763.09 348.532,646.98 353.635,520.315 358.738,383.094 363.841,235.317 368.944,235.317 379.149,256.428 384.252,256.428 394.458,277.539 399.561,224.229 409.767,245.34 414.87,245.34 425.076,266.451 430.179,266.451 440.384,287.562 445.487,223.589 455.693,244.7 460.796,244.7 471.002,265.811 476.105,265.811 486.311,286.922 491.414,223.589 501.62,244.7 506.722,244.7 516.928,265.811 522.031,265.811 532.237,286.922 537.34,223.589 547.546,244.7 552.649,244.7 562.855,265.811 567.958,265.811 578.163,286.922 583.266,223.589 593.472,244.7 598.575,244.7 608.781,265.811 613.884,265.811 624.09,286.922 629.193,223.589 639.398,244.7 644.501,244.7 654.707,265.811 659.81,265.811 670.016,286.922 675.119,223.589 685.325,244.7 690.428,244.7 700.634,265.811 705.736,265.811 715.942,286.922 721.045,223.589 731.251,244.7 736.354,244.7 746.56,265.811 751.663,265.811 761.869,286.922 766.972,223.589 777.177,244.7 782.28,244.7 792.486,265.811 797.589,265.811 807.795,286.922 812.898,223.589 823.104,244.7 828.207,244.7 838.412,265.811 843.515,265.811 853.721,286.922 858.824,223.589 869.03,244.7 874.133,244.7 884.339,265.811 889.442,265.811 899.648,286.922 904.75,223.589 914.956,244.7 920.059,244.7 930.265,265.811 935.368,265.811 945.574,286.922 950.677,223.589 960.883,244.7 965.986,244.7 976.191,265.811 981.294,265.811 991.5,286.922 996.603,223.589 1006.81,244.7 1011.91,244.7 1022.12,265.811 1027.22,265.811 1037.43,286.922 1042.53,223.589 1052.74,244.7 1057.84,244.7 1068.04,265.811 1073.15,265.811 1083.35,286.922 1088.46,223.589 1098.66,244.7 1103.76,244.7 1113.97,265.811 1119.07,265.811 1129.28,286.922 1134.38,223.589 1144.59,244.7 1149.69,244.7 1159.9,265.811 1165,265.811 1175.21,286.922 1180.31,223.589 1190.51,244.7 1195.62,244.7 1205.82,265.811 1210.93,265.811 1221.13,286.922 1226.23,223.589 1236.44,244.7 1241.54,244.7 1251.75,265.811 1256.85,265.811 1267.06,286.922 1272.16,223.589 1282.37,244.7 1287.47,244.7 1297.68,265.811 1302.78,265.811 1312.98,286.922 1318.09,223.589 1328.29,244.7 1333.4,244.7 1343.6,265.811 1348.7,265.811 1358.91,286.922 1364.01,223.589 1374.22,244.7 1379.32,244.7 1389.53,265.811 1394.63,265.811 1404.84,286.922 1409.94,223.589 1420.15,244.7 1425.25,244.7 1435.45,265.811 1440.56,265.811 1450.76,286.922 1455.87,223.589 1466.07,244.7 1471.17,244.7 1481.38,265.811 1486.48,265.811 1496.69,286.922 1501.79,223.589 1512,244.7 1517.1,244.7 1527.31,265.811 1532.41,265.811 1542.62,286.922 1547.72,223.589 1557.92,244.7 1563.03,244.7 1573.23,265.811 1578.34,265.811 1588.54,286.922 1593.65,223.589 1603.85,244.7 1608.95,244.7 1619.16,265.811 1624.26,265.811 1634.47,286.922 1639.57,223.589 1649.78,244.7 1654.88,244.7 1665.09,265.811 1670.19,265.811 1680.39,286.922 1685.5,223.589 1695.7,244.7 1700.81,244.7 1711.01,265.811 1716.12,265.811 1726.32,286.922 1731.42,223.589 1741.63,244.7 1746.73,244.7 1756.94,265.811 1762.04,265.811 1772.25,286.922 1777.35,223.589 1787.56,244.7 1792.66,244.7 1802.86,265.811 1807.97,265.811 1818.17,286.922 1823.28,223.589 1833.48,244.7 1838.59,244.7 1848.79,265.811 1853.89,265.811 1864.1,286.922 1869.2,223.589 1879.41,244.7 1884.51,244.7 1894.72,265.811 1899.82,265.811 1910.03,286.922 1915.13,223.589 1925.34,244.7 1930.44,244.7 1940.64,265.811 1945.75,265.811 1955.95,286.922 1961.06,223.589 1971.26,244.7 1976.36,244.7 1986.57,265.811 1991.67,265.811 2001.88,286.922 2006.98,223.589 2017.19,244.7 2022.29,244.7 2032.5,265.811 2037.6,265.811 2047.81,286.922 2052.91,223.589 2063.11,244.7 2068.22,244.7 2078.42,265.811 2083.53,265.811 2093.73,286.922 2098.83,223.589 2109.04,244.7 2114.14,244.7 2124.35,265.811 2129.45,265.811 2139.66,286.922 2144.76,223.589 2154.97,244.7 2160.07,244.7 2170.28,265.811 2175.38,265.811 2185.58,286.922 2190.69,223.589 2200.89,244.7 2206,244.7 2216.2,265.811 2221.3,265.811 2231.51,286.922 2236.61,223.589 2246.82,244.7 2251.92,244.7 2262.13,265.811 2267.23,265.811 2277.44,286.922 2282.54,223.589 2292.75,244.7 "></polyline>
<path clip-path="url(#clip520)" d="M1706.41 1379.86 L2282.08 1379.86 L2282.08 1276.18 L1706.41 1276.18  Z" fill="#ffffff" fill-rule="evenodd" fill-opacity="1"></path>
<polyline clip-path="url(#clip520)" style="stroke:#000000; stroke-linecap:round; stroke-linejoin:round; stroke-width:4; stroke-opacity:1; fill:none" points="1706.41,1379.86 2282.08,1379.86 2282.08,1276.18 1706.41,1276.18 1706.41,1379.86 "></polyline>
<polyline clip-path="url(#clip520)" style="stroke:#009af9; stroke-linecap:round; stroke-linejoin:round; stroke-width:4; stroke-opacity:1; fill:none" points="1729.97,1328.02 1871.33,1328.02 "></polyline>
<path clip-path="url(#clip520)" d="M1894.89 1310.74 L1899.56 1310.74 L1899.56 1345.3 L1894.89 1345.3 L1894.89 1310.74 Z" fill="#000000" fill-rule="nonzero" fill-opacity="1"></path><path clip-path="url(#clip520)" d="M1930.23 1329.65 L1930.23 1345.3 L1925.97 1345.3 L1925.97 1329.79 Q1925.97 1326.11 1924.54 1324.28 Q1923.1 1322.45 1920.23 1322.45 Q1916.78 1322.45 1914.79 1324.65 Q1912.8 1326.85 1912.8 1330.64 L1912.8 1345.3 L1908.52 1345.3 L1908.52 1319.37 L1912.8 1319.37 L1912.8 1323.4 Q1914.33 1321.06 1916.39 1319.9 Q1918.47 1318.75 1921.18 1318.75 Q1925.65 1318.75 1927.94 1321.52 Q1930.23 1324.28 1930.23 1329.65 Z" fill="#000000" fill-rule="nonzero" fill-opacity="1"></path><path clip-path="url(#clip520)" d="M1942.94 1312.01 L1942.94 1319.37 L1951.71 1319.37 L1951.71 1322.68 L1942.94 1322.68 L1942.94 1336.75 Q1942.94 1339.93 1943.8 1340.83 Q1944.68 1341.73 1947.34 1341.73 L1951.71 1341.73 L1951.71 1345.3 L1947.34 1345.3 Q1942.41 1345.3 1940.53 1343.47 Q1938.66 1341.62 1938.66 1336.75 L1938.66 1322.68 L1935.53 1322.68 L1935.53 1319.37 L1938.66 1319.37 L1938.66 1312.01 L1942.94 1312.01 Z" fill="#000000" fill-rule="nonzero" fill-opacity="1"></path><path clip-path="url(#clip520)" d="M1979.49 1331.27 L1979.49 1333.35 L1959.91 1333.35 Q1960.19 1337.75 1962.55 1340.06 Q1964.93 1342.36 1969.17 1342.36 Q1971.62 1342.36 1973.91 1341.75 Q1976.23 1341.15 1978.5 1339.95 L1978.5 1343.98 Q1976.2 1344.95 1973.8 1345.46 Q1971.39 1345.97 1968.91 1345.97 Q1962.71 1345.97 1959.07 1342.36 Q1955.46 1338.75 1955.46 1332.59 Q1955.46 1326.22 1958.89 1322.5 Q1962.34 1318.75 1968.17 1318.75 Q1973.4 1318.75 1976.44 1322.13 Q1979.49 1325.48 1979.49 1331.27 M1975.23 1330.02 Q1975.19 1326.52 1973.26 1324.44 Q1971.37 1322.36 1968.22 1322.36 Q1964.65 1322.36 1962.5 1324.37 Q1960.37 1326.38 1960.05 1330.04 L1975.23 1330.02 Z" fill="#000000" fill-rule="nonzero" fill-opacity="1"></path><path clip-path="url(#clip520)" d="M2001.5 1323.35 Q2000.79 1322.94 1999.93 1322.75 Q1999.1 1322.54 1998.08 1322.54 Q1994.47 1322.54 1992.52 1324.9 Q1990.6 1327.24 1990.6 1331.64 L1990.6 1345.3 L1986.32 1345.3 L1986.32 1319.37 L1990.6 1319.37 L1990.6 1323.4 Q1991.94 1321.04 1994.1 1319.9 Q1996.25 1318.75 1999.33 1318.75 Q1999.77 1318.75 2000.3 1318.81 Q2000.83 1318.86 2001.48 1318.98 L2001.5 1323.35 Z" fill="#000000" fill-rule="nonzero" fill-opacity="1"></path><path clip-path="url(#clip520)" d="M2002.92 1319.37 L2007.43 1319.37 L2015.53 1341.13 L2023.63 1319.37 L2028.15 1319.37 L2018.43 1345.3 L2012.64 1345.3 L2002.92 1319.37 Z" fill="#000000" fill-rule="nonzero" fill-opacity="1"></path><path clip-path="url(#clip520)" d="M2045.81 1332.26 Q2040.65 1332.26 2038.66 1333.44 Q2036.67 1334.63 2036.67 1337.47 Q2036.67 1339.74 2038.15 1341.08 Q2039.65 1342.4 2042.22 1342.4 Q2045.76 1342.4 2047.89 1339.9 Q2050.05 1337.38 2050.05 1333.21 L2050.05 1332.26 L2045.81 1332.26 M2054.31 1330.5 L2054.31 1345.3 L2050.05 1345.3 L2050.05 1341.36 Q2048.59 1343.72 2046.41 1344.86 Q2044.24 1345.97 2041.09 1345.97 Q2037.11 1345.97 2034.75 1343.75 Q2032.41 1341.5 2032.41 1337.75 Q2032.41 1333.38 2035.32 1331.15 Q2038.26 1328.93 2044.07 1328.93 L2050.05 1328.93 L2050.05 1328.51 Q2050.05 1325.57 2048.1 1323.98 Q2046.18 1322.36 2042.69 1322.36 Q2040.46 1322.36 2038.36 1322.89 Q2036.25 1323.42 2034.31 1324.49 L2034.31 1320.55 Q2036.64 1319.65 2038.84 1319.21 Q2041.04 1318.75 2043.13 1318.75 Q2048.75 1318.75 2051.53 1321.66 Q2054.31 1324.58 2054.31 1330.5 Z" fill="#000000" fill-rule="nonzero" fill-opacity="1"></path><path clip-path="url(#clip520)" d="M2063.08 1309.28 L2067.34 1309.28 L2067.34 1345.3 L2063.08 1345.3 L2063.08 1309.28 Z" fill="#000000" fill-rule="nonzero" fill-opacity="1"></path><path clip-path="url(#clip520)" d="M2109.93 1332.36 Q2109.93 1327.66 2107.99 1325 Q2106.06 1322.31 2102.68 1322.31 Q2099.31 1322.31 2097.36 1325 Q2095.44 1327.66 2095.44 1332.36 Q2095.44 1337.06 2097.36 1339.74 Q2099.31 1342.4 2102.68 1342.4 Q2106.06 1342.4 2107.99 1339.74 Q2109.93 1337.06 2109.93 1332.36 M2095.44 1323.31 Q2096.78 1320.99 2098.82 1319.88 Q2100.88 1318.75 2103.73 1318.75 Q2108.45 1318.75 2111.39 1322.5 Q2114.35 1326.25 2114.35 1332.36 Q2114.35 1338.47 2111.39 1342.22 Q2108.45 1345.97 2103.73 1345.97 Q2100.88 1345.97 2098.82 1344.86 Q2096.78 1343.72 2095.44 1341.41 L2095.44 1345.3 L2091.16 1345.3 L2091.16 1309.28 L2095.44 1309.28 L2095.44 1323.31 Z" fill="#000000" fill-rule="nonzero" fill-opacity="1"></path><path clip-path="url(#clip520)" d="M2131.46 1322.36 Q2128.03 1322.36 2126.04 1325.04 Q2124.05 1327.7 2124.05 1332.36 Q2124.05 1337.01 2126.02 1339.69 Q2128.01 1342.36 2131.46 1342.36 Q2134.86 1342.36 2136.85 1339.67 Q2138.84 1336.99 2138.84 1332.36 Q2138.84 1327.75 2136.85 1325.06 Q2134.86 1322.36 2131.46 1322.36 M2131.46 1318.75 Q2137.01 1318.75 2140.18 1322.36 Q2143.36 1325.97 2143.36 1332.36 Q2143.36 1338.72 2140.18 1342.36 Q2137.01 1345.97 2131.46 1345.97 Q2125.88 1345.97 2122.71 1342.36 Q2119.56 1338.72 2119.56 1332.36 Q2119.56 1325.97 2122.71 1322.36 Q2125.88 1318.75 2131.46 1318.75 Z" fill="#000000" fill-rule="nonzero" fill-opacity="1"></path><path clip-path="url(#clip520)" d="M2149.98 1335.06 L2149.98 1319.37 L2154.24 1319.37 L2154.24 1334.9 Q2154.24 1338.58 2155.67 1340.44 Q2157.11 1342.26 2159.98 1342.26 Q2163.43 1342.26 2165.42 1340.06 Q2167.43 1337.87 2167.43 1334.07 L2167.43 1319.37 L2171.69 1319.37 L2171.69 1345.3 L2167.43 1345.3 L2167.43 1341.31 Q2165.88 1343.68 2163.82 1344.83 Q2161.78 1345.97 2159.07 1345.97 Q2154.61 1345.97 2152.29 1343.19 Q2149.98 1340.41 2149.98 1335.06 M2160.69 1318.75 L2160.69 1318.75 Z" fill="#000000" fill-rule="nonzero" fill-opacity="1"></path><path clip-path="url(#clip520)" d="M2202.01 1329.65 L2202.01 1345.3 L2197.75 1345.3 L2197.75 1329.79 Q2197.75 1326.11 2196.32 1324.28 Q2194.88 1322.45 2192.01 1322.45 Q2188.56 1322.45 2186.57 1324.65 Q2184.58 1326.85 2184.58 1330.64 L2184.58 1345.3 L2180.3 1345.3 L2180.3 1319.37 L2184.58 1319.37 L2184.58 1323.4 Q2186.11 1321.06 2188.17 1319.9 Q2190.25 1318.75 2192.96 1318.75 Q2197.43 1318.75 2199.72 1321.52 Q2202.01 1324.28 2202.01 1329.65 Z" fill="#000000" fill-rule="nonzero" fill-opacity="1"></path><path clip-path="url(#clip520)" d="M2227.57 1323.31 L2227.57 1309.28 L2231.83 1309.28 L2231.83 1345.3 L2227.57 1345.3 L2227.57 1341.41 Q2226.23 1343.72 2224.17 1344.86 Q2222.13 1345.97 2219.26 1345.97 Q2214.56 1345.97 2211.6 1342.22 Q2208.66 1338.47 2208.66 1332.36 Q2208.66 1326.25 2211.6 1322.5 Q2214.56 1318.75 2219.26 1318.75 Q2222.13 1318.75 2224.17 1319.88 Q2226.23 1320.99 2227.57 1323.31 M2213.05 1332.36 Q2213.05 1337.06 2214.98 1339.74 Q2216.92 1342.4 2220.3 1342.4 Q2223.68 1342.4 2225.62 1339.74 Q2227.57 1337.06 2227.57 1332.36 Q2227.57 1327.66 2225.62 1325 Q2223.68 1322.31 2220.3 1322.31 Q2216.92 1322.31 2214.98 1325 Q2213.05 1327.66 2213.05 1332.36 Z" fill="#000000" fill-rule="nonzero" fill-opacity="1"></path><path clip-path="url(#clip520)" d="M2257.13 1320.13 L2257.13 1324.16 Q2255.32 1323.24 2253.38 1322.77 Q2251.43 1322.31 2249.35 1322.31 Q2246.18 1322.31 2244.58 1323.28 Q2243.01 1324.25 2243.01 1326.2 Q2243.01 1327.68 2244.14 1328.54 Q2245.28 1329.37 2248.7 1330.13 L2250.16 1330.46 Q2254.7 1331.43 2256.6 1333.21 Q2258.52 1334.97 2258.52 1338.14 Q2258.52 1341.75 2255.65 1343.86 Q2252.8 1345.97 2247.8 1345.97 Q2245.72 1345.97 2243.45 1345.55 Q2241.2 1345.16 2238.7 1344.35 L2238.7 1339.95 Q2241.06 1341.18 2243.36 1341.8 Q2245.65 1342.4 2247.89 1342.4 Q2250.9 1342.4 2252.52 1341.38 Q2254.14 1340.34 2254.14 1338.47 Q2254.14 1336.73 2252.96 1335.81 Q2251.8 1334.88 2247.85 1334.02 L2246.36 1333.68 Q2242.41 1332.84 2240.65 1331.13 Q2238.89 1329.39 2238.89 1326.38 Q2238.89 1322.73 2241.48 1320.74 Q2244.07 1318.75 2248.84 1318.75 Q2251.2 1318.75 2253.29 1319.09 Q2255.37 1319.44 2257.13 1320.13 Z" fill="#000000" fill-rule="nonzero" fill-opacity="1"></path></svg>