<svg xmlns="http://www.w3.org/2000/svg" xmlns:xlink="http://www.w3.org/1999/xlink" width="600" height="400" viewBox="0 0 2400 1600">
<defs>
  <clipPath id="clip200">
    <rect x="0" y="0" width="2400" height="1600"></rect>
  </clipPath>
</defs>
<path clip-path="url(#clip200)" d="M0 1600 L2400 1600 L2400 8.88178e-14 L0 8.88178e-14  Z" fill="#ffffff" fill-rule="evenodd" fill-opacity="1"></path>
<defs>
  <clipPath id="clip201">
    <rect x="480" y="0" width="1681" height="1600"></rect>
  </clipPath>
</defs>
<path clip-path="url(#clip200)" d="M235.283 1423.18 L2352.76 1423.18 L2352.76 47.2441 L235.283 47.2441  Z" fill="#ffffff" fill-rule="evenodd" fill-opacity="1"></path>
<defs>
  <clipPath id="clip202">
    <rect x="235" y="47" width="2118" height="1377"></rect>
  </clipPath>
</defs>
<polyline clip-path="url(#clip202)" style="stroke:#000000; stroke-linecap:round; stroke-linejoin:round; stroke-width:2; stroke-opacity:0.1; fill:none" points="295.211,1423.18 295.211,47.2441 "></polyline>
<polyline clip-path="url(#clip202)" style="stroke:#000000; stroke-linecap:round; stroke-linejoin:round; stroke-width:2; stroke-opacity:0.1; fill:none" points="787.041,1423.18 787.041,47.2441 "></polyline>
<polyline clip-path="url(#clip202)" style="stroke:#000000; stroke-linecap:round; stroke-linejoin:round; stroke-width:2; stroke-opacity:0.1; fill:none" points="1278.87,1423.18 1278.87,47.2441 "></polyline>
<polyline clip-path="url(#clip202)" style="stroke:#000000; stroke-linecap:round; stroke-linejoin:round; stroke-width:2; stroke-opacity:0.1; fill:none" points="1770.7,1423.18 1770.7,47.2441 "></polyline>
<polyline clip-path="url(#clip202)" style="stroke:#000000; stroke-linecap:round; stroke-linejoin:round; stroke-width:2; stroke-opacity:0.1; fill:none" points="2262.53,1423.18 2262.53,47.2441 "></polyline>
<polyline clip-path="url(#clip202)" style="stroke:#000000; stroke-linecap:round; stroke-linejoin:round; stroke-width:2; stroke-opacity:0.1; fill:none" points="235.283,1251.31 2352.76,1251.31 "></polyline>
<polyline clip-path="url(#clip202)" style="stroke:#000000; stroke-linecap:round; stroke-linejoin:round; stroke-width:2; stroke-opacity:0.1; fill:none" points="235.283,985.45 2352.76,985.45 "></polyline>
<polyline clip-path="url(#clip202)" style="stroke:#000000; stroke-linecap:round; stroke-linejoin:round; stroke-width:2; stroke-opacity:0.1; fill:none" points="235.283,719.593 2352.76,719.593 "></polyline>
<polyline clip-path="url(#clip202)" style="stroke:#000000; stroke-linecap:round; stroke-linejoin:round; stroke-width:2; stroke-opacity:0.1; fill:none" points="235.283,453.735 2352.76,453.735 "></polyline>
<polyline clip-path="url(#clip202)" style="stroke:#000000; stroke-linecap:round; stroke-linejoin:round; stroke-width:2; stroke-opacity:0.1; fill:none" points="235.283,187.878 2352.76,187.878 "></polyline>
<polyline clip-path="url(#clip200)" style="stroke:#000000; stroke-linecap:round; stroke-linejoin:round; stroke-width:4; stroke-opacity:1; fill:none" points="235.283,1423.18 2352.76,1423.18 "></polyline>
<polyline clip-path="url(#clip200)" style="stroke:#000000; stroke-linecap:round; stroke-linejoin:round; stroke-width:4; stroke-opacity:1; fill:none" points="295.211,1423.18 295.211,1404.28 "></polyline>
<polyline clip-path="url(#clip200)" style="stroke:#000000; stroke-linecap:round; stroke-linejoin:round; stroke-width:4; stroke-opacity:1; fill:none" points="787.041,1423.18 787.041,1404.28 "></polyline>
<polyline clip-path="url(#clip200)" style="stroke:#000000; stroke-linecap:round; stroke-linejoin:round; stroke-width:4; stroke-opacity:1; fill:none" points="1278.87,1423.18 1278.87,1404.28 "></polyline>
<polyline clip-path="url(#clip200)" style="stroke:#000000; stroke-linecap:round; stroke-linejoin:round; stroke-width:4; stroke-opacity:1; fill:none" points="1770.7,1423.18 1770.7,1404.28 "></polyline>
<polyline clip-path="url(#clip200)" style="stroke:#000000; stroke-linecap:round; stroke-linejoin:round; stroke-width:4; stroke-opacity:1; fill:none" points="2262.53,1423.18 2262.53,1404.28 "></polyline>
<path clip-path="url(#clip200)" d="M272.596 1454.1 Q268.985 1454.1 267.156 1457.66 Q265.35 1461.2 265.35 1468.33 Q265.35 1475.44 267.156 1479.01 Q268.985 1482.55 272.596 1482.55 Q276.23 1482.55 278.035 1479.01 Q279.864 1475.44 279.864 1468.33 Q279.864 1461.2 278.035 1457.66 Q276.23 1454.1 272.596 1454.1 M272.596 1450.39 Q278.406 1450.39 281.461 1455 Q284.54 1459.58 284.54 1468.33 Q284.54 1477.06 281.461 1481.67 Q278.406 1486.25 272.596 1486.25 Q266.786 1486.25 263.707 1481.67 Q260.651 1477.06 260.651 1468.33 Q260.651 1459.58 263.707 1455 Q266.786 1450.39 272.596 1450.39 Z" fill="#000000" fill-rule="nonzero" fill-opacity="1"></path><path clip-path="url(#clip200)" d="M292.758 1479.7 L297.642 1479.7 L297.642 1485.58 L292.758 1485.58 L292.758 1479.7 Z" fill="#000000" fill-rule="nonzero" fill-opacity="1"></path><path clip-path="url(#clip200)" d="M317.827 1454.1 Q314.216 1454.1 312.387 1457.66 Q310.582 1461.2 310.582 1468.33 Q310.582 1475.44 312.387 1479.01 Q314.216 1482.55 317.827 1482.55 Q321.461 1482.55 323.267 1479.01 Q325.095 1475.44 325.095 1468.33 Q325.095 1461.2 323.267 1457.66 Q321.461 1454.1 317.827 1454.1 M317.827 1450.39 Q323.637 1450.39 326.693 1455 Q329.771 1459.58 329.771 1468.33 Q329.771 1477.06 326.693 1481.67 Q323.637 1486.25 317.827 1486.25 Q312.017 1486.25 308.938 1481.67 Q305.883 1477.06 305.883 1468.33 Q305.883 1459.58 308.938 1455 Q312.017 1450.39 317.827 1450.39 Z" fill="#000000" fill-rule="nonzero" fill-opacity="1"></path><path clip-path="url(#clip200)" d="M764.923 1454.1 Q761.312 1454.1 759.483 1457.66 Q757.678 1461.2 757.678 1468.33 Q757.678 1475.44 759.483 1479.01 Q761.312 1482.55 764.923 1482.55 Q768.558 1482.55 770.363 1479.01 Q772.192 1475.44 772.192 1468.33 Q772.192 1461.2 770.363 1457.66 Q768.558 1454.1 764.923 1454.1 M764.923 1450.39 Q770.733 1450.39 773.789 1455 Q776.868 1459.58 776.868 1468.33 Q776.868 1477.06 773.789 1481.67 Q770.733 1486.25 764.923 1486.25 Q759.113 1486.25 756.034 1481.67 Q752.979 1477.06 752.979 1468.33 Q752.979 1459.58 756.034 1455 Q759.113 1450.39 764.923 1450.39 Z" fill="#000000" fill-rule="nonzero" fill-opacity="1"></path><path clip-path="url(#clip200)" d="M785.085 1479.7 L789.969 1479.7 L789.969 1485.58 L785.085 1485.58 L785.085 1479.7 Z" fill="#000000" fill-rule="nonzero" fill-opacity="1"></path><path clip-path="url(#clip200)" d="M800.201 1451.02 L818.557 1451.02 L818.557 1454.96 L804.483 1454.96 L804.483 1463.43 Q805.502 1463.08 806.52 1462.92 Q807.539 1462.73 808.557 1462.73 Q814.344 1462.73 817.724 1465.9 Q821.104 1469.08 821.104 1474.49 Q821.104 1480.07 817.631 1483.17 Q814.159 1486.25 807.84 1486.25 Q805.664 1486.25 803.395 1485.88 Q801.15 1485.51 798.743 1484.77 L798.743 1480.07 Q800.826 1481.2 803.048 1481.76 Q805.27 1482.32 807.747 1482.32 Q811.752 1482.32 814.09 1480.21 Q816.428 1478.1 816.428 1474.49 Q816.428 1470.88 814.09 1468.77 Q811.752 1466.67 807.747 1466.67 Q805.872 1466.67 803.997 1467.08 Q802.145 1467.5 800.201 1468.38 L800.201 1451.02 Z" fill="#000000" fill-rule="nonzero" fill-opacity="1"></path><path clip-path="url(#clip200)" d="M1246.02 1481.64 L1253.66 1481.64 L1253.66 1455.28 L1245.35 1456.95 L1245.35 1452.69 L1253.62 1451.02 L1258.29 1451.02 L1258.29 1481.64 L1265.93 1481.64 L1265.93 1485.58 L1246.02 1485.58 L1246.02 1481.64 Z" fill="#000000" fill-rule="nonzero" fill-opacity="1"></path><path clip-path="url(#clip200)" d="M1275.38 1479.7 L1280.26 1479.7 L1280.26 1485.58 L1275.38 1485.58 L1275.38 1479.7 Z" fill="#000000" fill-rule="nonzero" fill-opacity="1"></path><path clip-path="url(#clip200)" d="M1300.45 1454.1 Q1296.83 1454.1 1295.01 1457.66 Q1293.2 1461.2 1293.2 1468.33 Q1293.2 1475.44 1295.01 1479.01 Q1296.83 1482.55 1300.45 1482.55 Q1304.08 1482.55 1305.88 1479.01 Q1307.71 1475.44 1307.71 1468.33 Q1307.71 1461.2 1305.88 1457.66 Q1304.08 1454.1 1300.45 1454.1 M1300.45 1450.39 Q1306.26 1450.39 1309.31 1455 Q1312.39 1459.58 1312.39 1468.33 Q1312.39 1477.06 1309.31 1481.67 Q1306.26 1486.25 1300.45 1486.25 Q1294.63 1486.25 1291.56 1481.67 Q1288.5 1477.06 1288.5 1468.33 Q1288.5 1459.58 1291.56 1455 Q1294.63 1450.39 1300.45 1450.39 Z" fill="#000000" fill-rule="nonzero" fill-opacity="1"></path><path clip-path="url(#clip200)" d="M1738.35 1481.64 L1745.99 1481.64 L1745.99 1455.28 L1737.68 1456.95 L1737.68 1452.69 L1745.94 1451.02 L1750.62 1451.02 L1750.62 1481.64 L1758.26 1481.64 L1758.26 1485.58 L1738.35 1485.58 L1738.35 1481.64 Z" fill="#000000" fill-rule="nonzero" fill-opacity="1"></path><path clip-path="url(#clip200)" d="M1767.7 1479.7 L1772.59 1479.7 L1772.59 1485.58 L1767.7 1485.58 L1767.7 1479.7 Z" fill="#000000" fill-rule="nonzero" fill-opacity="1"></path><path clip-path="url(#clip200)" d="M1782.82 1451.02 L1801.18 1451.02 L1801.18 1454.96 L1787.1 1454.96 L1787.1 1463.43 Q1788.12 1463.08 1789.14 1462.92 Q1790.16 1462.73 1791.18 1462.73 Q1796.96 1462.73 1800.34 1465.9 Q1803.72 1469.08 1803.72 1474.49 Q1803.72 1480.07 1800.25 1483.17 Q1796.78 1486.25 1790.46 1486.25 Q1788.28 1486.25 1786.01 1485.88 Q1783.77 1485.51 1781.36 1484.77 L1781.36 1480.07 Q1783.44 1481.2 1785.67 1481.76 Q1787.89 1482.32 1790.37 1482.32 Q1794.37 1482.32 1796.71 1480.21 Q1799.05 1478.1 1799.05 1474.49 Q1799.05 1470.88 1796.71 1468.77 Q1794.37 1466.67 1790.37 1466.67 Q1788.49 1466.67 1786.62 1467.08 Q1784.76 1467.5 1782.82 1468.38 L1782.82 1451.02 Z" fill="#000000" fill-rule="nonzero" fill-opacity="1"></path><path clip-path="url(#clip200)" d="M2233.77 1481.64 L2250.09 1481.64 L2250.09 1485.58 L2228.14 1485.58 L2228.14 1481.64 Q2230.81 1478.89 2235.39 1474.26 Q2240 1469.61 2241.18 1468.27 Q2243.42 1465.74 2244.3 1464.01 Q2245.2 1462.25 2245.2 1460.56 Q2245.2 1457.8 2243.26 1456.07 Q2241.34 1454.33 2238.24 1454.33 Q2236.04 1454.33 2233.58 1455.09 Q2231.15 1455.86 2228.38 1457.41 L2228.38 1452.69 Q2231.2 1451.55 2233.65 1450.97 Q2236.11 1450.39 2238.14 1450.39 Q2243.51 1450.39 2246.71 1453.08 Q2249.9 1455.77 2249.9 1460.26 Q2249.9 1462.39 2249.09 1464.31 Q2248.31 1466.2 2246.2 1468.8 Q2245.62 1469.47 2242.52 1472.69 Q2239.42 1475.88 2233.77 1481.64 Z" fill="#000000" fill-rule="nonzero" fill-opacity="1"></path><path clip-path="url(#clip200)" d="M2259.9 1479.7 L2264.79 1479.7 L2264.79 1485.58 L2259.9 1485.58 L2259.9 1479.7 Z" fill="#000000" fill-rule="nonzero" fill-opacity="1"></path><path clip-path="url(#clip200)" d="M2284.97 1454.1 Q2281.36 1454.1 2279.53 1457.66 Q2277.73 1461.2 2277.73 1468.33 Q2277.73 1475.44 2279.53 1479.01 Q2281.36 1482.55 2284.97 1482.55 Q2288.61 1482.55 2290.41 1479.01 Q2292.24 1475.44 2292.24 1468.33 Q2292.24 1461.2 2290.41 1457.66 Q2288.61 1454.1 2284.97 1454.1 M2284.97 1450.39 Q2290.78 1450.39 2293.84 1455 Q2296.92 1459.58 2296.92 1468.33 Q2296.92 1477.06 2293.84 1481.67 Q2290.78 1486.25 2284.97 1486.25 Q2279.16 1486.25 2276.08 1481.67 Q2273.03 1477.06 2273.03 1468.33 Q2273.03 1459.58 2276.08 1455 Q2279.16 1450.39 2284.97 1450.39 Z" fill="#000000" fill-rule="nonzero" fill-opacity="1"></path><path clip-path="url(#clip200)" d="M1233.18 1522.27 L1233.18 1532.4 L1245.24 1532.4 L1245.24 1536.95 L1233.18 1536.95 L1233.18 1556.3 Q1233.18 1560.66 1234.36 1561.9 Q1235.57 1563.14 1239.23 1563.14 L1245.24 1563.14 L1245.24 1568.04 L1239.23 1568.04 Q1232.45 1568.04 1229.87 1565.53 Q1227.29 1562.98 1227.29 1556.3 L1227.29 1536.95 L1222.99 1536.95 L1222.99 1532.4 L1227.29 1532.4 L1227.29 1522.27 L1233.18 1522.27 Z" fill="#000000" fill-rule="nonzero" fill-opacity="1"></path><path clip-path="url(#clip200)" d="M1252.94 1532.4 L1258.8 1532.4 L1258.8 1568.04 L1252.94 1568.04 L1252.94 1532.4 M1252.94 1518.52 L1258.8 1518.52 L1258.8 1525.93 L1252.94 1525.93 L1252.94 1518.52 Z" fill="#000000" fill-rule="nonzero" fill-opacity="1"></path><path clip-path="url(#clip200)" d="M1298.81 1539.24 Q1301.01 1535.29 1304.06 1533.41 Q1307.12 1531.54 1311.25 1531.54 Q1316.82 1531.54 1319.85 1535.45 Q1322.87 1539.33 1322.87 1546.53 L1322.87 1568.04 L1316.98 1568.04 L1316.98 1546.72 Q1316.98 1541.59 1315.17 1539.11 Q1313.36 1536.63 1309.63 1536.63 Q1305.08 1536.63 1302.44 1539.65 Q1299.8 1542.68 1299.8 1547.9 L1299.8 1568.04 L1293.91 1568.04 L1293.91 1546.72 Q1293.91 1541.56 1292.09 1539.11 Q1290.28 1536.63 1286.49 1536.63 Q1282 1536.63 1279.36 1539.68 Q1276.72 1542.71 1276.72 1547.9 L1276.72 1568.04 L1270.83 1568.04 L1270.83 1532.4 L1276.72 1532.4 L1276.72 1537.93 Q1278.73 1534.66 1281.53 1533.1 Q1284.33 1531.54 1288.18 1531.54 Q1292.06 1531.54 1294.77 1533.51 Q1297.5 1535.48 1298.81 1539.24 Z" fill="#000000" fill-rule="nonzero" fill-opacity="1"></path><path clip-path="url(#clip200)" d="M1365.04 1548.76 L1365.04 1551.62 L1338.12 1551.62 Q1338.5 1557.67 1341.75 1560.85 Q1345.02 1564 1350.85 1564 Q1354.22 1564 1357.37 1563.17 Q1360.56 1562.35 1363.68 1560.69 L1363.68 1566.23 Q1360.53 1567.57 1357.21 1568.27 Q1353.9 1568.97 1350.5 1568.97 Q1341.97 1568.97 1336.97 1564 Q1332.01 1559.04 1332.01 1550.57 Q1332.01 1541.82 1336.72 1536.69 Q1341.46 1531.54 1349.48 1531.54 Q1356.67 1531.54 1360.84 1536.18 Q1365.04 1540.8 1365.04 1548.76 M1359.19 1547.04 Q1359.12 1542.23 1356.48 1539.37 Q1353.87 1536.5 1349.54 1536.5 Q1344.64 1536.5 1341.68 1539.27 Q1338.75 1542.04 1338.31 1547.07 L1359.19 1547.04 Z" fill="#000000" fill-rule="nonzero" fill-opacity="1"></path><polyline clip-path="url(#clip200)" style="stroke:#000000; stroke-linecap:round; stroke-linejoin:round; stroke-width:4; stroke-opacity:1; fill:none" points="235.283,1423.18 235.283,47.2441 "></polyline>
<polyline clip-path="url(#clip200)" style="stroke:#000000; stroke-linecap:round; stroke-linejoin:round; stroke-width:4; stroke-opacity:1; fill:none" points="235.283,1251.31 254.18,1251.31 "></polyline>
<polyline clip-path="url(#clip200)" style="stroke:#000000; stroke-linecap:round; stroke-linejoin:round; stroke-width:4; stroke-opacity:1; fill:none" points="235.283,985.45 254.18,985.45 "></polyline>
<polyline clip-path="url(#clip200)" style="stroke:#000000; stroke-linecap:round; stroke-linejoin:round; stroke-width:4; stroke-opacity:1; fill:none" points="235.283,719.593 254.18,719.593 "></polyline>
<polyline clip-path="url(#clip200)" style="stroke:#000000; stroke-linecap:round; stroke-linejoin:round; stroke-width:4; stroke-opacity:1; fill:none" points="235.283,453.735 254.18,453.735 "></polyline>
<polyline clip-path="url(#clip200)" style="stroke:#000000; stroke-linecap:round; stroke-linejoin:round; stroke-width:4; stroke-opacity:1; fill:none" points="235.283,187.878 254.18,187.878 "></polyline>
<path clip-path="url(#clip200)" d="M117.825 1264.65 L125.464 1264.65 L125.464 1238.29 L117.154 1239.95 L117.154 1235.69 L125.418 1234.03 L130.093 1234.03 L130.093 1264.65 L137.732 1264.65 L137.732 1268.59 L117.825 1268.59 L117.825 1264.65 Z" fill="#000000" fill-rule="nonzero" fill-opacity="1"></path><path clip-path="url(#clip200)" d="M157.177 1237.11 Q153.566 1237.11 151.737 1240.67 Q149.931 1244.21 149.931 1251.34 Q149.931 1258.45 151.737 1262.01 Q153.566 1265.56 157.177 1265.56 Q160.811 1265.56 162.616 1262.01 Q164.445 1258.45 164.445 1251.34 Q164.445 1244.21 162.616 1240.67 Q160.811 1237.11 157.177 1237.11 M157.177 1233.4 Q162.987 1233.4 166.042 1238.01 Q169.121 1242.59 169.121 1251.34 Q169.121 1260.07 166.042 1264.68 Q162.987 1269.26 157.177 1269.26 Q151.366 1269.26 148.288 1264.68 Q145.232 1260.07 145.232 1251.34 Q145.232 1242.59 148.288 1238.01 Q151.366 1233.4 157.177 1233.4 Z" fill="#000000" fill-rule="nonzero" fill-opacity="1"></path><path clip-path="url(#clip200)" d="M187.338 1237.11 Q183.727 1237.11 181.899 1240.67 Q180.093 1244.21 180.093 1251.34 Q180.093 1258.45 181.899 1262.01 Q183.727 1265.56 187.338 1265.56 Q190.973 1265.56 192.778 1262.01 Q194.607 1258.45 194.607 1251.34 Q194.607 1244.21 192.778 1240.67 Q190.973 1237.11 187.338 1237.11 M187.338 1233.4 Q193.149 1233.4 196.204 1238.01 Q199.283 1242.59 199.283 1251.34 Q199.283 1260.07 196.204 1264.68 Q193.149 1269.26 187.338 1269.26 Q181.528 1269.26 178.45 1264.68 Q175.394 1260.07 175.394 1251.34 Q175.394 1242.59 178.45 1238.01 Q181.528 1233.4 187.338 1233.4 Z" fill="#000000" fill-rule="nonzero" fill-opacity="1"></path><path clip-path="url(#clip200)" d="M121.043 998.795 L137.362 998.795 L137.362 1002.73 L115.418 1002.73 L115.418 998.795 Q118.08 996.041 122.663 991.411 Q127.269 986.758 128.45 985.416 Q130.695 982.893 131.575 981.157 Q132.478 979.397 132.478 977.707 Q132.478 974.953 130.533 973.217 Q128.612 971.481 125.51 971.481 Q123.311 971.481 120.857 972.245 Q118.427 973.008 115.649 974.559 L115.649 969.837 Q118.473 968.703 120.927 968.124 Q123.38 967.545 125.418 967.545 Q130.788 967.545 133.982 970.231 Q137.177 972.916 137.177 977.407 Q137.177 979.536 136.367 981.457 Q135.579 983.356 133.473 985.948 Q132.894 986.619 129.792 989.837 Q126.691 993.031 121.043 998.795 Z" fill="#000000" fill-rule="nonzero" fill-opacity="1"></path><path clip-path="url(#clip200)" d="M157.177 971.249 Q153.566 971.249 151.737 974.814 Q149.931 978.356 149.931 985.485 Q149.931 992.592 151.737 996.156 Q153.566 999.698 157.177 999.698 Q160.811 999.698 162.616 996.156 Q164.445 992.592 164.445 985.485 Q164.445 978.356 162.616 974.814 Q160.811 971.249 157.177 971.249 M157.177 967.545 Q162.987 967.545 166.042 972.152 Q169.121 976.735 169.121 985.485 Q169.121 994.212 166.042 998.818 Q162.987 1003.4 157.177 1003.4 Q151.366 1003.4 148.288 998.818 Q145.232 994.212 145.232 985.485 Q145.232 976.735 148.288 972.152 Q151.366 967.545 157.177 967.545 Z" fill="#000000" fill-rule="nonzero" fill-opacity="1"></path><path clip-path="url(#clip200)" d="M187.338 971.249 Q183.727 971.249 181.899 974.814 Q180.093 978.356 180.093 985.485 Q180.093 992.592 181.899 996.156 Q183.727 999.698 187.338 999.698 Q190.973 999.698 192.778 996.156 Q194.607 992.592 194.607 985.485 Q194.607 978.356 192.778 974.814 Q190.973 971.249 187.338 971.249 M187.338 967.545 Q193.149 967.545 196.204 972.152 Q199.283 976.735 199.283 985.485 Q199.283 994.212 196.204 998.818 Q193.149 1003.4 187.338 1003.4 Q181.528 1003.4 178.45 998.818 Q175.394 994.212 175.394 985.485 Q175.394 976.735 178.45 972.152 Q181.528 967.545 187.338 967.545 Z" fill="#000000" fill-rule="nonzero" fill-opacity="1"></path><path clip-path="url(#clip200)" d="M131.181 718.239 Q134.538 718.956 136.413 721.225 Q138.311 723.493 138.311 726.827 Q138.311 731.942 134.792 734.743 Q131.274 737.544 124.793 737.544 Q122.617 737.544 120.302 737.104 Q118.01 736.688 115.556 735.831 L115.556 731.317 Q117.501 732.452 119.816 733.03 Q122.13 733.609 124.654 733.609 Q129.052 733.609 131.343 731.873 Q133.658 730.137 133.658 726.827 Q133.658 723.771 131.505 722.058 Q129.376 720.322 125.556 720.322 L121.529 720.322 L121.529 716.479 L125.742 716.479 Q129.191 716.479 131.019 715.114 Q132.848 713.725 132.848 711.132 Q132.848 708.47 130.95 707.058 Q129.075 705.623 125.556 705.623 Q123.635 705.623 121.436 706.04 Q119.237 706.456 116.598 707.336 L116.598 703.169 Q119.26 702.429 121.575 702.058 Q123.913 701.688 125.973 701.688 Q131.297 701.688 134.399 704.118 Q137.501 706.526 137.501 710.646 Q137.501 713.516 135.857 715.507 Q134.214 717.475 131.181 718.239 Z" fill="#000000" fill-rule="nonzero" fill-opacity="1"></path><path clip-path="url(#clip200)" d="M157.177 705.392 Q153.566 705.392 151.737 708.956 Q149.931 712.498 149.931 719.628 Q149.931 726.734 151.737 730.299 Q153.566 733.84 157.177 733.84 Q160.811 733.84 162.616 730.299 Q164.445 726.734 164.445 719.628 Q164.445 712.498 162.616 708.956 Q160.811 705.392 157.177 705.392 M157.177 701.688 Q162.987 701.688 166.042 706.294 Q169.121 710.878 169.121 719.628 Q169.121 728.354 166.042 732.961 Q162.987 737.544 157.177 737.544 Q151.366 737.544 148.288 732.961 Q145.232 728.354 145.232 719.628 Q145.232 710.878 148.288 706.294 Q151.366 701.688 157.177 701.688 Z" fill="#000000" fill-rule="nonzero" fill-opacity="1"></path><path clip-path="url(#clip200)" d="M187.338 705.392 Q183.727 705.392 181.899 708.956 Q180.093 712.498 180.093 719.628 Q180.093 726.734 181.899 730.299 Q183.727 733.84 187.338 733.84 Q190.973 733.84 192.778 730.299 Q194.607 726.734 194.607 719.628 Q194.607 712.498 192.778 708.956 Q190.973 705.392 187.338 705.392 M187.338 701.688 Q193.149 701.688 196.204 706.294 Q199.283 710.878 199.283 719.628 Q199.283 728.354 196.204 732.961 Q193.149 737.544 187.338 737.544 Q181.528 737.544 178.45 732.961 Q175.394 728.354 175.394 719.628 Q175.394 710.878 178.45 706.294 Q181.528 701.688 187.338 701.688 Z" fill="#000000" fill-rule="nonzero" fill-opacity="1"></path><path clip-path="url(#clip200)" d="M129.862 440.529 L118.056 458.978 L129.862 458.978 L129.862 440.529 M128.635 436.455 L134.515 436.455 L134.515 458.978 L139.445 458.978 L139.445 462.867 L134.515 462.867 L134.515 471.015 L129.862 471.015 L129.862 462.867 L114.26 462.867 L114.26 458.353 L128.635 436.455 Z" fill="#000000" fill-rule="nonzero" fill-opacity="1"></path><path clip-path="url(#clip200)" d="M157.177 439.534 Q153.566 439.534 151.737 443.099 Q149.931 446.64 149.931 453.77 Q149.931 460.876 151.737 464.441 Q153.566 467.983 157.177 467.983 Q160.811 467.983 162.616 464.441 Q164.445 460.876 164.445 453.77 Q164.445 446.64 162.616 443.099 Q160.811 439.534 157.177 439.534 M157.177 435.83 Q162.987 435.83 166.042 440.437 Q169.121 445.02 169.121 453.77 Q169.121 462.497 166.042 467.103 Q162.987 471.687 157.177 471.687 Q151.366 471.687 148.288 467.103 Q145.232 462.497 145.232 453.77 Q145.232 445.02 148.288 440.437 Q151.366 435.83 157.177 435.83 Z" fill="#000000" fill-rule="nonzero" fill-opacity="1"></path><path clip-path="url(#clip200)" d="M187.338 439.534 Q183.727 439.534 181.899 443.099 Q180.093 446.64 180.093 453.77 Q180.093 460.876 181.899 464.441 Q183.727 467.983 187.338 467.983 Q190.973 467.983 192.778 464.441 Q194.607 460.876 194.607 453.77 Q194.607 446.64 192.778 443.099 Q190.973 439.534 187.338 439.534 M187.338 435.83 Q193.149 435.83 196.204 440.437 Q199.283 445.02 199.283 453.77 Q199.283 462.497 196.204 467.103 Q193.149 471.687 187.338 471.687 Q181.528 471.687 178.45 467.103 Q175.394 462.497 175.394 453.77 Q175.394 445.02 178.45 440.437 Q181.528 435.83 187.338 435.83 Z" fill="#000000" fill-rule="nonzero" fill-opacity="1"></path><path clip-path="url(#clip200)" d="M117.061 170.598 L135.417 170.598 L135.417 174.533 L121.343 174.533 L121.343 183.005 Q122.362 182.658 123.38 182.496 Q124.399 182.31 125.418 182.31 Q131.205 182.31 134.584 185.482 Q137.964 188.653 137.964 194.07 Q137.964 199.648 134.492 202.75 Q131.019 205.829 124.7 205.829 Q122.524 205.829 120.255 205.459 Q118.01 205.088 115.603 204.347 L115.603 199.648 Q117.686 200.783 119.908 201.338 Q122.13 201.894 124.607 201.894 Q128.612 201.894 130.95 199.787 Q133.288 197.681 133.288 194.07 Q133.288 190.459 130.95 188.352 Q128.612 186.246 124.607 186.246 Q122.732 186.246 120.857 186.662 Q119.006 187.079 117.061 187.959 L117.061 170.598 Z" fill="#000000" fill-rule="nonzero" fill-opacity="1"></path><path clip-path="url(#clip200)" d="M157.177 173.676 Q153.566 173.676 151.737 177.241 Q149.931 180.783 149.931 187.912 Q149.931 195.019 151.737 198.584 Q153.566 202.125 157.177 202.125 Q160.811 202.125 162.616 198.584 Q164.445 195.019 164.445 187.912 Q164.445 180.783 162.616 177.241 Q160.811 173.676 157.177 173.676 M157.177 169.973 Q162.987 169.973 166.042 174.579 Q169.121 179.162 169.121 187.912 Q169.121 196.639 166.042 201.246 Q162.987 205.829 157.177 205.829 Q151.366 205.829 148.288 201.246 Q145.232 196.639 145.232 187.912 Q145.232 179.162 148.288 174.579 Q151.366 169.973 157.177 169.973 Z" fill="#000000" fill-rule="nonzero" fill-opacity="1"></path><path clip-path="url(#clip200)" d="M187.338 173.676 Q183.727 173.676 181.899 177.241 Q180.093 180.783 180.093 187.912 Q180.093 195.019 181.899 198.584 Q183.727 202.125 187.338 202.125 Q190.973 202.125 192.778 198.584 Q194.607 195.019 194.607 187.912 Q194.607 180.783 192.778 177.241 Q190.973 173.676 187.338 173.676 M187.338 169.973 Q193.149 169.973 196.204 174.579 Q199.283 179.162 199.283 187.912 Q199.283 196.639 196.204 201.246 Q193.149 205.829 187.338 205.829 Q181.528 205.829 178.45 201.246 Q175.394 196.639 175.394 187.912 Q175.394 179.162 178.45 174.579 Q181.528 169.973 187.338 169.973 Z" fill="#000000" fill-rule="nonzero" fill-opacity="1"></path><path clip-path="url(#clip200)" d="M21.7677 893.909 L39.6235 893.909 L39.6235 885.825 Q39.6235 881.337 37.3 878.886 Q34.9765 876.435 30.6797 876.435 Q26.4147 876.435 24.0912 878.886 Q21.7677 881.337 21.7677 885.825 L21.7677 893.909 M16.4842 900.338 L16.4842 885.825 Q16.4842 877.836 20.1126 873.762 Q23.7092 869.656 30.6797 869.656 Q37.7138 869.656 41.3104 873.762 Q44.907 877.836 44.907 885.825 L44.907 893.909 L64.0042 893.909 L64.0042 900.338 L16.4842 900.338 Z" fill="#000000" fill-rule="nonzero" fill-opacity="1"></path><path clip-path="url(#clip200)" d="M46.0847 848.012 Q46.0847 855.11 47.7079 857.847 Q49.3312 860.585 53.2461 860.585 Q56.3653 860.585 58.2114 858.548 Q60.0256 856.479 60.0256 852.946 Q60.0256 848.076 56.5881 845.148 Q53.1188 842.188 47.3897 842.188 L46.0847 842.188 L46.0847 848.012 M43.6657 836.331 L64.0042 836.331 L64.0042 842.188 L58.5933 842.188 Q61.8398 844.193 63.3994 847.185 Q64.9272 850.177 64.9272 854.505 Q64.9272 859.98 61.8716 863.226 Q58.7843 866.441 53.6281 866.441 Q47.6125 866.441 44.5569 862.431 Q41.5014 858.388 41.5014 850.399 L41.5014 842.188 L40.9285 842.188 Q36.8862 842.188 34.6901 844.861 Q32.4621 847.503 32.4621 852.309 Q32.4621 855.365 33.1941 858.261 Q33.9262 861.157 35.3903 863.831 L29.9795 863.831 Q28.7381 860.616 28.1334 857.593 Q27.4968 854.569 27.4968 851.704 Q27.4968 843.97 31.5072 840.151 Q35.5176 836.331 43.6657 836.331 Z" fill="#000000" fill-rule="nonzero" fill-opacity="1"></path><path clip-path="url(#clip200)" d="M18.2347 818.475 L28.3562 818.475 L28.3562 806.412 L32.9077 806.412 L32.9077 818.475 L52.2594 818.475 Q56.6199 818.475 57.8613 817.298 Q59.1026 816.088 59.1026 812.428 L59.1026 806.412 L64.0042 806.412 L64.0042 812.428 Q64.0042 819.207 61.4897 821.786 Q58.9434 824.364 52.2594 824.364 L32.9077 824.364 L32.9077 828.661 L28.3562 828.661 L28.3562 824.364 L18.2347 824.364 L18.2347 818.475 Z" fill="#000000" fill-rule="nonzero" fill-opacity="1"></path><path clip-path="url(#clip200)" d="M42.4881 769.078 L64.0042 769.078 L64.0042 774.934 L42.679 774.934 Q37.6183 774.934 35.1038 776.907 Q32.5894 778.881 32.5894 782.827 Q32.5894 787.57 35.6131 790.307 Q38.6368 793.044 43.8567 793.044 L64.0042 793.044 L64.0042 798.933 L14.479 798.933 L14.479 793.044 L33.8944 793.044 Q30.6797 790.944 29.0883 788.111 Q27.4968 785.246 27.4968 781.522 Q27.4968 775.38 31.3163 772.229 Q35.1038 769.078 42.4881 769.078 Z" fill="#000000" fill-rule="nonzero" fill-opacity="1"></path><path clip-path="url(#clip200)" d="M32.4621 743.583 Q32.4621 748.293 36.1542 751.031 Q39.8145 753.768 46.212 753.768 Q52.6095 753.768 56.3017 751.063 Q59.9619 748.325 59.9619 743.583 Q59.9619 738.904 56.2698 736.167 Q52.5777 733.43 46.212 733.43 Q39.8781 733.43 36.186 736.167 Q32.4621 738.904 32.4621 743.583 M27.4968 743.583 Q27.4968 735.944 32.4621 731.584 Q37.4273 727.223 46.212 727.223 Q54.9649 727.223 59.9619 731.584 Q64.9272 735.944 64.9272 743.583 Q64.9272 751.254 59.9619 755.614 Q54.9649 759.943 46.212 759.943 Q37.4273 759.943 32.4621 755.614 Q27.4968 751.254 27.4968 743.583 Z" fill="#000000" fill-rule="nonzero" fill-opacity="1"></path><path clip-path="url(#clip200)" d="M45.7664 694.058 Q39.4007 694.058 35.8996 696.699 Q32.3984 699.309 32.3984 704.052 Q32.3984 708.762 35.8996 711.404 Q39.4007 714.014 45.7664 714.014 Q52.1003 714.014 55.6014 711.404 Q59.1026 708.762 59.1026 704.052 Q59.1026 699.309 55.6014 696.699 Q52.1003 694.058 45.7664 694.058 M59.58 688.201 Q68.683 688.201 73.1071 692.243 Q77.5631 696.286 77.5631 704.625 Q77.5631 707.712 77.0857 710.449 Q76.6401 713.187 75.6852 715.765 L69.9879 715.765 Q71.3884 713.187 72.0568 710.672 Q72.7252 708.158 72.7252 705.548 Q72.7252 699.787 69.7015 696.922 Q66.7096 694.058 60.6303 694.058 L57.7339 694.058 Q60.885 695.872 62.4446 698.705 Q64.0042 701.537 64.0042 705.484 Q64.0042 712.041 59.0071 716.051 Q54.01 720.062 45.7664 720.062 Q37.491 720.062 32.4939 716.051 Q27.4968 712.041 27.4968 705.484 Q27.4968 701.537 29.0564 698.705 Q30.616 695.872 33.7671 694.058 L28.3562 694.058 L28.3562 688.201 L59.58 688.201 Z" fill="#000000" fill-rule="nonzero" fill-opacity="1"></path><path clip-path="url(#clip200)" d="M44.7161 645.646 L47.5806 645.646 L47.5806 672.573 Q53.6281 672.191 56.8109 668.945 Q59.9619 665.667 59.9619 659.842 Q59.9619 656.468 59.1344 653.317 Q58.3069 650.134 56.6518 647.015 L62.1899 647.015 Q63.5267 650.166 64.227 653.476 Q64.9272 656.786 64.9272 660.192 Q64.9272 668.722 59.9619 673.719 Q54.9967 678.684 46.5303 678.684 Q37.7774 678.684 32.6531 673.974 Q27.4968 669.231 27.4968 661.211 Q27.4968 654.017 32.1438 649.848 Q36.7589 645.646 44.7161 645.646 M42.9973 651.503 Q38.1912 651.567 35.3266 654.208 Q32.4621 656.818 32.4621 661.147 Q32.4621 666.049 35.2312 669.009 Q38.0002 671.937 43.0292 672.382 L42.9973 651.503 Z" fill="#000000" fill-rule="nonzero" fill-opacity="1"></path><path clip-path="url(#clip200)" d="M42.4881 606.402 L64.0042 606.402 L64.0042 612.258 L42.679 612.258 Q37.6183 612.258 35.1038 614.232 Q32.5894 616.205 32.5894 620.152 Q32.5894 624.894 35.6131 627.632 Q38.6368 630.369 43.8567 630.369 L64.0042 630.369 L64.0042 636.257 L28.3562 636.257 L28.3562 630.369 L33.8944 630.369 Q30.6797 628.268 29.0883 625.435 Q27.4968 622.571 27.4968 618.847 Q27.4968 612.704 31.3163 609.553 Q35.1038 606.402 42.4881 606.402 Z" fill="#000000" fill-rule="nonzero" fill-opacity="1"></path><path clip-path="url(#clip200)" d="M29.4065 571.995 L34.9447 571.995 Q33.6716 574.478 33.035 577.151 Q32.3984 579.825 32.3984 582.69 Q32.3984 587.05 33.7352 589.246 Q35.072 591.411 37.7456 591.411 Q39.7826 591.411 40.9603 589.851 Q42.1061 588.291 43.1565 583.581 L43.6021 581.576 Q44.9389 575.337 47.3897 572.727 Q49.8086 570.086 54.1691 570.086 Q59.1344 570.086 62.0308 574.032 Q64.9272 577.947 64.9272 584.822 Q64.9272 587.687 64.3543 590.806 Q63.8132 593.893 62.6992 597.331 L56.6518 597.331 Q58.3387 594.084 59.198 590.933 Q60.0256 587.782 60.0256 584.695 Q60.0256 580.557 58.6251 578.329 Q57.1929 576.101 54.6147 576.101 Q52.2276 576.101 50.9545 577.724 Q49.6813 579.316 48.5037 584.758 L48.0262 586.796 Q46.8804 592.238 44.5251 594.657 Q42.138 597.076 38.0002 597.076 Q32.9713 597.076 30.2341 593.511 Q27.4968 589.947 27.4968 583.39 Q27.4968 580.143 27.9743 577.279 Q28.4517 574.414 29.4065 571.995 Z" fill="#000000" fill-rule="nonzero" fill-opacity="1"></path><path clip-path="url(#clip202)" d="M295.211 1384.24 L301.751 1384.24 L301.751 1382.9 L295.211 1382.9 L295.211 1384.24 L295.211 1384.24  Z" fill="#009af9" fill-rule="evenodd" fill-opacity="0.5"></path>
<polyline clip-path="url(#clip202)" style="stroke:#000000; stroke-linecap:round; stroke-linejoin:round; stroke-width:4; stroke-opacity:0.5; fill:none" points="295.211,1384.24 301.751,1384.24 301.751,1382.9 295.211,1382.9 295.211,1384.24 "></polyline>
<path clip-path="url(#clip202)" d="M301.751 1383.17 L308.29 1383.17 L308.29 1381.83 L301.751 1381.83 L301.751 1383.17 L301.751 1383.17  Z" fill="#009af9" fill-rule="evenodd" fill-opacity="0.5"></path>
<polyline clip-path="url(#clip202)" style="stroke:#000000; stroke-linecap:round; stroke-linejoin:round; stroke-width:4; stroke-opacity:0.5; fill:none" points="301.751,1383.17 308.29,1383.17 308.29,1381.83 301.751,1381.83 301.751,1383.17 "></polyline>
<path clip-path="url(#clip202)" d="M308.29 1382.1 L314.879 1382.1 L314.879 1380.74 L308.29 1380.74 L308.29 1382.1 L308.29 1382.1  Z" fill="#009af9" fill-rule="evenodd" fill-opacity="0.5"></path>
<polyline clip-path="url(#clip202)" style="stroke:#000000; stroke-linecap:round; stroke-linejoin:round; stroke-width:4; stroke-opacity:0.5; fill:none" points="308.29,1382.1 314.879,1382.1 314.879,1380.74 308.29,1380.74 308.29,1382.1 "></polyline>
<path clip-path="url(#clip202)" d="M314.879 1381.01 L321.573 1381.01 L321.573 1379.62 L314.879 1379.62 L314.879 1381.01 L314.879 1381.01  Z" fill="#009af9" fill-rule="evenodd" fill-opacity="0.5"></path>
<polyline clip-path="url(#clip202)" style="stroke:#000000; stroke-linecap:round; stroke-linejoin:round; stroke-width:4; stroke-opacity:0.5; fill:none" points="314.879,1381.01 321.573,1381.01 321.573,1379.62 314.879,1379.62 314.879,1381.01 "></polyline>
<path clip-path="url(#clip202)" d="M321.573 1379.9 L328.444 1379.9 L328.444 1378.46 L321.573 1378.46 L321.573 1379.9 L321.573 1379.9  Z" fill="#009af9" fill-rule="evenodd" fill-opacity="0.5"></path>
<polyline clip-path="url(#clip202)" style="stroke:#000000; stroke-linecap:round; stroke-linejoin:round; stroke-width:4; stroke-opacity:0.5; fill:none" points="321.573,1379.9 328.444,1379.9 328.444,1378.46 321.573,1378.46 321.573,1379.9 "></polyline>
<path clip-path="url(#clip202)" d="M328.444 1378.75 L335.606 1378.75 L335.606 1377.25 L328.444 1377.25 L328.444 1378.75 L328.444 1378.75  Z" fill="#009af9" fill-rule="evenodd" fill-opacity="0.5"></path>
<polyline clip-path="url(#clip202)" style="stroke:#000000; stroke-linecap:round; stroke-linejoin:round; stroke-width:4; stroke-opacity:0.5; fill:none" points="328.444,1378.75 335.606,1378.75 335.606,1377.25 328.444,1377.25 328.444,1378.75 "></polyline>
<path clip-path="url(#clip202)" d="M335.606 1377.53 L343.284 1377.53 L343.284 1375.93 L335.606 1375.93 L335.606 1377.53 L335.606 1377.53  Z" fill="#009af9" fill-rule="evenodd" fill-opacity="0.5"></path>
<polyline clip-path="url(#clip202)" style="stroke:#000000; stroke-linecap:round; stroke-linejoin:round; stroke-width:4; stroke-opacity:0.5; fill:none" points="335.606,1377.53 343.284,1377.53 343.284,1375.93 335.606,1375.93 335.606,1377.53 "></polyline>
<path clip-path="url(#clip202)" d="M343.284 1376.22 L351.422 1376.22 L351.422 1374.53 L343.284 1374.53 L343.284 1376.22 L343.284 1376.22  Z" fill="#009af9" fill-rule="evenodd" fill-opacity="0.5"></path>
<polyline clip-path="url(#clip202)" style="stroke:#000000; stroke-linecap:round; stroke-linejoin:round; stroke-width:4; stroke-opacity:0.5; fill:none" points="343.284,1376.22 351.422,1376.22 351.422,1374.53 343.284,1374.53 343.284,1376.22 "></polyline>
<path clip-path="url(#clip202)" d="M351.422 1374.82 L360.231 1374.82 L360.231 1372.99 L351.422 1372.99 L351.422 1374.82 L351.422 1374.82  Z" fill="#009af9" fill-rule="evenodd" fill-opacity="0.5"></path>
<polyline clip-path="url(#clip202)" style="stroke:#000000; stroke-linecap:round; stroke-linejoin:round; stroke-width:4; stroke-opacity:0.5; fill:none" points="351.422,1374.82 360.231,1374.82 360.231,1372.99 351.422,1372.99 351.422,1374.82 "></polyline>
<path clip-path="url(#clip202)" d="M360.231 1373.29 L367.942 1373.29 L367.942 1371.63 L360.231 1371.63 L360.231 1373.29 L360.231 1373.29  Z" fill="#009af9" fill-rule="evenodd" fill-opacity="0.5"></path>
<polyline clip-path="url(#clip202)" style="stroke:#000000; stroke-linecap:round; stroke-linejoin:round; stroke-width:4; stroke-opacity:0.5; fill:none" points="360.231,1373.29 367.942,1373.29 367.942,1371.63 360.231,1371.63 360.231,1373.29 "></polyline>
<path clip-path="url(#clip202)" d="M367.942 1371.93 L375.282 1371.93 L375.282 1370.33 L367.942 1370.33 L367.942 1371.93 L367.942 1371.93  Z" fill="#009af9" fill-rule="evenodd" fill-opacity="0.5"></path>
<polyline clip-path="url(#clip202)" style="stroke:#000000; stroke-linecap:round; stroke-linejoin:round; stroke-width:4; stroke-opacity:0.5; fill:none" points="367.942,1371.93 375.282,1371.93 375.282,1370.33 367.942,1370.33 367.942,1371.93 "></polyline>
<path clip-path="url(#clip202)" d="M375.282 1370.63 L382.448 1370.63 L382.448 1369.04 L375.282 1369.04 L375.282 1370.63 L375.282 1370.63  Z" fill="#009af9" fill-rule="evenodd" fill-opacity="0.5"></path>
<polyline clip-path="url(#clip202)" style="stroke:#000000; stroke-linecap:round; stroke-linejoin:round; stroke-width:4; stroke-opacity:0.5; fill:none" points="375.282,1370.63 382.448,1370.63 382.448,1369.04 375.282,1369.04 375.282,1370.63 "></polyline>
<path clip-path="url(#clip202)" d="M382.448 1369.35 L389.539 1369.35 L389.539 1367.76 L382.448 1367.76 L382.448 1369.35 L382.448 1369.35  Z" fill="#009af9" fill-rule="evenodd" fill-opacity="0.5"></path>
<polyline clip-path="url(#clip202)" style="stroke:#000000; stroke-linecap:round; stroke-linejoin:round; stroke-width:4; stroke-opacity:0.5; fill:none" points="382.448,1369.35 389.539,1369.35 389.539,1367.76 382.448,1367.76 382.448,1369.35 "></polyline>
<path clip-path="url(#clip202)" d="M389.539 1368.07 L396.619 1368.07 L396.619 1366.47 L389.539 1366.47 L389.539 1368.07 L389.539 1368.07  Z" fill="#009af9" fill-rule="evenodd" fill-opacity="0.5"></path>
<polyline clip-path="url(#clip202)" style="stroke:#000000; stroke-linecap:round; stroke-linejoin:round; stroke-width:4; stroke-opacity:0.5; fill:none" points="389.539,1368.07 396.619,1368.07 396.619,1366.47 389.539,1366.47 389.539,1368.07 "></polyline>
<path clip-path="url(#clip202)" d="M396.619 1366.78 L403.741 1366.78 L403.741 1365.16 L396.619 1365.16 L396.619 1366.78 L396.619 1366.78  Z" fill="#009af9" fill-rule="evenodd" fill-opacity="0.5"></path>
<polyline clip-path="url(#clip202)" style="stroke:#000000; stroke-linecap:round; stroke-linejoin:round; stroke-width:4; stroke-opacity:0.5; fill:none" points="396.619,1366.78 403.741,1366.78 403.741,1365.16 396.619,1365.16 396.619,1366.78 "></polyline>
<path clip-path="url(#clip202)" d="M403.741 1365.47 L410.953 1365.47 L410.953 1363.82 L403.741 1363.82 L403.741 1365.47 L403.741 1365.47  Z" fill="#009af9" fill-rule="evenodd" fill-opacity="0.5"></path>
<polyline clip-path="url(#clip202)" style="stroke:#000000; stroke-linecap:round; stroke-linejoin:round; stroke-width:4; stroke-opacity:0.5; fill:none" points="403.741,1365.47 410.953,1365.47 410.953,1363.82 403.741,1363.82 403.741,1365.47 "></polyline>
<path clip-path="url(#clip202)" d="M410.953 1364.14 L418.301 1364.14 L418.301 1362.44 L410.953 1362.44 L410.953 1364.14 L410.953 1364.14  Z" fill="#009af9" fill-rule="evenodd" fill-opacity="0.5"></path>
<polyline clip-path="url(#clip202)" style="stroke:#000000; stroke-linecap:round; stroke-linejoin:round; stroke-width:4; stroke-opacity:0.5; fill:none" points="410.953,1364.14 418.301,1364.14 418.301,1362.44 410.953,1362.44 410.953,1364.14 "></polyline>
<path clip-path="url(#clip202)" d="M418.301 1362.77 L425.841 1362.77 L425.841 1361.02 L418.301 1361.02 L418.301 1362.77 L418.301 1362.77  Z" fill="#009af9" fill-rule="evenodd" fill-opacity="0.5"></path>
<polyline clip-path="url(#clip202)" style="stroke:#000000; stroke-linecap:round; stroke-linejoin:round; stroke-width:4; stroke-opacity:0.5; fill:none" points="418.301,1362.77 425.841,1362.77 425.841,1361.02 418.301,1361.02 418.301,1362.77 "></polyline>
<path clip-path="url(#clip202)" d="M425.841 1361.35 L433.643 1361.35 L433.643 1359.53 L425.841 1359.53 L425.841 1361.35 L425.841 1361.35  Z" fill="#009af9" fill-rule="evenodd" fill-opacity="0.5"></path>
<polyline clip-path="url(#clip202)" style="stroke:#000000; stroke-linecap:round; stroke-linejoin:round; stroke-width:4; stroke-opacity:0.5; fill:none" points="425.841,1361.35 433.643,1361.35 433.643,1359.53 425.841,1359.53 425.841,1361.35 "></polyline>
<path clip-path="url(#clip202)" d="M433.643 1359.87 L441.611 1359.87 L441.611 1358 L433.643 1358 L433.643 1359.87 L433.643 1359.87  Z" fill="#009af9" fill-rule="evenodd" fill-opacity="0.5"></path>
<polyline clip-path="url(#clip202)" style="stroke:#000000; stroke-linecap:round; stroke-linejoin:round; stroke-width:4; stroke-opacity:0.5; fill:none" points="433.643,1359.87 441.611,1359.87 441.611,1358 433.643,1358 433.643,1359.87 "></polyline>
<path clip-path="url(#clip202)" d="M441.611 1358.34 L449.706 1358.34 L449.706 1356.43 L441.611 1356.43 L441.611 1358.34 L441.611 1358.34  Z" fill="#009af9" fill-rule="evenodd" fill-opacity="0.5"></path>
<polyline clip-path="url(#clip202)" style="stroke:#000000; stroke-linecap:round; stroke-linejoin:round; stroke-width:4; stroke-opacity:0.5; fill:none" points="441.611,1358.34 449.706,1358.34 449.706,1356.43 441.611,1356.43 441.611,1358.34 "></polyline>
<path clip-path="url(#clip202)" d="M449.706 1356.77 L457.972 1356.77 L457.972 1354.81 L449.706 1354.81 L449.706 1356.77 L449.706 1356.77  Z" fill="#009af9" fill-rule="evenodd" fill-opacity="0.5"></path>
<polyline clip-path="url(#clip202)" style="stroke:#000000; stroke-linecap:round; stroke-linejoin:round; stroke-width:4; stroke-opacity:0.5; fill:none" points="449.706,1356.77 457.972,1356.77 457.972,1354.81 449.706,1354.81 449.706,1356.77 "></polyline>
<path clip-path="url(#clip202)" d="M457.972 1355.16 L466.463 1355.16 L466.463 1353.13 L457.972 1353.13 L457.972 1355.16 L457.972 1355.16  Z" fill="#009af9" fill-rule="evenodd" fill-opacity="0.5"></path>
<polyline clip-path="url(#clip202)" style="stroke:#000000; stroke-linecap:round; stroke-linejoin:round; stroke-width:4; stroke-opacity:0.5; fill:none" points="457.972,1355.16 466.463,1355.16 466.463,1353.13 457.972,1353.13 457.972,1355.16 "></polyline>
<path clip-path="url(#clip202)" d="M466.463 1353.48 L475.25 1353.48 L475.25 1351.38 L466.463 1351.38 L466.463 1353.48 L466.463 1353.48  Z" fill="#009af9" fill-rule="evenodd" fill-opacity="0.5"></path>
<polyline clip-path="url(#clip202)" style="stroke:#000000; stroke-linecap:round; stroke-linejoin:round; stroke-width:4; stroke-opacity:0.5; fill:none" points="466.463,1353.48 475.25,1353.48 475.25,1351.38 466.463,1351.38 466.463,1353.48 "></polyline>
<path clip-path="url(#clip202)" d="M475.25 1351.73 L484.435 1351.73 L484.435 1349.52 L475.25 1349.52 L475.25 1351.73 L475.25 1351.73  Z" fill="#009af9" fill-rule="evenodd" fill-opacity="0.5"></path>
<polyline clip-path="url(#clip202)" style="stroke:#000000; stroke-linecap:round; stroke-linejoin:round; stroke-width:4; stroke-opacity:0.5; fill:none" points="475.25,1351.73 484.435,1351.73 484.435,1349.52 475.25,1349.52 475.25,1351.73 "></polyline>
<path clip-path="url(#clip202)" d="M484.435 1349.88 L493.864 1349.88 L493.864 1347.59 L484.435 1347.59 L484.435 1349.88 L484.435 1349.88  Z" fill="#009af9" fill-rule="evenodd" fill-opacity="0.5"></path>
<polyline clip-path="url(#clip202)" style="stroke:#000000; stroke-linecap:round; stroke-linejoin:round; stroke-width:4; stroke-opacity:0.5; fill:none" points="484.435,1349.88 493.864,1349.88 493.864,1347.59 484.435,1347.59 484.435,1349.88 "></polyline>
<path clip-path="url(#clip202)" d="M493.864 1347.96 L503.112 1347.96 L503.112 1345.69 L493.864 1345.69 L493.864 1347.96 L493.864 1347.96  Z" fill="#009af9" fill-rule="evenodd" fill-opacity="0.5"></path>
<polyline clip-path="url(#clip202)" style="stroke:#000000; stroke-linecap:round; stroke-linejoin:round; stroke-width:4; stroke-opacity:0.5; fill:none" points="493.864,1347.96 503.112,1347.96 503.112,1345.69 493.864,1345.69 493.864,1347.96 "></polyline>
<path clip-path="url(#clip202)" d="M503.112 1346.05 L512.314 1346.05 L512.314 1343.76 L503.112 1343.76 L503.112 1346.05 L503.112 1346.05  Z" fill="#009af9" fill-rule="evenodd" fill-opacity="0.5"></path>
<polyline clip-path="url(#clip202)" style="stroke:#000000; stroke-linecap:round; stroke-linejoin:round; stroke-width:4; stroke-opacity:0.5; fill:none" points="503.112,1346.05 512.314,1346.05 512.314,1343.76 503.112,1343.76 503.112,1346.05 "></polyline>
<path clip-path="url(#clip202)" d="M512.314 1344.14 L521.553 1344.14 L521.553 1341.81 L512.314 1341.81 L512.314 1344.14 L512.314 1344.14  Z" fill="#009af9" fill-rule="evenodd" fill-opacity="0.5"></path>
<polyline clip-path="url(#clip202)" style="stroke:#000000; stroke-linecap:round; stroke-linejoin:round; stroke-width:4; stroke-opacity:0.5; fill:none" points="512.314,1344.14 521.553,1344.14 521.553,1341.81 512.314,1341.81 512.314,1344.14 "></polyline>
<path clip-path="url(#clip202)" d="M521.553 1342.19 L530.887 1342.19 L530.887 1339.82 L521.553 1339.82 L521.553 1342.19 L521.553 1342.19  Z" fill="#009af9" fill-rule="evenodd" fill-opacity="0.5"></path>
<polyline clip-path="url(#clip202)" style="stroke:#000000; stroke-linecap:round; stroke-linejoin:round; stroke-width:4; stroke-opacity:0.5; fill:none" points="521.553,1342.19 530.887,1342.19 530.887,1339.82 521.553,1339.82 521.553,1342.19 "></polyline>
<path clip-path="url(#clip202)" d="M530.887 1340.21 L540.364 1340.21 L540.364 1337.78 L530.887 1337.78 L530.887 1340.21 L530.887 1340.21  Z" fill="#009af9" fill-rule="evenodd" fill-opacity="0.5"></path>
<polyline clip-path="url(#clip202)" style="stroke:#000000; stroke-linecap:round; stroke-linejoin:round; stroke-width:4; stroke-opacity:0.5; fill:none" points="530.887,1340.21 540.364,1340.21 540.364,1337.78 530.887,1337.78 530.887,1340.21 "></polyline>
<path clip-path="url(#clip202)" d="M540.364 1338.17 L550.029 1338.17 L550.029 1335.67 L540.364 1335.67 L540.364 1338.17 L540.364 1338.17  Z" fill="#009af9" fill-rule="evenodd" fill-opacity="0.5"></path>
<polyline clip-path="url(#clip202)" style="stroke:#000000; stroke-linecap:round; stroke-linejoin:round; stroke-width:4; stroke-opacity:0.5; fill:none" points="540.364,1338.17 550.029,1338.17 550.029,1335.67 540.364,1335.67 540.364,1338.17 "></polyline>
<path clip-path="url(#clip202)" d="M550.029 1336.07 L559.926 1336.07 L559.926 1333.49 L550.029 1333.49 L550.029 1336.07 L550.029 1336.07  Z" fill="#009af9" fill-rule="evenodd" fill-opacity="0.5"></path>
<polyline clip-path="url(#clip202)" style="stroke:#000000; stroke-linecap:round; stroke-linejoin:round; stroke-width:4; stroke-opacity:0.5; fill:none" points="550.029,1336.07 559.926,1336.07 559.926,1333.49 550.029,1333.49 550.029,1336.07 "></polyline>
<path clip-path="url(#clip202)" d="M559.926 1333.89 L570.101 1333.89 L570.101 1331.21 L559.926 1331.21 L559.926 1333.89 L559.926 1333.89  Z" fill="#009af9" fill-rule="evenodd" fill-opacity="0.5"></path>
<polyline clip-path="url(#clip202)" style="stroke:#000000; stroke-linecap:round; stroke-linejoin:round; stroke-width:4; stroke-opacity:0.5; fill:none" points="559.926,1333.89 570.101,1333.89 570.101,1331.21 559.926,1331.21 559.926,1333.89 "></polyline>
<path clip-path="url(#clip202)" d="M570.101 1331.62 L580.315 1331.62 L580.315 1328.91 L570.101 1328.91 L570.101 1331.62 L570.101 1331.62  Z" fill="#009af9" fill-rule="evenodd" fill-opacity="0.5"></path>
<polyline clip-path="url(#clip202)" style="stroke:#000000; stroke-linecap:round; stroke-linejoin:round; stroke-width:4; stroke-opacity:0.5; fill:none" points="570.101,1331.62 580.315,1331.62 580.315,1328.91 570.101,1328.91 570.101,1331.62 "></polyline>
<path clip-path="url(#clip202)" d="M580.315 1329.32 L590.61 1329.32 L590.61 1326.55 L580.315 1326.55 L580.315 1329.32 L580.315 1329.32  Z" fill="#009af9" fill-rule="evenodd" fill-opacity="0.5"></path>
<polyline clip-path="url(#clip202)" style="stroke:#000000; stroke-linecap:round; stroke-linejoin:round; stroke-width:4; stroke-opacity:0.5; fill:none" points="580.315,1329.32 590.61,1329.32 590.61,1326.55 580.315,1326.55 580.315,1329.32 "></polyline>
<path clip-path="url(#clip202)" d="M590.61 1326.97 L601.032 1326.97 L601.032 1324.14 L590.61 1324.14 L590.61 1326.97 L590.61 1326.97  Z" fill="#009af9" fill-rule="evenodd" fill-opacity="0.5"></path>
<polyline clip-path="url(#clip202)" style="stroke:#000000; stroke-linecap:round; stroke-linejoin:round; stroke-width:4; stroke-opacity:0.5; fill:none" points="590.61,1326.97 601.032,1326.97 601.032,1324.14 590.61,1324.14 590.61,1326.97 "></polyline>
<path clip-path="url(#clip202)" d="M601.032 1324.57 L611.617 1324.57 L611.617 1321.66 L601.032 1321.66 L601.032 1324.57 L601.032 1324.57  Z" fill="#009af9" fill-rule="evenodd" fill-opacity="0.5"></path>
<polyline clip-path="url(#clip202)" style="stroke:#000000; stroke-linecap:round; stroke-linejoin:round; stroke-width:4; stroke-opacity:0.5; fill:none" points="601.032,1324.57 611.617,1324.57 611.617,1321.66 601.032,1321.66 601.032,1324.57 "></polyline>
<path clip-path="url(#clip202)" d="M611.617 1322.09 L622.405 1322.09 L622.405 1319.1 L611.617 1319.1 L611.617 1322.09 L611.617 1322.09  Z" fill="#009af9" fill-rule="evenodd" fill-opacity="0.5"></path>
<polyline clip-path="url(#clip202)" style="stroke:#000000; stroke-linecap:round; stroke-linejoin:round; stroke-width:4; stroke-opacity:0.5; fill:none" points="611.617,1322.09 622.405,1322.09 622.405,1319.1 611.617,1319.1 611.617,1322.09 "></polyline>
<path clip-path="url(#clip202)" d="M622.405 1319.54 L633.431 1319.54 L633.431 1316.45 L622.405 1316.45 L622.405 1319.54 L622.405 1319.54  Z" fill="#009af9" fill-rule="evenodd" fill-opacity="0.5"></path>
<polyline clip-path="url(#clip202)" style="stroke:#000000; stroke-linecap:round; stroke-linejoin:round; stroke-width:4; stroke-opacity:0.5; fill:none" points="622.405,1319.54 633.431,1319.54 633.431,1316.45 622.405,1316.45 622.405,1319.54 "></polyline>
<path clip-path="url(#clip202)" d="M633.431 1316.9 L644.738 1316.9 L644.738 1313.69 L633.431 1313.69 L633.431 1316.9 L633.431 1316.9  Z" fill="#009af9" fill-rule="evenodd" fill-opacity="0.5"></path>
<polyline clip-path="url(#clip202)" style="stroke:#000000; stroke-linecap:round; stroke-linejoin:round; stroke-width:4; stroke-opacity:0.5; fill:none" points="633.431,1316.9 644.738,1316.9 644.738,1313.69 633.431,1313.69 633.431,1316.9 "></polyline>
<path clip-path="url(#clip202)" d="M644.738 1314.15 L656.369 1314.15 L656.369 1310.82 L644.738 1310.82 L644.738 1314.15 L644.738 1314.15  Z" fill="#009af9" fill-rule="evenodd" fill-opacity="0.5"></path>
<polyline clip-path="url(#clip202)" style="stroke:#000000; stroke-linecap:round; stroke-linejoin:round; stroke-width:4; stroke-opacity:0.5; fill:none" points="644.738,1314.15 656.369,1314.15 656.369,1310.82 644.738,1310.82 644.738,1314.15 "></polyline>
<path clip-path="url(#clip202)" d="M656.369 1311.29 L668.377 1311.29 L668.377 1307.82 L656.369 1307.82 L656.369 1311.29 L656.369 1311.29  Z" fill="#009af9" fill-rule="evenodd" fill-opacity="0.5"></path>
<polyline clip-path="url(#clip202)" style="stroke:#000000; stroke-linecap:round; stroke-linejoin:round; stroke-width:4; stroke-opacity:0.5; fill:none" points="656.369,1311.29 668.377,1311.29 668.377,1307.82 656.369,1307.82 656.369,1311.29 "></polyline>
<path clip-path="url(#clip202)" d="M668.377 1308.29 L680.823 1308.29 L680.823 1304.66 L668.377 1304.66 L668.377 1308.29 L668.377 1308.29  Z" fill="#009af9" fill-rule="evenodd" fill-opacity="0.5"></path>
<polyline clip-path="url(#clip202)" style="stroke:#000000; stroke-linecap:round; stroke-linejoin:round; stroke-width:4; stroke-opacity:0.5; fill:none" points="668.377,1308.29 680.823,1308.29 680.823,1304.66 668.377,1304.66 668.377,1308.29 "></polyline>
<path clip-path="url(#clip202)" d="M680.823 1305.14 L693.789 1305.14 L693.789 1301.32 L680.823 1301.32 L680.823 1305.14 L680.823 1305.14  Z" fill="#009af9" fill-rule="evenodd" fill-opacity="0.5"></path>
<polyline clip-path="url(#clip202)" style="stroke:#000000; stroke-linecap:round; stroke-linejoin:round; stroke-width:4; stroke-opacity:0.5; fill:none" points="680.823,1305.14 693.789,1305.14 693.789,1301.32 680.823,1301.32 680.823,1305.14 "></polyline>
<path clip-path="url(#clip202)" d="M693.789 1301.81 L707.382 1301.81 L707.382 1297.76 L693.789 1297.76 L693.789 1301.81 L693.789 1301.81  Z" fill="#009af9" fill-rule="evenodd" fill-opacity="0.5"></path>
<polyline clip-path="url(#clip202)" style="stroke:#000000; stroke-linecap:round; stroke-linejoin:round; stroke-width:4; stroke-opacity:0.5; fill:none" points="693.789,1301.81 707.382,1301.81 707.382,1297.76 693.789,1297.76 693.789,1301.81 "></polyline>
<path clip-path="url(#clip202)" d="M707.382 1298.26 L721.759 1298.26 L721.759 1293.93 L707.382 1293.93 L707.382 1298.26 L707.382 1298.26  Z" fill="#009af9" fill-rule="evenodd" fill-opacity="0.5"></path>
<polyline clip-path="url(#clip202)" style="stroke:#000000; stroke-linecap:round; stroke-linejoin:round; stroke-width:4; stroke-opacity:0.5; fill:none" points="707.382,1298.26 721.759,1298.26 721.759,1293.93 707.382,1293.93 707.382,1298.26 "></polyline>
<path clip-path="url(#clip202)" d="M721.759 1294.45 L737.189 1294.45 L737.189 1289.76 L721.759 1289.76 L721.759 1294.45 L721.759 1294.45  Z" fill="#009af9" fill-rule="evenodd" fill-opacity="0.5"></path>
<polyline clip-path="url(#clip202)" style="stroke:#000000; stroke-linecap:round; stroke-linejoin:round; stroke-width:4; stroke-opacity:0.5; fill:none" points="721.759,1294.45 737.189,1294.45 737.189,1289.76 721.759,1289.76 721.759,1294.45 "></polyline>
<path clip-path="url(#clip202)" d="M737.189 1290.28 L753.126 1290.28 L753.126 1285.36 L737.189 1285.36 L737.189 1290.28 L737.189 1290.28  Z" fill="#009af9" fill-rule="evenodd" fill-opacity="0.5"></path>
<polyline clip-path="url(#clip202)" style="stroke:#000000; stroke-linecap:round; stroke-linejoin:round; stroke-width:4; stroke-opacity:0.5; fill:none" points="737.189,1290.28 753.126,1290.28 753.126,1285.36 737.189,1285.36 737.189,1290.28 "></polyline>
<path clip-path="url(#clip202)" d="M753.126 1285.9 L769.252 1285.9 L769.252 1280.83 L753.126 1280.83 L753.126 1285.9 L753.126 1285.9  Z" fill="#009af9" fill-rule="evenodd" fill-opacity="0.5"></path>
<polyline clip-path="url(#clip202)" style="stroke:#000000; stroke-linecap:round; stroke-linejoin:round; stroke-width:4; stroke-opacity:0.5; fill:none" points="753.126,1285.9 769.252,1285.9 769.252,1280.83 753.126,1280.83 753.126,1285.9 "></polyline>
<path clip-path="url(#clip202)" d="M769.252 1281.38 L785.643 1281.38 L785.643 1276.14 L769.252 1276.14 L769.252 1281.38 L769.252 1281.38  Z" fill="#009af9" fill-rule="evenodd" fill-opacity="0.5"></path>
<polyline clip-path="url(#clip202)" style="stroke:#000000; stroke-linecap:round; stroke-linejoin:round; stroke-width:4; stroke-opacity:0.5; fill:none" points="769.252,1281.38 785.643,1281.38 785.643,1276.14 769.252,1276.14 769.252,1281.38 "></polyline>
<path clip-path="url(#clip202)" d="M785.643 1276.7 L802.364 1276.7 L802.364 1271.26 L785.643 1271.26 L785.643 1276.7 L785.643 1276.7  Z" fill="#009af9" fill-rule="evenodd" fill-opacity="0.5"></path>
<polyline clip-path="url(#clip202)" style="stroke:#000000; stroke-linecap:round; stroke-linejoin:round; stroke-width:4; stroke-opacity:0.5; fill:none" points="785.643,1276.7 802.364,1276.7 802.364,1271.26 785.643,1271.26 785.643,1276.7 "></polyline>
<path clip-path="url(#clip202)" d="M802.364 1271.83 L819.466 1271.83 L819.466 1266.16 L802.364 1266.16 L802.364 1271.83 L802.364 1271.83  Z" fill="#009af9" fill-rule="evenodd" fill-opacity="0.5"></path>
<polyline clip-path="url(#clip202)" style="stroke:#000000; stroke-linecap:round; stroke-linejoin:round; stroke-width:4; stroke-opacity:0.5; fill:none" points="802.364,1271.83 819.466,1271.83 819.466,1266.16 802.364,1266.16 802.364,1271.83 "></polyline>
<path clip-path="url(#clip202)" d="M819.466 1266.75 L837.002 1266.75 L837.002 1260.83 L819.466 1260.83 L819.466 1266.75 L819.466 1266.75  Z" fill="#009af9" fill-rule="evenodd" fill-opacity="0.5"></path>
<polyline clip-path="url(#clip202)" style="stroke:#000000; stroke-linecap:round; stroke-linejoin:round; stroke-width:4; stroke-opacity:0.5; fill:none" points="819.466,1266.75 837.002,1266.75 837.002,1260.83 819.466,1260.83 819.466,1266.75 "></polyline>
<path clip-path="url(#clip202)" d="M837.002 1261.44 L854.544 1261.44 L854.544 1255.39 L837.002 1255.39 L837.002 1261.44 L837.002 1261.44  Z" fill="#009af9" fill-rule="evenodd" fill-opacity="0.5"></path>
<polyline clip-path="url(#clip202)" style="stroke:#000000; stroke-linecap:round; stroke-linejoin:round; stroke-width:4; stroke-opacity:0.5; fill:none" points="837.002,1261.44 854.544,1261.44 854.544,1255.39 837.002,1255.39 837.002,1261.44 "></polyline>
<path clip-path="url(#clip202)" d="M854.544 1256.01 L872.171 1256.01 L872.171 1249.81 L854.544 1249.81 L854.544 1256.01 L854.544 1256.01  Z" fill="#009af9" fill-rule="evenodd" fill-opacity="0.5"></path>
<polyline clip-path="url(#clip202)" style="stroke:#000000; stroke-linecap:round; stroke-linejoin:round; stroke-width:4; stroke-opacity:0.5; fill:none" points="854.544,1256.01 872.171,1256.01 872.171,1249.81 854.544,1249.81 854.544,1256.01 "></polyline>
<path clip-path="url(#clip202)" d="M872.171 1250.45 L889.976 1250.45 L889.976 1244.06 L872.171 1244.06 L872.171 1250.45 L872.171 1250.45  Z" fill="#009af9" fill-rule="evenodd" fill-opacity="0.5"></path>
<polyline clip-path="url(#clip202)" style="stroke:#000000; stroke-linecap:round; stroke-linejoin:round; stroke-width:4; stroke-opacity:0.5; fill:none" points="872.171,1250.45 889.976,1250.45 889.976,1244.06 872.171,1244.06 872.171,1250.45 "></polyline>
<path clip-path="url(#clip202)" d="M889.976 1244.71 L908.028 1244.71 L908.028 1238.1 L889.976 1238.1 L889.976 1244.71 L889.976 1244.71  Z" fill="#009af9" fill-rule="evenodd" fill-opacity="0.5"></path>
<polyline clip-path="url(#clip202)" style="stroke:#000000; stroke-linecap:round; stroke-linejoin:round; stroke-width:4; stroke-opacity:0.5; fill:none" points="889.976,1244.71 908.028,1244.71 908.028,1238.1 889.976,1238.1 889.976,1244.71 "></polyline>
<path clip-path="url(#clip202)" d="M908.028 1238.77 L926.382 1238.77 L926.382 1231.91 L908.028 1231.91 L908.028 1238.77 L908.028 1238.77  Z" fill="#009af9" fill-rule="evenodd" fill-opacity="0.5"></path>
<polyline clip-path="url(#clip202)" style="stroke:#000000; stroke-linecap:round; stroke-linejoin:round; stroke-width:4; stroke-opacity:0.5; fill:none" points="908.028,1238.77 926.382,1238.77 926.382,1231.91 908.028,1231.91 908.028,1238.77 "></polyline>
<path clip-path="url(#clip202)" d="M926.382 1232.6 L945.088 1232.6 L945.088 1225.46 L926.382 1225.46 L926.382 1232.6 L926.382 1232.6  Z" fill="#009af9" fill-rule="evenodd" fill-opacity="0.5"></path>
<polyline clip-path="url(#clip202)" style="stroke:#000000; stroke-linecap:round; stroke-linejoin:round; stroke-width:4; stroke-opacity:0.5; fill:none" points="926.382,1232.6 945.088,1232.6 945.088,1225.46 926.382,1225.46 926.382,1232.6 "></polyline>
<path clip-path="url(#clip202)" d="M945.088 1226.17 L964.191 1226.17 L964.191 1218.74 L945.088 1218.74 L945.088 1226.17 L945.088 1226.17  Z" fill="#009af9" fill-rule="evenodd" fill-opacity="0.5"></path>
<polyline clip-path="url(#clip202)" style="stroke:#000000; stroke-linecap:round; stroke-linejoin:round; stroke-width:4; stroke-opacity:0.5; fill:none" points="945.088,1226.17 964.191,1226.17 964.191,1218.74 945.088,1218.74 945.088,1226.17 "></polyline>
<path clip-path="url(#clip202)" d="M964.191 1219.47 L983.734 1219.47 L983.734 1211.7 L964.191 1211.7 L964.191 1219.47 L964.191 1219.47  Z" fill="#009af9" fill-rule="evenodd" fill-opacity="0.5"></path>
<polyline clip-path="url(#clip202)" style="stroke:#000000; stroke-linecap:round; stroke-linejoin:round; stroke-width:4; stroke-opacity:0.5; fill:none" points="964.191,1219.47 983.734,1219.47 983.734,1211.7 964.191,1211.7 964.191,1219.47 "></polyline>
<path clip-path="url(#clip202)" d="M983.734 1212.45 L1003.76 1212.45 L1003.76 1204.31 L983.734 1204.31 L983.734 1212.45 L983.734 1212.45  Z" fill="#009af9" fill-rule="evenodd" fill-opacity="0.5"></path>
<polyline clip-path="url(#clip202)" style="stroke:#000000; stroke-linecap:round; stroke-linejoin:round; stroke-width:4; stroke-opacity:0.5; fill:none" points="983.734,1212.45 1003.76,1212.45 1003.76,1204.31 983.734,1204.31 983.734,1212.45 "></polyline>
<path clip-path="url(#clip202)" d="M1003.76 1205.09 L1024.31 1205.09 L1024.31 1196.55 L1003.76 1196.55 L1003.76 1205.09 L1003.76 1205.09  Z" fill="#009af9" fill-rule="evenodd" fill-opacity="0.5"></path>
<polyline clip-path="url(#clip202)" style="stroke:#000000; stroke-linecap:round; stroke-linejoin:round; stroke-width:4; stroke-opacity:0.5; fill:none" points="1003.76,1205.09 1024.31,1205.09 1024.31,1196.55 1003.76,1196.55 1003.76,1205.09 "></polyline>
<path clip-path="url(#clip202)" d="M1024.31 1197.35 L1045.44 1197.35 L1045.44 1188.38 L1024.31 1188.38 L1024.31 1197.35 L1024.31 1197.35  Z" fill="#009af9" fill-rule="evenodd" fill-opacity="0.5"></path>
<polyline clip-path="url(#clip202)" style="stroke:#000000; stroke-linecap:round; stroke-linejoin:round; stroke-width:4; stroke-opacity:0.5; fill:none" points="1024.31,1197.35 1045.44,1197.35 1045.44,1188.38 1024.31,1188.38 1024.31,1197.35 "></polyline>
<path clip-path="url(#clip202)" d="M1045.44 1189.2 L1067.18 1189.2 L1067.18 1179.76 L1045.44 1179.76 L1045.44 1189.2 L1045.44 1189.2  Z" fill="#009af9" fill-rule="evenodd" fill-opacity="0.5"></path>
<polyline clip-path="url(#clip202)" style="stroke:#000000; stroke-linecap:round; stroke-linejoin:round; stroke-width:4; stroke-opacity:0.5; fill:none" points="1045.44,1189.2 1067.18,1189.2 1067.18,1179.76 1045.44,1179.76 1045.44,1189.2 "></polyline>
<path clip-path="url(#clip202)" d="M1067.18 1180.61 L1089.6 1180.61 L1089.6 1170.64 L1067.18 1170.64 L1067.18 1180.61 L1067.18 1180.61  Z" fill="#009af9" fill-rule="evenodd" fill-opacity="0.5"></path>
<polyline clip-path="url(#clip202)" style="stroke:#000000; stroke-linecap:round; stroke-linejoin:round; stroke-width:4; stroke-opacity:0.5; fill:none" points="1067.18,1180.61 1089.6,1180.61 1089.6,1170.64 1067.18,1170.64 1067.18,1180.61 "></polyline>
<path clip-path="url(#clip202)" d="M1089.6 1171.51 L1112.73 1171.51 L1112.73 1160.97 L1089.6 1160.97 L1089.6 1171.51 L1089.6 1171.51  Z" fill="#009af9" fill-rule="evenodd" fill-opacity="0.5"></path>
<polyline clip-path="url(#clip202)" style="stroke:#000000; stroke-linecap:round; stroke-linejoin:round; stroke-width:4; stroke-opacity:0.5; fill:none" points="1089.6,1171.51 1112.73,1171.51 1112.73,1160.97 1089.6,1160.97 1089.6,1171.51 "></polyline>
<path clip-path="url(#clip202)" d="M1112.73 1161.87 L1136.65 1161.87 L1136.65 1150.7 L1112.73 1150.7 L1112.73 1161.87 L1112.73 1161.87  Z" fill="#009af9" fill-rule="evenodd" fill-opacity="0.5"></path>
<polyline clip-path="url(#clip202)" style="stroke:#000000; stroke-linecap:round; stroke-linejoin:round; stroke-width:4; stroke-opacity:0.5; fill:none" points="1112.73,1161.87 1136.65,1161.87 1136.65,1150.7 1112.73,1150.7 1112.73,1161.87 "></polyline>
<path clip-path="url(#clip202)" d="M1136.65 1151.63 L1161.42 1151.63 L1161.42 1139.75 L1136.65 1139.75 L1136.65 1151.63 L1136.65 1151.63  Z" fill="#009af9" fill-rule="evenodd" fill-opacity="0.5"></path>
<polyline clip-path="url(#clip202)" style="stroke:#000000; stroke-linecap:round; stroke-linejoin:round; stroke-width:4; stroke-opacity:0.5; fill:none" points="1136.65,1151.63 1161.42,1151.63 1161.42,1139.75 1136.65,1139.75 1136.65,1151.63 "></polyline>
<path clip-path="url(#clip202)" d="M1161.42 1140.72 L1187.12 1140.72 L1187.12 1128.06 L1161.42 1128.06 L1161.42 1140.72 L1161.42 1140.72  Z" fill="#009af9" fill-rule="evenodd" fill-opacity="0.5"></path>
<polyline clip-path="url(#clip202)" style="stroke:#000000; stroke-linecap:round; stroke-linejoin:round; stroke-width:4; stroke-opacity:0.5; fill:none" points="1161.42,1140.72 1187.12,1140.72 1187.12,1128.06 1161.42,1128.06 1161.42,1140.72 "></polyline>
<path clip-path="url(#clip202)" d="M1187.12 1129.06 L1213.81 1129.06 L1213.81 1115.54 L1187.12 1115.54 L1187.12 1129.06 L1187.12 1129.06  Z" fill="#009af9" fill-rule="evenodd" fill-opacity="0.5"></path>
<polyline clip-path="url(#clip202)" style="stroke:#000000; stroke-linecap:round; stroke-linejoin:round; stroke-width:4; stroke-opacity:0.5; fill:none" points="1187.12,1129.06 1213.81,1129.06 1213.81,1115.54 1187.12,1115.54 1187.12,1129.06 "></polyline>
<path clip-path="url(#clip202)" d="M1213.81 1116.58 L1241.6 1116.58 L1241.6 1102.08 L1213.81 1102.08 L1213.81 1116.58 L1213.81 1116.58  Z" fill="#009af9" fill-rule="evenodd" fill-opacity="0.5"></path>
<polyline clip-path="url(#clip202)" style="stroke:#000000; stroke-linecap:round; stroke-linejoin:round; stroke-width:4; stroke-opacity:0.5; fill:none" points="1213.81,1116.58 1241.6,1116.58 1241.6,1102.08 1213.81,1102.08 1213.81,1116.58 "></polyline>
<path clip-path="url(#clip202)" d="M1241.6 1103.16 L1270.58 1103.16 L1270.58 1087.57 L1241.6 1087.57 L1241.6 1103.16 L1241.6 1103.16  Z" fill="#009af9" fill-rule="evenodd" fill-opacity="0.5"></path>
<polyline clip-path="url(#clip202)" style="stroke:#000000; stroke-linecap:round; stroke-linejoin:round; stroke-width:4; stroke-opacity:0.5; fill:none" points="1241.6,1103.16 1270.58,1103.16 1270.58,1087.57 1241.6,1087.57 1241.6,1103.16 "></polyline>
<path clip-path="url(#clip202)" d="M1270.58 1088.7 L1300.88 1088.7 L1300.88 1071.87 L1270.58 1071.87 L1270.58 1088.7 L1270.58 1088.7  Z" fill="#009af9" fill-rule="evenodd" fill-opacity="0.5"></path>
<polyline clip-path="url(#clip202)" style="stroke:#000000; stroke-linecap:round; stroke-linejoin:round; stroke-width:4; stroke-opacity:0.5; fill:none" points="1270.58,1088.7 1300.88,1088.7 1300.88,1071.87 1270.58,1071.87 1270.58,1088.7 "></polyline>
<path clip-path="url(#clip202)" d="M1300.88 1073.05 L1332.62 1073.05 L1332.62 1054.81 L1300.88 1054.81 L1300.88 1073.05 L1300.88 1073.05  Z" fill="#009af9" fill-rule="evenodd" fill-opacity="0.5"></path>
<polyline clip-path="url(#clip202)" style="stroke:#000000; stroke-linecap:round; stroke-linejoin:round; stroke-width:4; stroke-opacity:0.5; fill:none" points="1300.88,1073.05 1332.62,1073.05 1332.62,1054.81 1300.88,1054.81 1300.88,1073.05 "></polyline>
<path clip-path="url(#clip202)" d="M1332.62 1056.04 L1365.98 1056.04 L1365.98 1036.19 L1332.62 1036.19 L1332.62 1056.04 L1332.62 1056.04  Z" fill="#009af9" fill-rule="evenodd" fill-opacity="0.5"></path>
<polyline clip-path="url(#clip202)" style="stroke:#000000; stroke-linecap:round; stroke-linejoin:round; stroke-width:4; stroke-opacity:0.5; fill:none" points="1332.62,1056.04 1365.98,1056.04 1365.98,1036.19 1332.62,1036.19 1332.62,1056.04 "></polyline>
<path clip-path="url(#clip202)" d="M1365.98 1037.49 L1401.12 1037.49 L1401.12 1015.78 L1365.98 1015.78 L1365.98 1037.49 L1365.98 1037.49  Z" fill="#009af9" fill-rule="evenodd" fill-opacity="0.5"></path>
<polyline clip-path="url(#clip202)" style="stroke:#000000; stroke-linecap:round; stroke-linejoin:round; stroke-width:4; stroke-opacity:0.5; fill:none" points="1365.98,1037.49 1401.12,1037.49 1401.12,1015.78 1365.98,1015.78 1365.98,1037.49 "></polyline>
<path clip-path="url(#clip202)" d="M1401.12 1017.14 L1438.28 1017.14 L1438.28 993.263 L1401.12 993.263 L1401.12 1017.14 L1401.12 1017.14  Z" fill="#009af9" fill-rule="evenodd" fill-opacity="0.5"></path>
<polyline clip-path="url(#clip202)" style="stroke:#000000; stroke-linecap:round; stroke-linejoin:round; stroke-width:4; stroke-opacity:0.5; fill:none" points="1401.12,1017.14 1438.28,1017.14 1438.28,993.263 1401.12,993.263 1401.12,1017.14 "></polyline>
<path clip-path="url(#clip202)" d="M1438.28 994.695 L1477.7 994.695 L1477.7 968.281 L1438.28 968.281 L1438.28 994.695 L1438.28 994.695  Z" fill="#009af9" fill-rule="evenodd" fill-opacity="0.5"></path>
<polyline clip-path="url(#clip202)" style="stroke:#000000; stroke-linecap:round; stroke-linejoin:round; stroke-width:4; stroke-opacity:0.5; fill:none" points="1438.28,994.695 1477.7,994.695 1477.7,968.281 1438.28,968.281 1438.28,994.695 "></polyline>
<path clip-path="url(#clip202)" d="M1477.7 969.794 L1519.72 969.794 L1519.72 940.363 L1477.7 940.363 L1477.7 969.794 L1477.7 969.794  Z" fill="#009af9" fill-rule="evenodd" fill-opacity="0.5"></path>
<polyline clip-path="url(#clip202)" style="stroke:#000000; stroke-linecap:round; stroke-linejoin:round; stroke-width:4; stroke-opacity:0.5; fill:none" points="1477.7,969.794 1519.72,969.794 1519.72,940.363 1477.7,940.363 1477.7,969.794 "></polyline>
<path clip-path="url(#clip202)" d="M1519.72 941.968 L1564.71 941.968 L1564.71 908.903 L1519.72 908.903 L1519.72 941.968 L1519.72 941.968  Z" fill="#009af9" fill-rule="evenodd" fill-opacity="0.5"></path>
<polyline clip-path="url(#clip202)" style="stroke:#000000; stroke-linecap:round; stroke-linejoin:round; stroke-width:4; stroke-opacity:0.5; fill:none" points="1519.72,941.968 1564.71,941.968 1564.71,908.903 1519.72,908.903 1519.72,941.968 "></polyline>
<path clip-path="url(#clip202)" d="M1564.71 910.613 L1612.99 910.613 L1612.99 873.258 L1564.71 873.258 L1564.71 910.613 L1564.71 910.613  Z" fill="#009af9" fill-rule="evenodd" fill-opacity="0.5"></path>
<polyline clip-path="url(#clip202)" style="stroke:#000000; stroke-linecap:round; stroke-linejoin:round; stroke-width:4; stroke-opacity:0.5; fill:none" points="1564.71,910.613 1612.99,910.613 1612.99,873.258 1564.71,873.258 1564.71,910.613 "></polyline>
<path clip-path="url(#clip202)" d="M1612.99 875.081 L1660.88 875.081 L1660.88 835.851 L1612.99 835.851 L1612.99 875.081 L1612.99 875.081  Z" fill="#009af9" fill-rule="evenodd" fill-opacity="0.5"></path>
<polyline clip-path="url(#clip202)" style="stroke:#000000; stroke-linecap:round; stroke-linejoin:round; stroke-width:4; stroke-opacity:0.5; fill:none" points="1612.99,875.081 1660.88,875.081 1660.88,835.851 1612.99,835.851 1612.99,875.081 "></polyline>
<path clip-path="url(#clip202)" d="M1660.88 837.795 L1708.39 837.795 L1708.39 796.614 L1660.88 796.614 L1660.88 837.795 L1660.88 837.795  Z" fill="#009af9" fill-rule="evenodd" fill-opacity="0.5"></path>
<polyline clip-path="url(#clip202)" style="stroke:#000000; stroke-linecap:round; stroke-linejoin:round; stroke-width:4; stroke-opacity:0.5; fill:none" points="1660.88,837.795 1708.39,837.795 1708.39,796.614 1660.88,796.614 1660.88,837.795 "></polyline>
<path clip-path="url(#clip202)" d="M1708.39 798.685 L1755.51 798.685 L1755.51 755.476 L1708.39 755.476 L1708.39 798.685 L1708.39 798.685  Z" fill="#009af9" fill-rule="evenodd" fill-opacity="0.5"></path>
<polyline clip-path="url(#clip202)" style="stroke:#000000; stroke-linecap:round; stroke-linejoin:round; stroke-width:4; stroke-opacity:0.5; fill:none" points="1708.39,798.685 1755.51,798.685 1755.51,755.476 1708.39,755.476 1708.39,798.685 "></polyline>
<path clip-path="url(#clip202)" d="M1755.51 757.681 L1802.26 757.681 L1802.26 712.363 L1755.51 712.363 L1755.51 757.681 L1755.51 757.681  Z" fill="#009af9" fill-rule="evenodd" fill-opacity="0.5"></path>
<polyline clip-path="url(#clip202)" style="stroke:#000000; stroke-linecap:round; stroke-linejoin:round; stroke-width:4; stroke-opacity:0.5; fill:none" points="1755.51,757.681 1802.26,757.681 1802.26,712.363 1755.51,712.363 1755.51,757.681 "></polyline>
<path clip-path="url(#clip202)" d="M1802.26 714.709 L1848.62 714.709 L1848.62 667.201 L1802.26 667.201 L1802.26 714.709 L1802.26 714.709  Z" fill="#009af9" fill-rule="evenodd" fill-opacity="0.5"></path>
<polyline clip-path="url(#clip202)" style="stroke:#000000; stroke-linecap:round; stroke-linejoin:round; stroke-width:4; stroke-opacity:0.5; fill:none" points="1802.26,714.709 1848.62,714.709 1848.62,667.201 1802.26,667.201 1802.26,714.709 "></polyline>
<path clip-path="url(#clip202)" d="M1848.62 669.696 L1894.6 669.696 L1894.6 619.914 L1848.62 619.914 L1848.62 669.696 L1848.62 669.696  Z" fill="#009af9" fill-rule="evenodd" fill-opacity="0.5"></path>
<polyline clip-path="url(#clip202)" style="stroke:#000000; stroke-linecap:round; stroke-linejoin:round; stroke-width:4; stroke-opacity:0.5; fill:none" points="1848.62,669.696 1894.6,669.696 1894.6,619.914 1848.62,619.914 1848.62,669.696 "></polyline>
<path clip-path="url(#clip202)" d="M1894.6 622.563 L1940.21 622.563 L1940.21 570.42 L1894.6 570.42 L1894.6 622.563 L1894.6 622.563  Z" fill="#009af9" fill-rule="evenodd" fill-opacity="0.5"></path>
<polyline clip-path="url(#clip202)" style="stroke:#000000; stroke-linecap:round; stroke-linejoin:round; stroke-width:4; stroke-opacity:0.5; fill:none" points="1894.6,622.563 1940.21,622.563 1940.21,570.42 1894.6,570.42 1894.6,622.563 "></polyline>
<path clip-path="url(#clip202)" d="M1940.21 573.234 L1985.45 573.234 L1985.45 518.641 L1940.21 518.641 L1940.21 573.234 L1940.21 573.234  Z" fill="#009af9" fill-rule="evenodd" fill-opacity="0.5"></path>
<polyline clip-path="url(#clip202)" style="stroke:#000000; stroke-linecap:round; stroke-linejoin:round; stroke-width:4; stroke-opacity:0.5; fill:none" points="1940.21,573.234 1985.45,573.234 1985.45,518.641 1940.21,518.641 1940.21,573.234 "></polyline>
<path clip-path="url(#clip202)" d="M1985.45 521.626 L2030.31 521.626 L2030.31 464.491 L1985.45 464.491 L1985.45 521.626 L1985.45 521.626  Z" fill="#009af9" fill-rule="evenodd" fill-opacity="0.5"></path>
<polyline clip-path="url(#clip202)" style="stroke:#000000; stroke-linecap:round; stroke-linejoin:round; stroke-width:4; stroke-opacity:0.5; fill:none" points="1985.45,521.626 2030.31,521.626 2030.31,464.491 1985.45,464.491 1985.45,521.626 "></polyline>
<path clip-path="url(#clip202)" d="M2030.31 467.656 L2074.8 467.656 L2074.8 407.884 L2030.31 407.884 L2030.31 467.656 L2030.31 467.656  Z" fill="#009af9" fill-rule="evenodd" fill-opacity="0.5"></path>
<polyline clip-path="url(#clip202)" style="stroke:#000000; stroke-linecap:round; stroke-linejoin:round; stroke-width:4; stroke-opacity:0.5; fill:none" points="2030.31,467.656 2074.8,467.656 2074.8,407.884 2030.31,407.884 2030.31,467.656 "></polyline>
<path clip-path="url(#clip202)" d="M2074.8 411.238 L2118.93 411.238 L2118.93 348.732 L2074.8 348.732 L2074.8 411.238 L2074.8 411.238  Z" fill="#009af9" fill-rule="evenodd" fill-opacity="0.5"></path>
<polyline clip-path="url(#clip202)" style="stroke:#000000; stroke-linecap:round; stroke-linejoin:round; stroke-width:4; stroke-opacity:0.5; fill:none" points="2074.8,411.238 2118.93,411.238 2118.93,348.732 2074.8,348.732 2074.8,411.238 "></polyline>
<path clip-path="url(#clip202)" d="M2118.93 352.284 L2162.7 352.284 L2162.7 286.941 L2118.93 286.941 L2118.93 352.284 L2118.93 352.284  Z" fill="#009af9" fill-rule="evenodd" fill-opacity="0.5"></path>
<polyline clip-path="url(#clip202)" style="stroke:#000000; stroke-linecap:round; stroke-linejoin:round; stroke-width:4; stroke-opacity:0.5; fill:none" points="2118.93,352.284 2162.7,352.284 2162.7,286.941 2118.93,286.941 2118.93,352.284 "></polyline>
<path clip-path="url(#clip202)" d="M2162.7 290.673 L2195.25 290.673 L2195.25 238.867 L2162.7 238.867 L2162.7 290.673 L2162.7 290.673  Z" fill="#009af9" fill-rule="evenodd" fill-opacity="0.5"></path>
<polyline clip-path="url(#clip202)" style="stroke:#000000; stroke-linecap:round; stroke-linejoin:round; stroke-width:4; stroke-opacity:0.5; fill:none" points="2162.7,290.673 2195.25,290.673 2195.25,238.867 2162.7,238.867 2162.7,290.673 "></polyline>
<path clip-path="url(#clip202)" d="M2195.25 242.76 L2227.61 242.76 L2227.61 189.218 L2195.25 189.218 L2195.25 242.76 L2195.25 242.76  Z" fill="#009af9" fill-rule="evenodd" fill-opacity="0.5"></path>
<polyline clip-path="url(#clip202)" style="stroke:#000000; stroke-linecap:round; stroke-linejoin:round; stroke-width:4; stroke-opacity:0.5; fill:none" points="2195.25,242.76 2227.61,242.76 2227.61,189.218 2195.25,189.218 2195.25,242.76 "></polyline>
<path clip-path="url(#clip202)" d="M2227.61 193.256 L2251.72 193.256 L2251.72 150.957 L2227.61 150.957 L2227.61 193.256 L2227.61 193.256  Z" fill="#009af9" fill-rule="evenodd" fill-opacity="0.5"></path>
<polyline clip-path="url(#clip202)" style="stroke:#000000; stroke-linecap:round; stroke-linejoin:round; stroke-width:4; stroke-opacity:0.5; fill:none" points="2227.61,193.256 2251.72,193.256 2251.72,150.957 2227.61,150.957 2227.61,193.256 "></polyline>
<path clip-path="url(#clip202)" d="M2251.72 155.106 L2269.72 155.106 L2269.72 121.675 L2251.72 121.675 L2251.72 155.106 L2251.72 155.106  Z" fill="#009af9" fill-rule="evenodd" fill-opacity="0.5"></path>
<polyline clip-path="url(#clip202)" style="stroke:#000000; stroke-linecap:round; stroke-linejoin:round; stroke-width:4; stroke-opacity:0.5; fill:none" points="2251.72,155.106 2269.72,155.106 2269.72,121.675 2251.72,121.675 2251.72,155.106 "></polyline>
<path clip-path="url(#clip202)" d="M2269.72 125.899 L2279.81 125.899 L2279.81 104.99 L2269.72 104.99 L2269.72 125.899 L2269.72 125.899  Z" fill="#009af9" fill-rule="evenodd" fill-opacity="0.5"></path>
<polyline clip-path="url(#clip202)" style="stroke:#000000; stroke-linecap:round; stroke-linejoin:round; stroke-width:4; stroke-opacity:0.5; fill:none" points="2269.72,125.899 2279.81,125.899 2279.81,104.99 2269.72,104.99 2269.72,125.899 "></polyline>
<path clip-path="url(#clip202)" d="M2279.81 109.256 L2285.48 109.256 L2285.48 95.5373 L2279.81 95.5373 L2279.81 109.256 L2279.81 109.256  Z" fill="#009af9" fill-rule="evenodd" fill-opacity="0.5"></path>
<polyline clip-path="url(#clip202)" style="stroke:#000000; stroke-linecap:round; stroke-linejoin:round; stroke-width:4; stroke-opacity:0.5; fill:none" points="2279.81,109.256 2285.48,109.256 2285.48,95.5373 2279.81,95.5373 2279.81,109.256 "></polyline>
<path clip-path="url(#clip202)" d="M2285.48 99.8277 L2288.66 99.8277 L2288.66 90.1994 L2285.48 90.1994 L2285.48 99.8277 L2285.48 99.8277  Z" fill="#009af9" fill-rule="evenodd" fill-opacity="0.5"></path>
<polyline clip-path="url(#clip202)" style="stroke:#000000; stroke-linecap:round; stroke-linejoin:round; stroke-width:4; stroke-opacity:0.5; fill:none" points="2285.48,99.8277 2288.66,99.8277 2288.66,90.1994 2285.48,90.1994 2285.48,99.8277 "></polyline>
<path clip-path="url(#clip202)" d="M2288.66 94.5052 L2291.04 94.5052 L2291.04 86.1857 L2288.66 86.1857 L2288.66 94.5052 L2288.66 94.5052  Z" fill="#009af9" fill-rule="evenodd" fill-opacity="0.5"></path>
<polyline clip-path="url(#clip202)" style="stroke:#000000; stroke-linecap:round; stroke-linejoin:round; stroke-width:4; stroke-opacity:0.5; fill:none" points="2288.66,94.5052 2291.04,94.5052 2291.04,86.1857 2288.66,86.1857 2288.66,94.5052 "></polyline>
</svg>