<svg xmlns="http://www.w3.org/2000/svg" xmlns:xlink="http://www.w3.org/1999/xlink" width="600" height="400" viewBox="0 0 2400 1600">
<defs>
  <clipPath id="clip280">
    <rect x="0" y="0" width="2400" height="1600"></rect>
  </clipPath>
</defs>
<path clip-path="url(#clip280)" d="M0 1600 L2400 1600 L2400 0 L0 0  Z" fill="#ffffff" fill-rule="evenodd" fill-opacity="1"></path>
<defs>
  <clipPath id="clip281">
    <rect x="480" y="0" width="1681" height="1600"></rect>
  </clipPath>
</defs>
<path clip-path="url(#clip280)" d="M399.865 1423.18 L2352.76 1423.18 L2352.76 123.472 L399.865 123.472  Z" fill="#ffffff" fill-rule="evenodd" fill-opacity="1"></path>
<defs>
  <clipPath id="clip282">
    <rect x="399" y="123" width="1954" height="1301"></rect>
  </clipPath>
</defs>
<polyline clip-path="url(#clip282)" style="stroke:#000000; stroke-linecap:round; stroke-linejoin:round; stroke-width:2; stroke-opacity:0.1; fill:none" points="455.136,1423.18 455.136,123.472 "></polyline>
<polyline clip-path="url(#clip282)" style="stroke:#000000; stroke-linecap:round; stroke-linejoin:round; stroke-width:2; stroke-opacity:0.1; fill:none" points="915.723,1423.18 915.723,123.472 "></polyline>
<polyline clip-path="url(#clip282)" style="stroke:#000000; stroke-linecap:round; stroke-linejoin:round; stroke-width:2; stroke-opacity:0.1; fill:none" points="1376.31,1423.18 1376.31,123.472 "></polyline>
<polyline clip-path="url(#clip282)" style="stroke:#000000; stroke-linecap:round; stroke-linejoin:round; stroke-width:2; stroke-opacity:0.1; fill:none" points="1836.9,1423.18 1836.9,123.472 "></polyline>
<polyline clip-path="url(#clip282)" style="stroke:#000000; stroke-linecap:round; stroke-linejoin:round; stroke-width:2; stroke-opacity:0.1; fill:none" points="2297.49,1423.18 2297.49,123.472 "></polyline>
<polyline clip-path="url(#clip280)" style="stroke:#000000; stroke-linecap:round; stroke-linejoin:round; stroke-width:4; stroke-opacity:1; fill:none" points="399.865,1423.18 2352.76,1423.18 "></polyline>
<polyline clip-path="url(#clip280)" style="stroke:#000000; stroke-linecap:round; stroke-linejoin:round; stroke-width:4; stroke-opacity:1; fill:none" points="455.136,1423.18 455.136,1404.28 "></polyline>
<polyline clip-path="url(#clip280)" style="stroke:#000000; stroke-linecap:round; stroke-linejoin:round; stroke-width:4; stroke-opacity:1; fill:none" points="915.723,1423.18 915.723,1404.28 "></polyline>
<polyline clip-path="url(#clip280)" style="stroke:#000000; stroke-linecap:round; stroke-linejoin:round; stroke-width:4; stroke-opacity:1; fill:none" points="1376.31,1423.18 1376.31,1404.28 "></polyline>
<polyline clip-path="url(#clip280)" style="stroke:#000000; stroke-linecap:round; stroke-linejoin:round; stroke-width:4; stroke-opacity:1; fill:none" points="1836.9,1423.18 1836.9,1404.28 "></polyline>
<polyline clip-path="url(#clip280)" style="stroke:#000000; stroke-linecap:round; stroke-linejoin:round; stroke-width:4; stroke-opacity:1; fill:none" points="2297.49,1423.18 2297.49,1404.28 "></polyline>
<path clip-path="url(#clip280)" d="M455.136 1454.1 Q451.525 1454.1 449.696 1457.66 Q447.89 1461.2 447.89 1468.33 Q447.89 1475.44 449.696 1479.01 Q451.525 1482.55 455.136 1482.55 Q458.77 1482.55 460.576 1479.01 Q462.404 1475.44 462.404 1468.33 Q462.404 1461.2 460.576 1457.66 Q458.77 1454.1 455.136 1454.1 M455.136 1450.39 Q460.946 1450.39 464.001 1455 Q467.08 1459.58 467.08 1468.33 Q467.08 1477.06 464.001 1481.67 Q460.946 1486.25 455.136 1486.25 Q449.326 1486.25 446.247 1481.67 Q443.191 1477.06 443.191 1468.33 Q443.191 1459.58 446.247 1455 Q449.326 1450.39 455.136 1450.39 Z" fill="#000000" fill-rule="nonzero" fill-opacity="1"></path><path clip-path="url(#clip280)" d="M906.105 1481.64 L913.744 1481.64 L913.744 1455.28 L905.434 1456.95 L905.434 1452.69 L913.698 1451.02 L918.374 1451.02 L918.374 1481.64 L926.012 1481.64 L926.012 1485.58 L906.105 1485.58 L906.105 1481.64 Z" fill="#000000" fill-rule="nonzero" fill-opacity="1"></path><path clip-path="url(#clip280)" d="M1370.96 1481.64 L1387.28 1481.64 L1387.28 1485.58 L1365.34 1485.58 L1365.34 1481.64 Q1368 1478.89 1372.58 1474.26 Q1377.19 1469.61 1378.37 1468.27 Q1380.62 1465.74 1381.5 1464.01 Q1382.4 1462.25 1382.4 1460.56 Q1382.4 1457.8 1380.45 1456.07 Q1378.53 1454.33 1375.43 1454.33 Q1373.23 1454.33 1370.78 1455.09 Q1368.35 1455.86 1365.57 1457.41 L1365.57 1452.69 Q1368.39 1451.55 1370.85 1450.97 Q1373.3 1450.39 1375.34 1450.39 Q1380.71 1450.39 1383.9 1453.08 Q1387.1 1455.77 1387.1 1460.26 Q1387.1 1462.39 1386.29 1464.31 Q1385.5 1466.2 1383.39 1468.8 Q1382.82 1469.47 1379.71 1472.69 Q1376.61 1475.88 1370.96 1481.64 Z" fill="#000000" fill-rule="nonzero" fill-opacity="1"></path><path clip-path="url(#clip280)" d="M1841.15 1466.95 Q1844.5 1467.66 1846.38 1469.93 Q1848.28 1472.2 1848.28 1475.53 Q1848.28 1480.65 1844.76 1483.45 Q1841.24 1486.25 1834.76 1486.25 Q1832.58 1486.25 1830.27 1485.81 Q1827.97 1485.39 1825.52 1484.54 L1825.52 1480.02 Q1827.47 1481.16 1829.78 1481.74 Q1832.09 1482.32 1834.62 1482.32 Q1839.02 1482.32 1841.31 1480.58 Q1843.62 1478.84 1843.62 1475.53 Q1843.62 1472.48 1841.47 1470.77 Q1839.34 1469.03 1835.52 1469.03 L1831.49 1469.03 L1831.49 1465.19 L1835.71 1465.19 Q1839.15 1465.19 1840.98 1463.82 Q1842.81 1462.43 1842.81 1459.84 Q1842.81 1457.18 1840.91 1455.77 Q1839.04 1454.33 1835.52 1454.33 Q1833.6 1454.33 1831.4 1454.75 Q1829.2 1455.16 1826.56 1456.04 L1826.56 1451.88 Q1829.22 1451.14 1831.54 1450.77 Q1833.88 1450.39 1835.94 1450.39 Q1841.26 1450.39 1844.36 1452.83 Q1847.47 1455.23 1847.47 1459.35 Q1847.47 1462.22 1845.82 1464.21 Q1844.18 1466.18 1841.15 1466.95 Z" fill="#000000" fill-rule="nonzero" fill-opacity="1"></path><path clip-path="url(#clip280)" d="M2300.49 1455.09 L2288.69 1473.54 L2300.49 1473.54 L2300.49 1455.09 M2299.27 1451.02 L2305.15 1451.02 L2305.15 1473.54 L2310.08 1473.54 L2310.08 1477.43 L2305.15 1477.43 L2305.15 1485.58 L2300.49 1485.58 L2300.49 1477.43 L2284.89 1477.43 L2284.89 1472.92 L2299.27 1451.02 Z" fill="#000000" fill-rule="nonzero" fill-opacity="1"></path><path clip-path="url(#clip280)" d="M1298.19 1520.52 L1338.39 1520.52 L1338.39 1525.93 L1321.52 1525.93 L1321.52 1568.04 L1315.06 1568.04 L1315.06 1525.93 L1298.19 1525.93 L1298.19 1520.52 Z" fill="#000000" fill-rule="nonzero" fill-opacity="1"></path><path clip-path="url(#clip280)" d="M1342.33 1532.4 L1348.19 1532.4 L1348.19 1568.04 L1342.33 1568.04 L1342.33 1532.4 M1342.33 1518.52 L1348.19 1518.52 L1348.19 1525.93 L1342.33 1525.93 L1342.33 1518.52 Z" fill="#000000" fill-rule="nonzero" fill-opacity="1"></path><path clip-path="url(#clip280)" d="M1388.2 1539.24 Q1390.39 1535.29 1393.45 1533.41 Q1396.51 1531.54 1400.64 1531.54 Q1406.21 1531.54 1409.24 1535.45 Q1412.26 1539.33 1412.26 1546.53 L1412.26 1568.04 L1406.37 1568.04 L1406.37 1546.72 Q1406.37 1541.59 1404.56 1539.11 Q1402.74 1536.63 1399.02 1536.63 Q1394.47 1536.63 1391.83 1539.65 Q1389.19 1542.68 1389.19 1547.9 L1389.19 1568.04 L1383.3 1568.04 L1383.3 1546.72 Q1383.3 1541.56 1381.48 1539.11 Q1379.67 1536.63 1375.88 1536.63 Q1371.39 1536.63 1368.75 1539.68 Q1366.11 1542.71 1366.11 1547.9 L1366.11 1568.04 L1360.22 1568.04 L1360.22 1532.4 L1366.11 1532.4 L1366.11 1537.93 Q1368.11 1534.66 1370.92 1533.1 Q1373.72 1531.54 1377.57 1531.54 Q1381.45 1531.54 1384.16 1533.51 Q1386.89 1535.48 1388.2 1539.24 Z" fill="#000000" fill-rule="nonzero" fill-opacity="1"></path><path clip-path="url(#clip280)" d="M1454.43 1548.76 L1454.43 1551.62 L1427.51 1551.62 Q1427.89 1557.67 1431.14 1560.85 Q1434.41 1564 1440.24 1564 Q1443.61 1564 1446.76 1563.17 Q1449.95 1562.35 1453.07 1560.69 L1453.07 1566.23 Q1449.91 1567.57 1446.6 1568.27 Q1443.29 1568.97 1439.89 1568.97 Q1431.36 1568.97 1426.36 1564 Q1421.4 1559.04 1421.4 1550.57 Q1421.4 1541.82 1426.11 1536.69 Q1430.85 1531.54 1438.87 1531.54 Q1446.06 1531.54 1450.23 1536.18 Q1454.43 1540.8 1454.43 1548.76 M1448.58 1547.04 Q1448.51 1542.23 1445.87 1539.37 Q1443.26 1536.5 1438.93 1536.5 Q1434.03 1536.5 1431.07 1539.27 Q1428.14 1542.04 1427.7 1547.07 L1448.58 1547.04 Z" fill="#000000" fill-rule="nonzero" fill-opacity="1"></path><polyline clip-path="url(#clip282)" style="stroke:#000000; stroke-linecap:round; stroke-linejoin:round; stroke-width:2; stroke-opacity:0.1; fill:none" points="399.865,1386.35 2352.76,1386.35 "></polyline>
<polyline clip-path="url(#clip282)" style="stroke:#000000; stroke-linecap:round; stroke-linejoin:round; stroke-width:2; stroke-opacity:0.1; fill:none" points="399.865,1165.79 2352.76,1165.79 "></polyline>
<polyline clip-path="url(#clip282)" style="stroke:#000000; stroke-linecap:round; stroke-linejoin:round; stroke-width:2; stroke-opacity:0.1; fill:none" points="399.865,945.219 2352.76,945.219 "></polyline>
<polyline clip-path="url(#clip282)" style="stroke:#000000; stroke-linecap:round; stroke-linejoin:round; stroke-width:2; stroke-opacity:0.1; fill:none" points="399.865,724.653 2352.76,724.653 "></polyline>
<polyline clip-path="url(#clip282)" style="stroke:#000000; stroke-linecap:round; stroke-linejoin:round; stroke-width:2; stroke-opacity:0.1; fill:none" points="399.865,504.087 2352.76,504.087 "></polyline>
<polyline clip-path="url(#clip282)" style="stroke:#000000; stroke-linecap:round; stroke-linejoin:round; stroke-width:2; stroke-opacity:0.1; fill:none" points="399.865,283.521 2352.76,283.521 "></polyline>
<polyline clip-path="url(#clip280)" style="stroke:#000000; stroke-linecap:round; stroke-linejoin:round; stroke-width:4; stroke-opacity:1; fill:none" points="399.865,1423.18 399.865,123.472 "></polyline>
<polyline clip-path="url(#clip280)" style="stroke:#000000; stroke-linecap:round; stroke-linejoin:round; stroke-width:4; stroke-opacity:1; fill:none" points="399.865,1386.35 418.763,1386.35 "></polyline>
<polyline clip-path="url(#clip280)" style="stroke:#000000; stroke-linecap:round; stroke-linejoin:round; stroke-width:4; stroke-opacity:1; fill:none" points="399.865,1165.79 418.763,1165.79 "></polyline>
<polyline clip-path="url(#clip280)" style="stroke:#000000; stroke-linecap:round; stroke-linejoin:round; stroke-width:4; stroke-opacity:1; fill:none" points="399.865,945.219 418.763,945.219 "></polyline>
<polyline clip-path="url(#clip280)" style="stroke:#000000; stroke-linecap:round; stroke-linejoin:round; stroke-width:4; stroke-opacity:1; fill:none" points="399.865,724.653 418.763,724.653 "></polyline>
<polyline clip-path="url(#clip280)" style="stroke:#000000; stroke-linecap:round; stroke-linejoin:round; stroke-width:4; stroke-opacity:1; fill:none" points="399.865,504.087 418.763,504.087 "></polyline>
<polyline clip-path="url(#clip280)" style="stroke:#000000; stroke-linecap:round; stroke-linejoin:round; stroke-width:4; stroke-opacity:1; fill:none" points="399.865,283.521 418.763,283.521 "></polyline>
<path clip-path="url(#clip280)" d="M351.921 1372.15 Q348.31 1372.15 346.481 1375.72 Q344.676 1379.26 344.676 1386.39 Q344.676 1393.49 346.481 1397.06 Q348.31 1400.6 351.921 1400.6 Q355.555 1400.6 357.361 1397.06 Q359.189 1393.49 359.189 1386.39 Q359.189 1379.26 357.361 1375.72 Q355.555 1372.15 351.921 1372.15 M351.921 1368.45 Q357.731 1368.45 360.787 1373.05 Q363.865 1377.64 363.865 1386.39 Q363.865 1395.11 360.787 1399.72 Q357.731 1404.3 351.921 1404.3 Q346.111 1404.3 343.032 1399.72 Q339.977 1395.11 339.977 1386.39 Q339.977 1377.64 343.032 1373.05 Q346.111 1368.45 351.921 1368.45 Z" fill="#000000" fill-rule="nonzero" fill-opacity="1"></path><path clip-path="url(#clip280)" d="M119.885 1185.58 L136.204 1185.58 L136.204 1189.51 L114.26 1189.51 L114.26 1185.58 Q116.922 1182.82 121.505 1178.19 Q126.112 1173.54 127.292 1172.2 Q129.538 1169.68 130.417 1167.94 Q131.32 1166.18 131.32 1164.49 Q131.32 1161.74 129.376 1160 Q127.455 1158.26 124.353 1158.26 Q122.154 1158.26 119.7 1159.03 Q117.269 1159.79 114.492 1161.34 L114.492 1156.62 Q117.316 1155.49 119.769 1154.91 Q122.223 1154.33 124.26 1154.33 Q129.63 1154.33 132.825 1157.01 Q136.019 1159.7 136.019 1164.19 Q136.019 1166.32 135.209 1168.24 Q134.422 1170.14 132.316 1172.73 Q131.737 1173.4 128.635 1176.62 Q125.533 1179.81 119.885 1185.58 Z" fill="#000000" fill-rule="nonzero" fill-opacity="1"></path><path clip-path="url(#clip280)" d="M146.019 1183.63 L150.903 1183.63 L150.903 1189.51 L146.019 1189.51 L146.019 1183.63 Z" fill="#000000" fill-rule="nonzero" fill-opacity="1"></path><path clip-path="url(#clip280)" d="M161.135 1154.95 L179.491 1154.95 L179.491 1158.89 L165.417 1158.89 L165.417 1167.36 Q166.436 1167.01 167.454 1166.85 Q168.473 1166.67 169.491 1166.67 Q175.278 1166.67 178.658 1169.84 Q182.038 1173.01 182.038 1178.43 Q182.038 1184 178.565 1187.11 Q175.093 1190.18 168.774 1190.18 Q166.598 1190.18 164.329 1189.81 Q162.084 1189.44 159.677 1188.7 L159.677 1184 Q161.76 1185.14 163.982 1185.69 Q166.204 1186.25 168.681 1186.25 Q172.686 1186.25 175.024 1184.14 Q177.362 1182.04 177.362 1178.43 Q177.362 1174.81 175.024 1172.71 Q172.686 1170.6 168.681 1170.6 Q166.806 1170.6 164.931 1171.02 Q163.079 1171.43 161.135 1172.31 L161.135 1154.95 Z" fill="#000000" fill-rule="nonzero" fill-opacity="1"></path><path clip-path="url(#clip280)" d="M201.25 1158.03 Q197.639 1158.03 195.811 1161.6 Q194.005 1165.14 194.005 1172.27 Q194.005 1179.37 195.811 1182.94 Q197.639 1186.48 201.25 1186.48 Q204.885 1186.48 206.69 1182.94 Q208.519 1179.37 208.519 1172.27 Q208.519 1165.14 206.69 1161.6 Q204.885 1158.03 201.25 1158.03 M201.25 1154.33 Q207.061 1154.33 210.116 1158.93 Q213.195 1163.52 213.195 1172.27 Q213.195 1180.99 210.116 1185.6 Q207.061 1190.18 201.25 1190.18 Q195.44 1190.18 192.362 1185.6 Q189.306 1180.99 189.306 1172.27 Q189.306 1163.52 192.362 1158.93 Q195.44 1154.33 201.25 1154.33 Z" fill="#000000" fill-rule="nonzero" fill-opacity="1"></path><path clip-path="url(#clip280)" d="M231.412 1158.03 Q227.801 1158.03 225.973 1161.6 Q224.167 1165.14 224.167 1172.27 Q224.167 1179.37 225.973 1182.94 Q227.801 1186.48 231.412 1186.48 Q235.047 1186.48 236.852 1182.94 Q238.681 1179.37 238.681 1172.27 Q238.681 1165.14 236.852 1161.6 Q235.047 1158.03 231.412 1158.03 M231.412 1154.33 Q237.222 1154.33 240.278 1158.93 Q243.357 1163.52 243.357 1172.27 Q243.357 1180.99 240.278 1185.6 Q237.222 1190.18 231.412 1190.18 Q225.602 1190.18 222.523 1185.6 Q219.468 1180.99 219.468 1172.27 Q219.468 1163.52 222.523 1158.93 Q225.602 1154.33 231.412 1154.33 Z" fill="#000000" fill-rule="nonzero" fill-opacity="1"></path><path clip-path="url(#clip280)" d="M279.745 1164.05 L269.167 1174.68 L279.745 1185.25 L276.991 1188.05 L266.366 1177.43 L255.741 1188.05 L253.009 1185.25 L263.565 1174.68 L253.009 1164.05 L255.741 1161.25 L266.366 1171.87 L276.991 1161.25 L279.745 1164.05 Z" fill="#000000" fill-rule="nonzero" fill-opacity="1"></path><path clip-path="url(#clip280)" d="M292.106 1185.58 L299.745 1185.58 L299.745 1159.21 L291.435 1160.88 L291.435 1156.62 L299.699 1154.95 L304.375 1154.95 L304.375 1185.58 L312.014 1185.58 L312.014 1189.51 L292.106 1189.51 L292.106 1185.58 Z" fill="#000000" fill-rule="nonzero" fill-opacity="1"></path><path clip-path="url(#clip280)" d="M331.458 1158.03 Q327.847 1158.03 326.018 1161.6 Q324.213 1165.14 324.213 1172.27 Q324.213 1179.37 326.018 1182.94 Q327.847 1186.48 331.458 1186.48 Q335.092 1186.48 336.898 1182.94 Q338.727 1179.37 338.727 1172.27 Q338.727 1165.14 336.898 1161.6 Q335.092 1158.03 331.458 1158.03 M331.458 1154.33 Q337.268 1154.33 340.324 1158.93 Q343.402 1163.52 343.402 1172.27 Q343.402 1180.99 340.324 1185.6 Q337.268 1190.18 331.458 1190.18 Q325.648 1190.18 322.569 1185.6 Q319.514 1180.99 319.514 1172.27 Q319.514 1163.52 322.569 1158.93 Q325.648 1154.33 331.458 1154.33 Z" fill="#000000" fill-rule="nonzero" fill-opacity="1"></path><path clip-path="url(#clip280)" d="M356.079 1137.33 L346.487 1152.32 L356.079 1152.32 L356.079 1137.33 M355.082 1134.02 L359.859 1134.02 L359.859 1152.32 L363.865 1152.32 L363.865 1155.48 L359.859 1155.48 L359.859 1162.1 L356.079 1162.1 L356.079 1155.48 L343.402 1155.48 L343.402 1151.81 L355.082 1134.02 Z" fill="#000000" fill-rule="nonzero" fill-opacity="1"></path><path clip-path="url(#clip280)" d="M115.904 934.387 L134.26 934.387 L134.26 938.322 L120.186 938.322 L120.186 946.794 Q121.205 946.447 122.223 946.285 Q123.242 946.1 124.26 946.1 Q130.047 946.1 133.427 949.271 Q136.806 952.442 136.806 957.859 Q136.806 963.438 133.334 966.539 Q129.862 969.618 123.543 969.618 Q121.367 969.618 119.098 969.248 Q116.853 968.877 114.445 968.137 L114.445 963.438 Q116.529 964.572 118.751 965.127 Q120.973 965.683 123.45 965.683 Q127.455 965.683 129.792 963.576 Q132.13 961.47 132.13 957.859 Q132.13 954.248 129.792 952.141 Q127.455 950.035 123.45 950.035 Q121.575 950.035 119.7 950.452 Q117.848 950.868 115.904 951.748 L115.904 934.387 Z" fill="#000000" fill-rule="nonzero" fill-opacity="1"></path><path clip-path="url(#clip280)" d="M146.019 963.067 L150.903 963.067 L150.903 968.947 L146.019 968.947 L146.019 963.067 Z" fill="#000000" fill-rule="nonzero" fill-opacity="1"></path><path clip-path="url(#clip280)" d="M171.089 937.465 Q167.477 937.465 165.649 941.03 Q163.843 944.572 163.843 951.702 Q163.843 958.808 165.649 962.373 Q167.477 965.914 171.089 965.914 Q174.723 965.914 176.528 962.373 Q178.357 958.808 178.357 951.702 Q178.357 944.572 176.528 941.03 Q174.723 937.465 171.089 937.465 M171.089 933.762 Q176.899 933.762 179.954 938.368 Q183.033 942.952 183.033 951.702 Q183.033 960.428 179.954 965.035 Q176.899 969.618 171.089 969.618 Q165.278 969.618 162.2 965.035 Q159.144 960.428 159.144 951.702 Q159.144 942.952 162.2 938.368 Q165.278 933.762 171.089 933.762 Z" fill="#000000" fill-rule="nonzero" fill-opacity="1"></path><path clip-path="url(#clip280)" d="M201.25 937.465 Q197.639 937.465 195.811 941.03 Q194.005 944.572 194.005 951.702 Q194.005 958.808 195.811 962.373 Q197.639 965.914 201.25 965.914 Q204.885 965.914 206.69 962.373 Q208.519 958.808 208.519 951.702 Q208.519 944.572 206.69 941.03 Q204.885 937.465 201.25 937.465 M201.25 933.762 Q207.061 933.762 210.116 938.368 Q213.195 942.952 213.195 951.702 Q213.195 960.428 210.116 965.035 Q207.061 969.618 201.25 969.618 Q195.44 969.618 192.362 965.035 Q189.306 960.428 189.306 951.702 Q189.306 942.952 192.362 938.368 Q195.44 933.762 201.25 933.762 Z" fill="#000000" fill-rule="nonzero" fill-opacity="1"></path><path clip-path="url(#clip280)" d="M231.412 937.465 Q227.801 937.465 225.973 941.03 Q224.167 944.572 224.167 951.702 Q224.167 958.808 225.973 962.373 Q227.801 965.914 231.412 965.914 Q235.047 965.914 236.852 962.373 Q238.681 958.808 238.681 951.702 Q238.681 944.572 236.852 941.03 Q235.047 937.465 231.412 937.465 M231.412 933.762 Q237.222 933.762 240.278 938.368 Q243.357 942.952 243.357 951.702 Q243.357 960.428 240.278 965.035 Q237.222 969.618 231.412 969.618 Q225.602 969.618 222.523 965.035 Q219.468 960.428 219.468 951.702 Q219.468 942.952 222.523 938.368 Q225.602 933.762 231.412 933.762 Z" fill="#000000" fill-rule="nonzero" fill-opacity="1"></path><path clip-path="url(#clip280)" d="M279.745 943.484 L269.167 954.109 L279.745 964.688 L276.991 967.488 L266.366 956.864 L255.741 967.488 L253.009 964.688 L263.565 954.109 L253.009 943.484 L255.741 940.683 L266.366 951.308 L276.991 940.683 L279.745 943.484 Z" fill="#000000" fill-rule="nonzero" fill-opacity="1"></path><path clip-path="url(#clip280)" d="M292.106 965.012 L299.745 965.012 L299.745 938.646 L291.435 940.313 L291.435 936.053 L299.699 934.387 L304.375 934.387 L304.375 965.012 L312.014 965.012 L312.014 968.947 L292.106 968.947 L292.106 965.012 Z" fill="#000000" fill-rule="nonzero" fill-opacity="1"></path><path clip-path="url(#clip280)" d="M331.458 937.465 Q327.847 937.465 326.018 941.03 Q324.213 944.572 324.213 951.702 Q324.213 958.808 326.018 962.373 Q327.847 965.914 331.458 965.914 Q335.092 965.914 336.898 962.373 Q338.727 958.808 338.727 951.702 Q338.727 944.572 336.898 941.03 Q335.092 937.465 331.458 937.465 M331.458 933.762 Q337.268 933.762 340.324 938.368 Q343.402 942.952 343.402 951.702 Q343.402 960.428 340.324 965.035 Q337.268 969.618 331.458 969.618 Q325.648 969.618 322.569 965.035 Q319.514 960.428 319.514 951.702 Q319.514 942.952 322.569 938.368 Q325.648 933.762 331.458 933.762 Z" fill="#000000" fill-rule="nonzero" fill-opacity="1"></path><path clip-path="url(#clip280)" d="M356.079 916.767 L346.487 931.756 L356.079 931.756 L356.079 916.767 M355.082 913.456 L359.859 913.456 L359.859 931.756 L363.865 931.756 L363.865 934.916 L359.859 934.916 L359.859 941.536 L356.079 941.536 L356.079 934.916 L343.402 934.916 L343.402 931.249 L355.082 913.456 Z" fill="#000000" fill-rule="nonzero" fill-opacity="1"></path><path clip-path="url(#clip280)" d="M114.677 713.821 L136.899 713.821 L136.899 715.811 L124.353 748.381 L119.468 748.381 L131.274 717.756 L114.677 717.756 L114.677 713.821 Z" fill="#000000" fill-rule="nonzero" fill-opacity="1"></path><path clip-path="url(#clip280)" d="M146.019 742.501 L150.903 742.501 L150.903 748.381 L146.019 748.381 L146.019 742.501 Z" fill="#000000" fill-rule="nonzero" fill-opacity="1"></path><path clip-path="url(#clip280)" d="M161.135 713.821 L179.491 713.821 L179.491 717.756 L165.417 717.756 L165.417 726.228 Q166.436 725.881 167.454 725.719 Q168.473 725.534 169.491 725.534 Q175.278 725.534 178.658 728.705 Q182.038 731.876 182.038 737.293 Q182.038 742.871 178.565 745.973 Q175.093 749.052 168.774 749.052 Q166.598 749.052 164.329 748.682 Q162.084 748.311 159.677 747.57 L159.677 742.871 Q161.76 744.006 163.982 744.561 Q166.204 745.117 168.681 745.117 Q172.686 745.117 175.024 743.01 Q177.362 740.904 177.362 737.293 Q177.362 733.682 175.024 731.575 Q172.686 729.469 168.681 729.469 Q166.806 729.469 164.931 729.885 Q163.079 730.302 161.135 731.182 L161.135 713.821 Z" fill="#000000" fill-rule="nonzero" fill-opacity="1"></path><path clip-path="url(#clip280)" d="M201.25 716.899 Q197.639 716.899 195.811 720.464 Q194.005 724.006 194.005 731.135 Q194.005 738.242 195.811 741.807 Q197.639 745.348 201.25 745.348 Q204.885 745.348 206.69 741.807 Q208.519 738.242 208.519 731.135 Q208.519 724.006 206.69 720.464 Q204.885 716.899 201.25 716.899 M201.25 713.196 Q207.061 713.196 210.116 717.802 Q213.195 722.385 213.195 731.135 Q213.195 739.862 210.116 744.469 Q207.061 749.052 201.25 749.052 Q195.44 749.052 192.362 744.469 Q189.306 739.862 189.306 731.135 Q189.306 722.385 192.362 717.802 Q195.44 713.196 201.25 713.196 Z" fill="#000000" fill-rule="nonzero" fill-opacity="1"></path><path clip-path="url(#clip280)" d="M231.412 716.899 Q227.801 716.899 225.973 720.464 Q224.167 724.006 224.167 731.135 Q224.167 738.242 225.973 741.807 Q227.801 745.348 231.412 745.348 Q235.047 745.348 236.852 741.807 Q238.681 738.242 238.681 731.135 Q238.681 724.006 236.852 720.464 Q235.047 716.899 231.412 716.899 M231.412 713.196 Q237.222 713.196 240.278 717.802 Q243.357 722.385 243.357 731.135 Q243.357 739.862 240.278 744.469 Q237.222 749.052 231.412 749.052 Q225.602 749.052 222.523 744.469 Q219.468 739.862 219.468 731.135 Q219.468 722.385 222.523 717.802 Q225.602 713.196 231.412 713.196 Z" fill="#000000" fill-rule="nonzero" fill-opacity="1"></path><path clip-path="url(#clip280)" d="M279.745 722.918 L269.167 733.543 L279.745 744.121 L276.991 746.922 L266.366 736.297 L255.741 746.922 L253.009 744.121 L263.565 733.543 L253.009 722.918 L255.741 720.117 L266.366 730.742 L276.991 720.117 L279.745 722.918 Z" fill="#000000" fill-rule="nonzero" fill-opacity="1"></path><path clip-path="url(#clip280)" d="M292.106 744.445 L299.745 744.445 L299.745 718.08 L291.435 719.747 L291.435 715.487 L299.699 713.821 L304.375 713.821 L304.375 744.445 L312.014 744.445 L312.014 748.381 L292.106 748.381 L292.106 744.445 Z" fill="#000000" fill-rule="nonzero" fill-opacity="1"></path><path clip-path="url(#clip280)" d="M331.458 716.899 Q327.847 716.899 326.018 720.464 Q324.213 724.006 324.213 731.135 Q324.213 738.242 326.018 741.807 Q327.847 745.348 331.458 745.348 Q335.092 745.348 336.898 741.807 Q338.727 738.242 338.727 731.135 Q338.727 724.006 336.898 720.464 Q335.092 716.899 331.458 716.899 M331.458 713.196 Q337.268 713.196 340.324 717.802 Q343.402 722.385 343.402 731.135 Q343.402 739.862 340.324 744.469 Q337.268 749.052 331.458 749.052 Q325.648 749.052 322.569 744.469 Q319.514 739.862 319.514 731.135 Q319.514 722.385 322.569 717.802 Q325.648 713.196 331.458 713.196 Z" fill="#000000" fill-rule="nonzero" fill-opacity="1"></path><path clip-path="url(#clip280)" d="M356.079 696.2 L346.487 711.19 L356.079 711.19 L356.079 696.2 M355.082 692.89 L359.859 692.89 L359.859 711.19 L363.865 711.19 L363.865 714.35 L359.859 714.35 L359.859 720.97 L356.079 720.97 L356.079 714.35 L343.402 714.35 L343.402 710.682 L355.082 692.89 Z" fill="#000000" fill-rule="nonzero" fill-opacity="1"></path><path clip-path="url(#clip280)" d="M118.962 523.879 L126.601 523.879 L126.601 497.514 L118.291 499.18 L118.291 494.921 L126.555 493.254 L131.231 493.254 L131.231 523.879 L138.869 523.879 L138.869 527.814 L118.962 527.814 L118.962 523.879 Z" fill="#000000" fill-rule="nonzero" fill-opacity="1"></path><path clip-path="url(#clip280)" d="M148.314 521.935 L153.198 521.935 L153.198 527.814 L148.314 527.814 L148.314 521.935 Z" fill="#000000" fill-rule="nonzero" fill-opacity="1"></path><path clip-path="url(#clip280)" d="M173.383 496.333 Q169.772 496.333 167.943 499.898 Q166.138 503.44 166.138 510.569 Q166.138 517.676 167.943 521.24 Q169.772 524.782 173.383 524.782 Q177.017 524.782 178.823 521.24 Q180.652 517.676 180.652 510.569 Q180.652 503.44 178.823 499.898 Q177.017 496.333 173.383 496.333 M173.383 492.629 Q179.193 492.629 182.249 497.236 Q185.327 501.819 185.327 510.569 Q185.327 519.296 182.249 523.902 Q179.193 528.486 173.383 528.486 Q167.573 528.486 164.494 523.902 Q161.439 519.296 161.439 510.569 Q161.439 501.819 164.494 497.236 Q167.573 492.629 173.383 492.629 Z" fill="#000000" fill-rule="nonzero" fill-opacity="1"></path><path clip-path="url(#clip280)" d="M203.545 496.333 Q199.934 496.333 198.105 499.898 Q196.3 503.44 196.3 510.569 Q196.3 517.676 198.105 521.24 Q199.934 524.782 203.545 524.782 Q207.179 524.782 208.985 521.24 Q210.813 517.676 210.813 510.569 Q210.813 503.44 208.985 499.898 Q207.179 496.333 203.545 496.333 M203.545 492.629 Q209.355 492.629 212.411 497.236 Q215.489 501.819 215.489 510.569 Q215.489 519.296 212.411 523.902 Q209.355 528.486 203.545 528.486 Q197.735 528.486 194.656 523.902 Q191.601 519.296 191.601 510.569 Q191.601 501.819 194.656 497.236 Q197.735 492.629 203.545 492.629 Z" fill="#000000" fill-rule="nonzero" fill-opacity="1"></path><path clip-path="url(#clip280)" d="M233.707 496.333 Q230.096 496.333 228.267 499.898 Q226.462 503.44 226.462 510.569 Q226.462 517.676 228.267 521.24 Q230.096 524.782 233.707 524.782 Q237.341 524.782 239.147 521.24 Q240.975 517.676 240.975 510.569 Q240.975 503.44 239.147 499.898 Q237.341 496.333 233.707 496.333 M233.707 492.629 Q239.517 492.629 242.573 497.236 Q245.651 501.819 245.651 510.569 Q245.651 519.296 242.573 523.902 Q239.517 528.486 233.707 528.486 Q227.897 528.486 224.818 523.902 Q221.762 519.296 221.762 510.569 Q221.762 501.819 224.818 497.236 Q227.897 492.629 233.707 492.629 Z" fill="#000000" fill-rule="nonzero" fill-opacity="1"></path><path clip-path="url(#clip280)" d="M282.04 502.352 L271.461 512.977 L282.04 523.555 L279.285 526.356 L268.66 515.731 L258.035 526.356 L255.304 523.555 L265.859 512.977 L255.304 502.352 L258.035 499.551 L268.66 510.176 L279.285 499.551 L282.04 502.352 Z" fill="#000000" fill-rule="nonzero" fill-opacity="1"></path><path clip-path="url(#clip280)" d="M294.401 523.879 L302.04 523.879 L302.04 497.514 L293.73 499.18 L293.73 494.921 L301.994 493.254 L306.669 493.254 L306.669 523.879 L314.308 523.879 L314.308 527.814 L294.401 527.814 L294.401 523.879 Z" fill="#000000" fill-rule="nonzero" fill-opacity="1"></path><path clip-path="url(#clip280)" d="M333.753 496.333 Q330.142 496.333 328.313 499.898 Q326.507 503.44 326.507 510.569 Q326.507 517.676 328.313 521.24 Q330.142 524.782 333.753 524.782 Q337.387 524.782 339.192 521.24 Q341.021 517.676 341.021 510.569 Q341.021 503.44 339.192 499.898 Q337.387 496.333 333.753 496.333 M333.753 492.629 Q339.563 492.629 342.618 497.236 Q345.697 501.819 345.697 510.569 Q345.697 519.296 342.618 523.902 Q339.563 528.486 333.753 528.486 Q327.942 528.486 324.864 523.902 Q321.808 519.296 321.808 510.569 Q321.808 501.819 324.864 497.236 Q327.942 492.629 333.753 492.629 Z" fill="#000000" fill-rule="nonzero" fill-opacity="1"></path><path clip-path="url(#clip280)" d="M346.882 472.324 L361.796 472.324 L361.796 475.521 L350.361 475.521 L350.361 482.405 Q351.189 482.123 352.016 481.991 Q352.844 481.841 353.671 481.841 Q358.373 481.841 361.119 484.417 Q363.865 486.994 363.865 491.395 Q363.865 495.928 361.044 498.448 Q358.223 500.949 353.088 500.949 Q351.321 500.949 349.477 500.649 Q347.653 500.348 345.697 499.746 L345.697 495.928 Q347.39 496.849 349.195 497.301 Q351.001 497.752 353.013 497.752 Q356.267 497.752 358.167 496.041 Q360.066 494.329 360.066 491.395 Q360.066 488.461 358.167 486.75 Q356.267 485.038 353.013 485.038 Q351.49 485.038 349.966 485.377 Q348.462 485.715 346.882 486.43 L346.882 472.324 Z" fill="#000000" fill-rule="nonzero" fill-opacity="1"></path><path clip-path="url(#clip280)" d="M118.962 303.313 L126.601 303.313 L126.601 276.948 L118.291 278.614 L118.291 274.355 L126.555 272.688 L131.231 272.688 L131.231 303.313 L138.869 303.313 L138.869 307.248 L118.962 307.248 L118.962 303.313 Z" fill="#000000" fill-rule="nonzero" fill-opacity="1"></path><path clip-path="url(#clip280)" d="M148.314 301.369 L153.198 301.369 L153.198 307.248 L148.314 307.248 L148.314 301.369 Z" fill="#000000" fill-rule="nonzero" fill-opacity="1"></path><path clip-path="url(#clip280)" d="M167.411 303.313 L183.73 303.313 L183.73 307.248 L161.786 307.248 L161.786 303.313 Q164.448 300.559 169.031 295.929 Q173.638 291.276 174.818 289.934 Q177.064 287.41 177.943 285.674 Q178.846 283.915 178.846 282.225 Q178.846 279.471 176.902 277.735 Q174.98 275.998 171.878 275.998 Q169.679 275.998 167.226 276.762 Q164.795 277.526 162.017 279.077 L162.017 274.355 Q164.841 273.221 167.295 272.642 Q169.749 272.063 171.786 272.063 Q177.156 272.063 180.351 274.748 Q183.545 277.434 183.545 281.924 Q183.545 284.054 182.735 285.975 Q181.948 287.873 179.841 290.466 Q179.263 291.137 176.161 294.355 Q173.059 297.549 167.411 303.313 Z" fill="#000000" fill-rule="nonzero" fill-opacity="1"></path><path clip-path="url(#clip280)" d="M193.591 272.688 L211.948 272.688 L211.948 276.623 L197.874 276.623 L197.874 285.096 Q198.892 284.748 199.911 284.586 Q200.929 284.401 201.948 284.401 Q207.735 284.401 211.114 287.572 Q214.494 290.744 214.494 296.16 Q214.494 301.739 211.022 304.841 Q207.55 307.92 201.23 307.92 Q199.054 307.92 196.786 307.549 Q194.54 307.179 192.133 306.438 L192.133 301.739 Q194.216 302.873 196.439 303.429 Q198.661 303.984 201.138 303.984 Q205.142 303.984 207.48 301.878 Q209.818 299.771 209.818 296.16 Q209.818 292.549 207.48 290.443 Q205.142 288.336 201.138 288.336 Q199.263 288.336 197.388 288.753 Q195.536 289.17 193.591 290.049 L193.591 272.688 Z" fill="#000000" fill-rule="nonzero" fill-opacity="1"></path><path clip-path="url(#clip280)" d="M233.707 275.767 Q230.096 275.767 228.267 279.332 Q226.462 282.873 226.462 290.003 Q226.462 297.109 228.267 300.674 Q230.096 304.216 233.707 304.216 Q237.341 304.216 239.147 300.674 Q240.975 297.109 240.975 290.003 Q240.975 282.873 239.147 279.332 Q237.341 275.767 233.707 275.767 M233.707 272.063 Q239.517 272.063 242.573 276.67 Q245.651 281.253 245.651 290.003 Q245.651 298.73 242.573 303.336 Q239.517 307.92 233.707 307.92 Q227.897 307.92 224.818 303.336 Q221.762 298.73 221.762 290.003 Q221.762 281.253 224.818 276.67 Q227.897 272.063 233.707 272.063 Z" fill="#000000" fill-rule="nonzero" fill-opacity="1"></path><path clip-path="url(#clip280)" d="M282.04 281.785 L271.461 292.41 L282.04 302.989 L279.285 305.79 L268.66 295.165 L258.035 305.79 L255.304 302.989 L265.859 292.41 L255.304 281.785 L258.035 278.985 L268.66 289.609 L279.285 278.985 L282.04 281.785 Z" fill="#000000" fill-rule="nonzero" fill-opacity="1"></path><path clip-path="url(#clip280)" d="M294.401 303.313 L302.04 303.313 L302.04 276.948 L293.73 278.614 L293.73 274.355 L301.994 272.688 L306.669 272.688 L306.669 303.313 L314.308 303.313 L314.308 307.248 L294.401 307.248 L294.401 303.313 Z" fill="#000000" fill-rule="nonzero" fill-opacity="1"></path><path clip-path="url(#clip280)" d="M333.753 275.767 Q330.142 275.767 328.313 279.332 Q326.507 282.873 326.507 290.003 Q326.507 297.109 328.313 300.674 Q330.142 304.216 333.753 304.216 Q337.387 304.216 339.192 300.674 Q341.021 297.109 341.021 290.003 Q341.021 282.873 339.192 279.332 Q337.387 275.767 333.753 275.767 M333.753 272.063 Q339.563 272.063 342.618 276.67 Q345.697 281.253 345.697 290.003 Q345.697 298.73 342.618 303.336 Q339.563 307.92 333.753 307.92 Q327.942 307.92 324.864 303.336 Q321.808 298.73 321.808 290.003 Q321.808 281.253 324.864 276.67 Q327.942 272.063 333.753 272.063 Z" fill="#000000" fill-rule="nonzero" fill-opacity="1"></path><path clip-path="url(#clip280)" d="M346.882 251.758 L361.796 251.758 L361.796 254.955 L350.361 254.955 L350.361 261.839 Q351.189 261.557 352.016 261.425 Q352.844 261.275 353.671 261.275 Q358.373 261.275 361.119 263.851 Q363.865 266.428 363.865 270.829 Q363.865 275.362 361.044 277.882 Q358.223 280.383 353.088 280.383 Q351.321 280.383 349.477 280.082 Q347.653 279.781 345.697 279.18 L345.697 275.362 Q347.39 276.283 349.195 276.735 Q351.001 277.186 353.013 277.186 Q356.267 277.186 358.167 275.474 Q360.066 273.763 360.066 270.829 Q360.066 267.895 358.167 266.183 Q356.267 264.472 353.013 264.472 Q351.49 264.472 349.966 264.81 Q348.462 265.149 346.882 265.864 L346.882 251.758 Z" fill="#000000" fill-rule="nonzero" fill-opacity="1"></path><path clip-path="url(#clip280)" d="M16.4842 891.887 L16.4842 885.458 L64.0042 885.458 L64.0042 891.887 L16.4842 891.887 Z" fill="#000000" fill-rule="nonzero" fill-opacity="1"></path><path clip-path="url(#clip280)" d="M42.4881 843.285 L64.0042 843.285 L64.0042 849.142 L42.679 849.142 Q37.6183 849.142 35.1038 851.115 Q32.5894 853.088 32.5894 857.035 Q32.5894 861.777 35.6131 864.515 Q38.6368 867.252 43.8567 867.252 L64.0042 867.252 L64.0042 873.14 L28.3562 873.14 L28.3562 867.252 L33.8944 867.252 Q30.6797 865.151 29.0883 862.319 Q27.4968 859.454 27.4968 855.73 Q27.4968 849.587 31.3163 846.436 Q35.1038 843.285 42.4881 843.285 Z" fill="#000000" fill-rule="nonzero" fill-opacity="1"></path><path clip-path="url(#clip280)" d="M18.2347 825.811 L28.3562 825.811 L28.3562 813.748 L32.9077 813.748 L32.9077 825.811 L52.2594 825.811 Q56.6199 825.811 57.8613 824.634 Q59.1026 823.424 59.1026 819.764 L59.1026 813.748 L64.0042 813.748 L64.0042 819.764 Q64.0042 826.543 61.4897 829.121 Q58.9434 831.7 52.2594 831.7 L32.9077 831.7 L32.9077 835.996 L28.3562 835.996 L28.3562 831.7 L18.2347 831.7 L18.2347 825.811 Z" fill="#000000" fill-rule="nonzero" fill-opacity="1"></path><path clip-path="url(#clip280)" d="M44.7161 775.554 L47.5806 775.554 L47.5806 802.481 Q53.6281 802.099 56.8109 798.852 Q59.9619 795.574 59.9619 789.75 Q59.9619 786.376 59.1344 783.225 Q58.3069 780.042 56.6518 776.923 L62.1899 776.923 Q63.5267 780.074 64.227 783.384 Q64.9272 786.694 64.9272 790.1 Q64.9272 798.63 59.9619 803.627 Q54.9967 808.592 46.5303 808.592 Q37.7774 808.592 32.6531 803.881 Q27.4968 799.139 27.4968 791.118 Q27.4968 783.925 32.1438 779.755 Q36.7589 775.554 44.7161 775.554 M42.9973 781.41 Q38.1912 781.474 35.3266 784.116 Q32.4621 786.726 32.4621 791.054 Q32.4621 795.956 35.2312 798.916 Q38.0002 801.844 43.0292 802.29 L42.9973 781.41 Z" fill="#000000" fill-rule="nonzero" fill-opacity="1"></path><path clip-path="url(#clip280)" d="M33.8307 745.285 Q33.2578 746.272 33.0032 747.449 Q32.7167 748.595 32.7167 749.996 Q32.7167 754.961 35.9632 757.635 Q39.1779 760.276 45.2253 760.276 L64.0042 760.276 L64.0042 766.165 L28.3562 766.165 L28.3562 760.276 L33.8944 760.276 Q30.6479 758.43 29.0883 755.47 Q27.4968 752.51 27.4968 748.277 Q27.4968 747.672 27.5923 746.94 Q27.656 746.208 27.8151 745.317 L33.8307 745.285 Z" fill="#000000" fill-rule="nonzero" fill-opacity="1"></path><path clip-path="url(#clip280)" d="M28.3562 743.344 L28.3562 737.137 L58.275 725.997 L28.3562 714.857 L28.3562 708.65 L64.0042 722.018 L64.0042 729.976 L28.3562 743.344 Z" fill="#000000" fill-rule="nonzero" fill-opacity="1"></path><path clip-path="url(#clip280)" d="M46.0847 684.365 Q46.0847 691.463 47.7079 694.2 Q49.3312 696.938 53.2461 696.938 Q56.3653 696.938 58.2114 694.9 Q60.0256 692.832 60.0256 689.299 Q60.0256 684.429 56.5881 681.501 Q53.1188 678.541 47.3897 678.541 L46.0847 678.541 L46.0847 684.365 M43.6657 672.684 L64.0042 672.684 L64.0042 678.541 L58.5933 678.541 Q61.8398 680.546 63.3994 683.538 Q64.9272 686.53 64.9272 690.858 Q64.9272 696.333 61.8716 699.579 Q58.7843 702.794 53.6281 702.794 Q47.6125 702.794 44.5569 698.784 Q41.5014 694.741 41.5014 686.752 L41.5014 678.541 L40.9285 678.541 Q36.8862 678.541 34.6901 681.214 Q32.4621 683.856 32.4621 688.662 Q32.4621 691.718 33.1941 694.614 Q33.9262 697.51 35.3903 700.184 L29.9795 700.184 Q28.7381 696.969 28.1334 693.946 Q27.4968 690.922 27.4968 688.057 Q27.4968 680.323 31.5072 676.504 Q35.5176 672.684 43.6657 672.684 Z" fill="#000000" fill-rule="nonzero" fill-opacity="1"></path><path clip-path="url(#clip280)" d="M14.479 660.621 L14.479 654.765 L64.0042 654.765 L64.0042 660.621 L14.479 660.621 Z" fill="#000000" fill-rule="nonzero" fill-opacity="1"></path><path clip-path="url(#clip280)" d="M1028.07 12.096 L1036.26 12.096 L1036.26 72.576 L1028.07 72.576 L1028.07 12.096 Z" fill="#000000" fill-rule="nonzero" fill-opacity="1"></path><path clip-path="url(#clip280)" d="M1089.93 45.1919 L1089.93 72.576 L1082.48 72.576 L1082.48 45.4349 Q1082.48 38.994 1079.97 35.7938 Q1077.46 32.5936 1072.43 32.5936 Q1066.4 32.5936 1062.91 36.4419 Q1059.43 40.2903 1059.43 46.9338 L1059.43 72.576 L1051.93 72.576 L1051.93 27.2059 L1059.43 27.2059 L1059.43 34.2544 Q1062.1 30.163 1065.71 28.1376 Q1069.35 26.1121 1074.09 26.1121 Q1081.91 26.1121 1085.92 30.9732 Q1089.93 35.7938 1089.93 45.1919 Z" fill="#000000" fill-rule="nonzero" fill-opacity="1"></path><path clip-path="url(#clip280)" d="M1112.17 14.324 L1112.17 27.2059 L1127.52 27.2059 L1127.52 32.9987 L1112.17 32.9987 L1112.17 57.6282 Q1112.17 63.1779 1113.67 64.7578 Q1115.21 66.3376 1119.87 66.3376 L1127.52 66.3376 L1127.52 72.576 L1119.87 72.576 Q1111.24 72.576 1107.96 69.3758 Q1104.68 66.1351 1104.68 57.6282 L1104.68 32.9987 L1099.21 32.9987 L1099.21 27.2059 L1104.68 27.2059 L1104.68 14.324 L1112.17 14.324 Z" fill="#000000" fill-rule="nonzero" fill-opacity="1"></path><path clip-path="url(#clip280)" d="M1176.14 48.0275 L1176.14 51.6733 L1141.86 51.6733 Q1142.35 59.3701 1146.48 63.421 Q1150.65 67.4314 1158.07 67.4314 Q1162.36 67.4314 1166.37 66.3781 Q1170.42 65.3249 1174.39 63.2184 L1174.39 70.267 Q1170.38 71.9684 1166.17 72.8596 Q1161.96 73.7508 1157.62 73.7508 Q1146.77 73.7508 1140.41 67.4314 Q1134.09 61.1119 1134.09 50.3365 Q1134.09 39.1965 1140.08 32.6746 Q1146.12 26.1121 1156.33 26.1121 Q1165.48 26.1121 1170.79 32.0264 Q1176.14 37.9003 1176.14 48.0275 M1168.68 45.84 Q1168.6 39.7232 1165.24 36.0774 Q1161.92 32.4315 1156.41 32.4315 Q1150.17 32.4315 1146.4 35.9558 Q1142.67 39.4801 1142.11 45.8805 L1168.68 45.84 Z" fill="#000000" fill-rule="nonzero" fill-opacity="1"></path><path clip-path="url(#clip280)" d="M1214.66 34.1734 Q1213.4 33.4443 1211.9 33.1202 Q1210.45 32.7556 1208.66 32.7556 Q1202.34 32.7556 1198.94 36.8875 Q1195.58 40.9789 1195.58 48.6757 L1195.58 72.576 L1188.09 72.576 L1188.09 27.2059 L1195.58 27.2059 L1195.58 34.2544 Q1197.93 30.1225 1201.7 28.1376 Q1205.46 26.1121 1210.85 26.1121 Q1211.62 26.1121 1212.55 26.2337 Q1213.48 26.3147 1214.62 26.5172 L1214.66 34.1734 Z" fill="#000000" fill-rule="nonzero" fill-opacity="1"></path><path clip-path="url(#clip280)" d="M1217.13 27.2059 L1225.03 27.2059 L1239.21 65.2844 L1253.39 27.2059 L1261.29 27.2059 L1244.27 72.576 L1234.14 72.576 L1217.13 27.2059 Z" fill="#000000" fill-rule="nonzero" fill-opacity="1"></path><path clip-path="url(#clip280)" d="M1292.19 49.7694 Q1283.16 49.7694 1279.68 51.8354 Q1276.19 53.9013 1276.19 58.8839 Q1276.19 62.8538 1278.79 65.2034 Q1281.42 67.5124 1285.91 67.5124 Q1292.11 67.5124 1295.84 63.1374 Q1299.61 58.7219 1299.61 51.4303 L1299.61 49.7694 L1292.19 49.7694 M1307.06 46.6907 L1307.06 72.576 L1299.61 72.576 L1299.61 65.6895 Q1297.05 69.8214 1293.25 71.8063 Q1289.44 73.7508 1283.93 73.7508 Q1276.96 73.7508 1272.83 69.8619 Q1268.74 65.9325 1268.74 59.3701 Q1268.74 51.7138 1273.84 47.825 Q1278.99 43.9361 1289.16 43.9361 L1299.61 43.9361 L1299.61 43.2069 Q1299.61 38.0623 1296.2 35.2672 Q1292.84 32.4315 1286.72 32.4315 Q1282.84 32.4315 1279.15 33.3632 Q1275.46 34.295 1272.06 36.1584 L1272.06 29.2718 Q1276.15 27.692 1280 26.9223 Q1283.85 26.1121 1287.49 26.1121 Q1297.34 26.1121 1302.2 31.2163 Q1307.06 36.3204 1307.06 46.6907 Z" fill="#000000" fill-rule="nonzero" fill-opacity="1"></path><path clip-path="url(#clip280)" d="M1322.41 9.54393 L1329.87 9.54393 L1329.87 72.576 L1322.41 72.576 L1322.41 9.54393 Z" fill="#000000" fill-rule="nonzero" fill-opacity="1"></path><path clip-path="url(#clip280)" d="M1374.39 28.5427 L1374.39 35.5912 Q1371.23 33.9709 1367.82 33.1607 Q1364.42 32.3505 1360.78 32.3505 Q1355.23 32.3505 1352.43 34.0519 Q1349.68 35.7533 1349.68 39.156 Q1349.68 41.7486 1351.66 43.2475 Q1353.65 44.7058 1359.64 46.0426 L1362.19 46.6097 Q1370.13 48.3111 1373.45 51.4303 Q1376.82 54.509 1376.82 60.0587 Q1376.82 66.3781 1371.79 70.0644 Q1366.81 73.7508 1358.06 73.7508 Q1354.42 73.7508 1350.45 73.0216 Q1346.52 72.3329 1342.14 70.9151 L1342.14 63.2184 Q1346.27 65.3654 1350.28 66.4591 Q1354.29 67.5124 1358.22 67.5124 Q1363.49 67.5124 1366.33 65.73 Q1369.16 63.9071 1369.16 60.6258 Q1369.16 57.5877 1367.09 55.9673 Q1365.07 54.3469 1358.14 52.8481 L1355.55 52.2405 Q1348.62 50.7821 1345.54 47.7845 Q1342.47 44.7463 1342.47 39.4801 Q1342.47 33.0797 1347 29.5959 Q1351.54 26.1121 1359.88 26.1121 Q1364.02 26.1121 1367.66 26.7198 Q1371.31 27.3274 1374.39 28.5427 Z" fill="#000000" fill-rule="nonzero" fill-opacity="1"></path><path clip-path="url(#clip280)" d="M1409.71 27.2059 L1417.61 27.2059 L1431.79 65.2844 L1445.97 27.2059 L1453.87 27.2059 L1436.85 72.576 L1426.72 72.576 L1409.71 27.2059 Z" fill="#000000" fill-rule="nonzero" fill-opacity="1"></path><path clip-path="url(#clip280)" d="M1493.08 28.5427 L1493.08 35.5912 Q1489.92 33.9709 1486.52 33.1607 Q1483.11 32.3505 1479.47 32.3505 Q1473.92 32.3505 1471.12 34.0519 Q1468.37 35.7533 1468.37 39.156 Q1468.37 41.7486 1470.35 43.2475 Q1472.34 44.7058 1478.33 46.0426 L1480.88 46.6097 Q1488.82 48.3111 1492.15 51.4303 Q1495.51 54.509 1495.51 60.0587 Q1495.51 66.3781 1490.49 70.0644 Q1485.5 73.7508 1476.75 73.7508 Q1473.11 73.7508 1469.14 73.0216 Q1465.21 72.3329 1460.83 70.9151 L1460.83 63.2184 Q1464.96 65.3654 1468.98 66.4591 Q1472.99 67.5124 1476.91 67.5124 Q1482.18 67.5124 1485.02 65.73 Q1487.85 63.9071 1487.85 60.6258 Q1487.85 57.5877 1485.79 55.9673 Q1483.76 54.3469 1476.83 52.8481 L1474.24 52.2405 Q1467.31 50.7821 1464.24 47.7845 Q1461.16 44.7463 1461.16 39.4801 Q1461.16 33.0797 1465.69 29.5959 Q1470.23 26.1121 1478.58 26.1121 Q1482.71 26.1121 1486.35 26.7198 Q1490 27.3274 1493.08 28.5427 Z" fill="#000000" fill-rule="nonzero" fill-opacity="1"></path><path clip-path="url(#clip280)" d="M1525.69 12.096 L1576.85 12.096 L1576.85 18.9825 L1555.38 18.9825 L1555.38 72.576 L1547.16 72.576 L1547.16 18.9825 L1525.69 18.9825 L1525.69 12.096 Z" fill="#000000" fill-rule="nonzero" fill-opacity="1"></path><path clip-path="url(#clip280)" d="M1581.87 27.2059 L1589.33 27.2059 L1589.33 72.576 L1581.87 72.576 L1581.87 27.2059 M1581.87 9.54393 L1589.33 9.54393 L1589.33 18.9825 L1581.87 18.9825 L1581.87 9.54393 Z" fill="#000000" fill-rule="nonzero" fill-opacity="1"></path><path clip-path="url(#clip280)" d="M1640.25 35.9153 Q1643.04 30.8922 1646.93 28.5022 Q1650.82 26.1121 1656.09 26.1121 Q1663.18 26.1121 1667.02 31.0947 Q1670.87 36.0368 1670.87 45.1919 L1670.87 72.576 L1663.38 72.576 L1663.38 45.4349 Q1663.38 38.913 1661.07 35.7533 Q1658.76 32.5936 1654.02 32.5936 Q1648.23 32.5936 1644.87 36.4419 Q1641.5 40.2903 1641.5 46.9338 L1641.5 72.576 L1634.01 72.576 L1634.01 45.4349 Q1634.01 38.8725 1631.7 35.7533 Q1629.39 32.5936 1624.57 32.5936 Q1618.86 32.5936 1615.5 36.4824 Q1612.13 40.3308 1612.13 46.9338 L1612.13 72.576 L1604.64 72.576 L1604.64 27.2059 L1612.13 27.2059 L1612.13 34.2544 Q1614.69 30.082 1618.25 28.0971 Q1621.82 26.1121 1626.72 26.1121 Q1631.66 26.1121 1635.1 28.6237 Q1638.59 31.1352 1640.25 35.9153 Z" fill="#000000" fill-rule="nonzero" fill-opacity="1"></path><path clip-path="url(#clip280)" d="M1724.55 48.0275 L1724.55 51.6733 L1690.28 51.6733 Q1690.76 59.3701 1694.89 63.421 Q1699.07 67.4314 1706.48 67.4314 Q1710.77 67.4314 1714.78 66.3781 Q1718.83 65.3249 1722.8 63.2184 L1722.8 70.267 Q1718.79 71.9684 1714.58 72.8596 Q1710.37 73.7508 1706.03 73.7508 Q1695.18 73.7508 1688.82 67.4314 Q1682.5 61.1119 1682.5 50.3365 Q1682.5 39.1965 1688.49 32.6746 Q1694.53 26.1121 1704.74 26.1121 Q1713.89 26.1121 1719.2 32.0264 Q1724.55 37.9003 1724.55 48.0275 M1717.09 45.84 Q1717.01 39.7232 1713.65 36.0774 Q1710.33 32.4315 1704.82 32.4315 Q1698.58 32.4315 1694.81 35.9558 Q1691.09 39.4801 1690.52 45.8805 L1717.09 45.84 Z" fill="#000000" fill-rule="nonzero" fill-opacity="1"></path><path clip-path="url(#clip282)" d="M455.136 1386.4 L455.136 1386.4 L464.348 1386.38 L468.953 1386.35 L473.559 1386.32 L478.165 1386.27 L482.771 1386.22 L487.377 1386.16 L491.983 1386.09 L496.589 1386.01 L501.195 1385.92 L505.8 1385.83 L510.406 1385.72 L515.012 1385.61 L519.618 1385.66 L528.83 1385.63 L533.436 1385.63 L542.647 1385.59 L547.253 1385.59 L556.465 1385.56 L561.071 1385.56 L570.283 1385.52 L574.889 1385.52 L584.1 1385.49 L588.706 1385.43 L593.312 1385.36 L597.918 1385.28 L602.524 1385.17 L607.13 1385.05 L611.736 1384.91 L616.341 1384.75 L620.947 1384.58 L625.553 1384.39 L630.159 1384.18 L634.765 1383.95 L639.371 1383.71 L643.977 1383.44 L648.583 1383.16 L653.188 1382.87 L657.794 1382.55 L662.4 1382.22 L667.006 1381.87 L671.612 1381.5 L676.218 1381.12 L680.824 1380.72 L685.429 1380.3 L690.035 1379.86 L694.641 1379.41 L699.247 1378.94 L703.853 1378.45 L708.459 1377.94 L713.065 1377.42 L717.671 1376.87 L722.276 1376.32 L726.882 1375.74 L731.488 1375.15 L736.094 1374.53 L740.7 1373.91 L745.306 1373.26 L749.912 1372.59 L754.518 1371.91 L759.123 1371.21 L763.729 1370.5 L768.335 1369.76 L772.941 1369.01 L777.547 1368.25 L782.153 1367.46 L786.759 1366.66 L791.365 1365.83 L795.97 1365 L800.576 1364.14 L805.182 1363.27 L809.788 1362.38 L814.394 1361.47 L819 1360.54 L823.606 1359.6 L828.212 1358.64 L832.817 1357.66 L837.423 1356.66 L842.029 1355.65 L846.635 1354.62 L851.241 1353.57 L855.847 1352.51 L860.453 1351.42 L865.059 1350.32 L869.664 1349.2 L874.27 1348.07 L878.876 1346.92 L883.482 1345.75 L888.088 1344.56 L892.694 1343.35 L897.3 1342.13 L901.906 1340.89 L906.511 1339.63 L911.117 1338.36 L915.723 1337.06 L920.329 1335.75 L924.935 1334.43 L929.541 1333.08 L934.147 1331.72 L938.753 1330.34 L943.358 1328.94 L947.964 1327.53 L952.57 1326.09 L957.176 1324.64 L961.782 1323.18 L966.388 1321.69 L970.994 1320.19 L975.6 1318.67 L980.205 1317.13 L984.811 1315.58 L989.417 1314 L994.023 1312.41 L998.629 1310.81 L1003.23 1309.18 L1007.84 1307.54 L1012.45 1305.88 L1017.05 1304.2 L1021.66 1302.51 L1026.26 1300.8 L1030.87 1299.07 L1035.48 1297.32 L1040.08 1295.56 L1044.69 1293.78 L1049.29 1291.98 L1053.9 1290.16 L1058.51 1288.33 L1063.11 1286.47 L1067.72 1284.6 L1072.32 1282.72 L1076.93 1280.81 L1081.53 1278.89 L1086.14 1276.95 L1090.75 1275 L1095.35 1273.02 L1099.96 1271.03 L1104.56 1269.02 L1109.17 1267 L1113.78 1264.95 L1118.38 1262.89 L1122.99 1260.81 L1127.59 1258.72 L1132.2 1256.6 L1136.81 1254.47 L1141.41 1252.32 L1146.02 1250.16 L1150.62 1247.97 L1155.23 1245.77 L1159.83 1243.55 L1164.44 1241.32 L1169.05 1239.06 L1173.65 1236.79 L1178.26 1234.5 L1182.86 1232.2 L1187.47 1229.87 L1192.08 1227.53 L1196.68 1225.18 L1201.29 1222.8 L1205.89 1220.41 L1210.5 1218 L1215.11 1215.57 L1219.71 1213.12 L1224.32 1210.66 L1228.92 1208.18 L1233.53 1205.68 L1238.13 1203.16 L1242.74 1200.63 L1247.35 1198.08 L1251.95 1195.51 L1256.56 1192.93 L1261.16 1190.33 L1265.77 1187.7 L1270.38 1185.07 L1274.98 1182.41 L1279.59 1179.74 L1284.19 1177.05 L1288.8 1174.34 L1293.4 1171.62 L1298.01 1168.87 L1302.62 1166.11 L1307.22 1163.34 L1311.83 1160.54 L1316.43 1157.73 L1321.04 1154.9 L1325.65 1152.05 L1330.25 1149.19 L1334.86 1146.3 L1339.46 1143.4 L1344.07 1140.49 L1348.68 1137.55 L1353.28 1134.6 L1357.89 1131.63 L1362.49 1128.64 L1367.1 1125.64 L1371.7 1122.62 L1376.31 1119.58 L1380.92 1116.52 L1385.52 1113.44 L1390.13 1110.35 L1394.73 1107.24 L1399.34 1104.12 L1403.95 1100.97 L1408.55 1097.81 L1413.16 1094.63 L1417.76 1091.43 L1422.37 1088.22 L1426.98 1084.99 L1431.58 1081.74 L1436.19 1078.47 L1440.79 1075.19 L1445.4 1071.89 L1450 1068.57 L1454.61 1065.23 L1459.22 1061.88 L1463.82 1058.51 L1468.43 1055.12 L1473.03 1051.71 L1477.64 1048.29 L1482.25 1044.84 L1486.85 1041.39 L1491.46 1037.91 L1496.06 1034.42 L1500.67 1030.9 L1505.28 1027.38 L1509.88 1023.83 L1514.49 1020.27 L1519.09 1016.68 L1523.7 1013.09 L1528.3 1009.47 L1532.91 1005.84 L1537.52 1002.19 L1542.12 998.517 L1546.73 994.831 L1551.33 991.128 L1555.94 987.407 L1560.55 983.669 L1565.15 979.913 L1569.76 976.14 L1574.36 972.349 L1578.97 968.541 L1583.57 964.715 L1588.18 960.872 L1592.79 957.011 L1597.39 953.133 L1602 949.238 L1606.6 945.325 L1611.21 941.394 L1615.82 937.446 L1620.42 933.481 L1625.03 929.498 L1629.63 925.497 L1634.24 921.48 L1638.85 917.444 L1643.45 913.392 L1648.06 909.321 L1652.66 905.234 L1657.27 901.128 L1661.87 897.006 L1666.48 892.866 L1671.09 888.708 L1675.69 884.533 L1680.3 880.34 L1684.9 876.13 L1689.51 871.903 L1694.12 867.658 L1698.72 863.396 L1703.33 859.116 L1707.93 854.818 L1712.54 850.504 L1717.15 846.171 L1721.75 841.822 L1726.36 837.454 L1730.96 833.07 L1735.57 828.668 L1740.17 824.248 L1744.78 819.811 L1749.39 815.356 L1753.99 810.884 L1758.6 806.395 L1763.2 801.888 L1767.81 797.363 L1772.42 792.822 L1777.02 788.262 L1781.63 783.685 L1786.23 779.091 L1790.84 774.479 L1795.45 769.85 L1800.05 765.203 L1804.66 760.539 L1809.26 755.857 L1813.87 751.158 L1818.47 746.442 L1823.08 741.708 L1827.69 736.956 L1832.29 732.187 L1836.9 727.401 L1841.5 722.597 L1846.11 717.775 L1850.72 712.937 L1855.32 708.08 L1859.93 703.206 L1864.53 698.315 L1869.14 693.406 L1873.75 688.48 L1878.35 683.536 L1882.96 678.575 L1887.56 673.597 L1892.17 668.601 L1896.77 663.587 L1901.38 658.556 L1905.99 653.508 L1910.59 648.442 L1915.2 643.358 L1919.8 638.257 L1924.41 633.139 L1929.02 628.003 L1933.62 622.85 L1938.23 617.679 L1942.83 612.491 L1947.44 607.285 L1952.04 602.062 L1956.65 596.821 L1961.26 591.563 L1965.86 586.287 L1970.47 580.994 L1975.07 575.684 L1979.68 570.356 L1984.29 565.01 L1988.89 559.647 L1993.5 554.267 L1998.1 548.869 L2002.71 543.454 L2007.32 538.021 L2011.92 532.571 L2016.53 527.103 L2021.13 521.618 L2025.74 516.115 L2030.34 510.595 L2034.95 505.057 L2039.56 499.502 L2044.16 493.93 L2048.77 488.34 L2053.37 482.732 L2057.98 477.107 L2062.59 471.465 L2067.19 465.805 L2071.8 460.127 L2076.4 454.433 L2081.01 448.72 L2085.62 442.991 L2090.22 437.243 L2094.83 431.479 L2099.43 425.696 L2104.04 419.897 L2108.64 414.08 L2113.25 408.245 L2117.86 402.393 L2122.46 396.523 L2127.07 390.636 L2131.67 384.732 L2136.28 378.81 L2140.89 372.871 L2145.49 366.914 L2150.1 360.939 L2154.7 354.948 L2159.31 348.938 L2163.92 342.912 L2168.52 336.867 L2173.13 330.806 L2177.73 324.727 L2182.34 318.63 L2186.94 312.516 L2191.55 306.384 L2196.16 300.235 L2200.76 294.069 L2205.37 287.885 L2209.97 281.683 L2214.58 275.464 L2219.19 269.228 L2223.79 262.974 L2228.4 256.703 L2233 250.414 L2237.61 244.108 L2242.21 237.784 L2246.82 231.443 L2251.43 225.084 L2256.03 218.708 L2260.64 212.315 L2265.24 205.903 L2269.85 199.475 L2274.46 193.029 L2279.06 186.565 L2283.67 180.084 L2288.27 173.586 L2292.88 167.07 L2297.49 160.537 L519.618 1385.57 L528.83 1385.56 L533.436 1385.56 L542.647 1385.52 L547.253 1385.52 L556.465 1385.49 L561.071 1385.49 L570.283 1385.45 L574.889 1385.45 L584.1 1385.42 L588.706 1385.42 L597.918 1385.38 L602.524 1385.33 L607.13 1385.26 L611.736 1385.17 L616.341 1385.07 L620.947 1384.94 L625.553 1384.8 L630.159 1384.65 L634.765 1384.47 L639.371 1384.28 L643.977 1384.07 L648.583 1383.84 L653.188 1383.6 L657.794 1383.34 L662.4 1383.06 L667.006 1382.76 L671.612 1382.45 L676.218 1382.11 L680.824 1381.77 L685.429 1381.4 L690.035 1381.01 L694.641 1380.61 L699.247 1380.19 L703.853 1379.76 L708.459 1379.3 L713.065 1378.83 L717.671 1378.34 L722.276 1377.83 L726.882 1377.31 L731.488 1376.77 L736.094 1376.21 L740.7 1375.63 L745.306 1375.04 L749.912 1374.43 L754.518 1373.8 L759.123 1373.15 L763.729 1372.49 L768.335 1371.81 L772.941 1371.11 L777.547 1370.39 L782.153 1369.66 L786.759 1368.91 L791.365 1368.14 L795.97 1367.35 L800.576 1366.55 L805.182 1365.73 L809.788 1364.89 L814.394 1364.03 L819 1363.16 L823.606 1362.27 L828.212 1361.36 L832.817 1360.44 L837.423 1359.49 L842.029 1358.53 L846.635 1357.55 L851.241 1356.56 L855.847 1355.54 L860.453 1354.51 L865.059 1353.47 L869.664 1352.4 L874.27 1351.32 L878.876 1350.22 L883.482 1349.1 L888.088 1347.96 L892.694 1346.81 L897.3 1345.64 L901.906 1344.45 L906.511 1343.25 L911.117 1342.02 L915.723 1340.78 L920.329 1339.53 L924.935 1338.25 L929.541 1336.96 L934.147 1335.65 L938.753 1334.32 L943.358 1332.97 L947.964 1331.61 L952.57 1330.23 L957.176 1328.83 L961.782 1327.42 L966.388 1325.99 L970.994 1324.54 L975.6 1323.07 L980.205 1321.59 L984.811 1320.08 L989.417 1318.56 L994.023 1317.03 L998.629 1315.47 L1003.23 1313.9 L1007.84 1312.31 L1012.45 1310.7 L1017.05 1309.08 L1021.66 1307.44 L1026.26 1305.78 L1030.87 1304.1 L1035.48 1302.4 L1040.08 1300.69 L1044.69 1298.96 L1049.29 1297.22 L1053.9 1295.45 L1058.51 1293.67 L1063.11 1291.87 L1067.72 1290.05 L1072.32 1288.22 L1076.93 1286.37 L1081.53 1284.5 L1086.14 1282.61 L1090.75 1280.71 L1095.35 1278.79 L1099.96 1276.85 L1104.56 1274.89 L1109.17 1272.92 L1113.78 1270.93 L1118.38 1268.92 L1122.99 1266.89 L1127.59 1264.85 L1132.2 1262.78 L1136.81 1260.71 L1141.41 1258.61 L1146.02 1256.5 L1150.62 1254.36 L1155.23 1252.22 L1159.83 1250.05 L1164.44 1247.87 L1169.05 1245.67 L1173.65 1243.45 L1178.26 1241.21 L1182.86 1238.96 L1187.47 1236.69 L1192.08 1234.4 L1196.68 1232.09 L1201.29 1229.77 L1205.89 1227.43 L1210.5 1225.07 L1215.11 1222.69 L1219.71 1220.3 L1224.32 1217.89 L1228.92 1215.46 L1233.53 1213.02 L1238.13 1210.55 L1242.74 1208.07 L1247.35 1205.57 L1251.95 1203.06 L1256.56 1200.53 L1261.16 1197.98 L1265.77 1195.41 L1270.38 1192.82 L1274.98 1190.22 L1279.59 1187.6 L1284.19 1184.96 L1288.8 1182.31 L1293.4 1179.63 L1298.01 1176.94 L1302.62 1174.24 L1307.22 1171.51 L1311.83 1168.77 L1316.43 1166.01 L1321.04 1163.23 L1325.65 1160.43 L1330.25 1157.62 L1334.86 1154.79 L1339.46 1151.95 L1344.07 1149.08 L1348.68 1146.2 L1353.28 1143.3 L1357.89 1140.38 L1362.49 1137.45 L1367.1 1134.49 L1371.7 1131.52 L1376.31 1128.54 L1380.92 1125.53 L1385.52 1122.51 L1390.13 1119.47 L1394.73 1116.41 L1399.34 1113.34 L1403.95 1110.25 L1408.55 1107.14 L1413.16 1104.01 L1417.76 1100.87 L1422.37 1097.7 L1426.98 1094.53 L1431.58 1091.33 L1436.19 1088.11 L1440.79 1084.88 L1445.4 1081.63 L1450 1078.37 L1454.61 1075.08 L1459.22 1071.78 L1463.82 1068.46 L1468.43 1065.12 L1473.03 1061.77 L1477.64 1058.4 L1482.25 1055.01 L1486.85 1051.6 L1491.46 1048.18 L1496.06 1044.74 L1500.67 1041.28 L1505.28 1037.8 L1509.88 1034.31 L1514.49 1030.8 L1519.09 1027.27 L1523.7 1023.72 L1528.3 1020.16 L1532.91 1016.58 L1537.52 1012.98 L1542.12 1009.36 L1546.73 1005.73 L1551.33 1002.08 L1555.94 998.411 L1560.55 994.726 L1565.15 991.022 L1569.76 987.301 L1574.36 983.563 L1578.97 979.807 L1583.57 976.034 L1588.18 972.243 L1592.79 968.435 L1597.39 964.609 L1602 960.766 L1606.6 956.906 L1611.21 953.027 L1615.82 949.132 L1620.42 945.219 L1625.03 941.288 L1629.63 937.34 L1634.24 933.375 L1638.85 929.392 L1643.45 925.392 L1648.06 921.374 L1652.66 917.339 L1657.27 913.286 L1661.87 909.216 L1666.48 905.128 L1671.09 901.023 L1675.69 896.9 L1680.3 892.76 L1684.9 888.602 L1689.51 884.427 L1694.12 880.235 L1698.72 876.025 L1703.33 871.797 L1707.93 867.552 L1712.54 863.29 L1717.15 859.01 L1721.75 854.713 L1726.36 850.398 L1730.96 846.066 L1735.57 841.716 L1740.17 837.349 L1744.78 832.964 L1749.39 828.562 L1753.99 824.142 L1758.6 819.705 L1763.2 815.251 L1767.81 810.779 L1772.42 806.289 L1777.02 801.782 L1781.63 797.258 L1786.23 792.716 L1790.84 788.157 L1795.45 783.58 L1800.05 778.985 L1804.66 774.374 L1809.26 769.744 L1813.87 765.098 L1818.47 760.433 L1823.08 755.752 L1827.69 751.053 L1832.29 746.336 L1836.9 741.602 L1841.5 736.851 L1846.11 732.082 L1850.72 727.295 L1855.32 722.491 L1859.93 717.67 L1864.53 712.831 L1869.14 707.975 L1873.75 703.101 L1878.35 698.209 L1882.96 693.301 L1887.56 688.374 L1892.17 683.431 L1896.77 678.47 L1901.38 673.491 L1905.99 668.495 L1910.59 663.481 L1915.2 658.45 L1919.8 653.402 L1924.41 648.336 L1929.02 643.252 L1933.62 638.152 L1938.23 633.033 L1942.83 627.897 L1947.44 622.744 L1952.04 617.573 L1956.65 612.385 L1961.26 607.179 L1965.86 601.956 L1970.47 596.715 L1975.07 591.457 L1979.68 586.182 L1984.29 580.889 L1988.89 575.578 L1993.5 570.25 L1998.1 564.905 L2002.71 559.542 L2007.32 554.161 L2011.92 548.764 L2016.53 543.348 L2021.13 537.915 L2025.74 532.465 L2030.34 526.997 L2034.95 521.512 L2039.56 516.009 L2044.16 510.489 L2048.77 504.952 L2053.37 499.397 L2057.98 493.824 L2062.59 488.234 L2067.19 482.626 L2071.8 477.002 L2076.4 471.359 L2081.01 465.699 L2085.62 460.022 L2090.22 454.327 L2094.83 448.615 L2099.43 442.885 L2104.04 437.138 L2108.64 431.373 L2113.25 425.591 L2117.86 419.791 L2122.46 413.974 L2127.07 408.139 L2131.67 402.287 L2136.28 396.418 L2140.89 390.531 L2145.49 384.626 L2150.1 378.704 L2154.7 372.765 L2159.31 366.808 L2163.92 360.834 L2168.52 354.842 L2173.13 348.833 L2177.73 342.806 L2182.34 336.762 L2186.94 330.7 L2191.55 324.621 L2196.16 318.524 L2200.76 312.41 L2205.37 306.279 L2209.97 300.129 L2214.58 293.963 L2219.19 287.779 L2223.79 281.578 L2228.4 275.359 L2233 269.122 L2237.61 262.868 L2242.21 256.597 L2246.82 250.308 L2251.43 244.002 L2256.03 237.678 L2260.64 231.337 L2265.24 224.979 L2269.85 218.602 L2274.46 212.209 L2279.06 205.798 L2283.67 199.369 L2288.27 192.923 L2292.88 186.46 L2297.49 179.979 L2297.49 179.963 L2292.88 186.444 L2288.27 192.907 L2283.67 199.353 L2279.06 205.782 L2274.46 212.193 L2269.85 218.587 L2265.24 224.963 L2260.64 231.321 L2256.03 237.663 L2251.43 243.986 L2246.82 250.292 L2242.21 256.581 L2237.61 262.853 L2233 269.106 L2228.4 275.343 L2223.79 281.562 L2219.19 287.763 L2214.58 293.947 L2209.97 300.114 L2205.37 306.263 L2200.76 312.394 L2196.16 318.508 L2191.55 324.605 L2186.94 330.684 L2182.34 336.746 L2177.73 342.79 L2173.13 348.817 L2168.52 354.826 L2163.92 360.818 L2159.31 366.792 L2154.7 372.749 L2150.1 378.688 L2145.49 384.61 L2140.89 390.515 L2136.28 396.402 L2131.67 402.271 L2127.07 408.123 L2122.46 413.958 L2117.86 419.775 L2113.25 425.575 L2108.64 431.357 L2104.04 437.122 L2099.43 442.869 L2094.83 448.599 L2090.22 454.311 L2085.62 460.006 L2081.01 465.683 L2076.4 471.343 L2071.8 476.986 L2067.19 482.611 L2062.59 488.218 L2057.98 493.808 L2053.37 499.381 L2048.77 504.936 L2044.16 510.473 L2039.56 515.994 L2034.95 521.496 L2030.34 526.981 L2025.74 532.449 L2021.13 537.899 L2016.53 543.332 L2011.92 548.748 L2007.32 554.145 L2002.71 559.526 L1998.1 564.889 L1993.5 570.234 L1988.89 575.562 L1984.29 580.873 L1979.68 586.166 L1975.07 591.441 L1970.47 596.7 L1965.86 601.94 L1961.26 607.163 L1956.65 612.369 L1952.04 617.557 L1947.44 622.728 L1942.83 627.881 L1938.23 633.017 L1933.62 638.136 L1929.02 643.237 L1924.41 648.32 L1919.8 653.386 L1915.2 658.434 L1910.59 663.466 L1905.99 668.479 L1901.38 673.475 L1896.77 678.454 L1892.17 683.415 L1887.56 688.359 L1882.96 693.285 L1878.35 698.194 L1873.75 703.085 L1869.14 707.959 L1864.53 712.815 L1859.93 717.654 L1855.32 722.475 L1850.72 727.279 L1846.11 732.066 L1841.5 736.835 L1836.9 741.586 L1832.29 746.32 L1827.69 751.037 L1823.08 755.736 L1818.47 760.418 L1813.87 765.082 L1809.26 769.728 L1804.66 774.358 L1800.05 778.969 L1795.45 783.564 L1790.84 788.141 L1786.23 792.7 L1781.63 797.242 L1777.02 801.766 L1772.42 806.273 L1767.81 810.763 L1763.2 815.235 L1758.6 819.689 L1753.99 824.126 L1749.39 828.546 L1744.78 832.948 L1740.17 837.333 L1735.57 841.7 L1730.96 846.05 L1726.36 850.382 L1721.75 854.697 L1717.15 858.994 L1712.54 863.274 L1707.93 867.537 L1703.33 871.781 L1698.72 876.009 L1694.12 880.219 L1689.51 884.411 L1684.9 888.586 L1680.3 892.744 L1675.69 896.884 L1671.09 901.007 L1666.48 905.112 L1661.87 909.2 L1657.27 913.27 L1652.66 917.323 L1648.06 921.358 L1643.45 925.376 L1638.85 929.376 L1634.24 933.359 L1629.63 937.325 L1625.03 941.272 L1620.42 945.203 L1615.82 949.116 L1611.21 953.012 L1606.6 956.89 L1602 960.75 L1597.39 964.593 L1592.79 968.419 L1588.18 972.227 L1583.57 976.018 L1578.97 979.791 L1574.36 983.547 L1569.76 987.285 L1565.15 991.006 L1560.55 994.71 L1555.94 998.396 L1551.33 1002.06 L1546.73 1005.72 L1542.12 1009.35 L1537.52 1012.96 L1532.91 1016.56 L1528.3 1020.14 L1523.7 1023.71 L1519.09 1027.25 L1514.49 1030.78 L1509.88 1034.29 L1505.28 1037.79 L1500.67 1041.26 L1496.06 1044.72 L1491.46 1048.16 L1486.85 1051.59 L1482.25 1054.99 L1477.64 1058.38 L1473.03 1061.76 L1468.43 1065.11 L1463.82 1068.45 L1459.22 1071.76 L1454.61 1075.07 L1450 1078.35 L1445.4 1081.62 L1440.79 1084.87 L1436.19 1088.1 L1431.58 1091.31 L1426.98 1094.51 L1422.37 1097.69 L1417.76 1100.85 L1413.16 1103.99 L1408.55 1107.12 L1403.95 1110.23 L1399.34 1113.32 L1394.73 1116.4 L1390.13 1119.45 L1385.52 1122.49 L1380.92 1125.52 L1376.31 1128.52 L1371.7 1131.51 L1367.1 1134.48 L1362.49 1137.43 L1357.89 1140.36 L1353.28 1143.28 L1348.68 1146.18 L1344.07 1149.06 L1339.46 1151.93 L1334.86 1154.78 L1330.25 1157.61 L1325.65 1160.42 L1321.04 1163.21 L1316.43 1165.99 L1311.83 1168.75 L1307.22 1171.49 L1302.62 1174.22 L1298.01 1176.93 L1293.4 1179.62 L1288.8 1182.29 L1284.19 1184.95 L1279.59 1187.58 L1274.98 1190.2 L1270.38 1192.81 L1265.77 1195.39 L1261.16 1197.96 L1256.56 1200.51 L1251.95 1203.04 L1247.35 1205.56 L1242.74 1208.06 L1238.13 1210.54 L1233.53 1213 L1228.92 1215.45 L1224.32 1217.87 L1219.71 1220.28 L1215.11 1222.68 L1210.5 1225.05 L1205.89 1227.41 L1201.29 1229.75 L1196.68 1232.08 L1192.08 1234.38 L1187.47 1236.67 L1182.86 1238.94 L1178.26 1241.2 L1173.65 1243.43 L1169.05 1245.65 L1164.44 1247.85 L1159.83 1250.03 L1155.23 1252.2 L1150.62 1254.35 L1146.02 1256.48 L1141.41 1258.59 L1136.81 1260.69 L1132.2 1262.77 L1127.59 1264.83 L1122.99 1266.87 L1118.38 1268.9 L1113.78 1270.91 L1109.17 1272.9 L1104.56 1274.87 L1099.96 1276.83 L1095.35 1278.77 L1090.75 1280.69 L1086.14 1282.6 L1081.53 1284.48 L1076.93 1286.35 L1072.32 1288.2 L1067.72 1290.04 L1063.11 1291.85 L1058.51 1293.65 L1053.9 1295.44 L1049.29 1297.2 L1044.69 1298.95 L1040.08 1300.68 L1035.48 1302.39 L1030.87 1304.08 L1026.26 1305.76 L1021.66 1307.42 L1017.05 1309.06 L1012.45 1310.69 L1007.84 1312.29 L1003.23 1313.88 L998.629 1315.46 L994.023 1317.01 L989.417 1318.55 L984.811 1320.07 L980.205 1321.57 L975.6 1323.05 L970.994 1324.52 L966.388 1325.97 L961.782 1327.4 L957.176 1328.82 L952.57 1330.22 L947.964 1331.6 L943.358 1332.96 L938.753 1334.3 L934.147 1335.63 L929.541 1336.94 L924.935 1338.23 L920.329 1339.51 L915.723 1340.77 L911.117 1342.01 L906.511 1343.23 L901.906 1344.44 L897.3 1345.62 L892.694 1346.79 L888.088 1347.95 L883.482 1349.08 L878.876 1350.2 L874.27 1351.3 L869.664 1352.38 L865.059 1353.45 L860.453 1354.5 L855.847 1355.53 L851.241 1356.54 L846.635 1357.54 L842.029 1358.52 L837.423 1359.48 L832.817 1360.42 L828.212 1361.35 L823.606 1362.25 L819 1363.14 L814.394 1364.02 L809.788 1364.87 L805.182 1365.71 L800.576 1366.53 L795.97 1367.34 L791.365 1368.12 L786.759 1368.89 L782.153 1369.64 L777.547 1370.38 L772.941 1371.09 L768.335 1371.79 L763.729 1372.47 L759.123 1373.14 L754.518 1373.78 L749.912 1374.41 L745.306 1375.02 L740.7 1375.62 L736.094 1376.19 L731.488 1376.75 L726.882 1377.29 L722.276 1377.82 L717.671 1378.33 L713.065 1378.81 L708.459 1379.29 L703.853 1379.74 L699.247 1380.18 L694.641 1380.6 L690.035 1381 L685.429 1381.38 L680.824 1381.75 L676.218 1382.1 L671.612 1382.43 L667.006 1382.75 L662.4 1383.04 L657.794 1383.32 L653.188 1383.58 L648.583 1383.83 L643.977 1384.06 L639.371 1384.26 L634.765 1384.46 L630.159 1384.63 L625.553 1384.79 L620.947 1384.93 L616.341 1385.05 L611.736 1385.16 L607.13 1385.24 L602.524 1385.31 L597.918 1385.37 L588.706 1385.4 L584.1 1385.4 L574.889 1385.44 L570.283 1385.44 L561.071 1385.47 L556.465 1385.47 L547.253 1385.51 L542.647 1385.51 L533.436 1385.54 L528.83 1385.54 L519.618 1385.56 L2297.49 160.256 L2292.88 166.79 L2288.27 173.306 L2283.67 179.804 L2279.06 186.285 L2274.46 192.748 L2269.85 199.194 L2265.24 205.623 L2260.64 212.034 L2256.03 218.428 L2251.43 224.804 L2246.82 231.162 L2242.21 237.504 L2237.61 243.827 L2233 250.133 L2228.4 256.422 L2223.79 262.694 L2219.19 268.947 L2214.58 275.184 L2209.97 281.403 L2205.37 287.604 L2200.76 293.788 L2196.16 299.955 L2191.55 306.104 L2186.94 312.235 L2182.34 318.349 L2177.73 324.446 L2173.13 330.525 L2168.52 336.587 L2163.92 342.631 L2159.31 348.658 L2154.7 354.667 L2150.1 360.659 L2145.49 366.633 L2140.89 372.59 L2136.28 378.529 L2131.67 384.451 L2127.07 390.356 L2122.46 396.243 L2117.86 402.112 L2113.25 407.964 L2108.64 413.799 L2104.04 419.616 L2099.43 425.416 L2094.83 431.198 L2090.22 436.963 L2085.62 442.71 L2081.01 448.44 L2076.4 454.152 L2071.8 459.847 L2067.19 465.524 L2062.59 471.184 L2057.98 476.827 L2053.37 482.452 L2048.77 488.059 L2044.16 493.649 L2039.56 499.222 L2034.95 504.777 L2030.34 510.314 L2025.74 515.835 L2021.13 521.337 L2016.53 526.822 L2011.92 532.29 L2007.32 537.74 L2002.71 543.173 L1998.1 548.589 L1993.5 553.987 L1988.89 559.367 L1984.29 564.73 L1979.68 570.075 L1975.07 575.403 L1970.47 580.714 L1965.86 586.007 L1961.26 591.282 L1956.65 596.541 L1952.04 601.781 L1947.44 607.004 L1942.83 612.21 L1938.23 617.398 L1933.62 622.569 L1929.02 627.722 L1924.41 632.858 L1919.8 637.977 L1915.2 643.078 L1910.59 648.161 L1905.99 653.227 L1901.38 658.275 L1896.77 663.307 L1892.17 668.32 L1887.56 673.316 L1882.96 678.295 L1878.35 683.256 L1873.75 688.2 L1869.14 693.126 L1864.53 698.035 L1859.93 702.926 L1855.32 707.8 L1850.72 712.656 L1846.11 717.495 L1841.5 722.316 L1836.9 727.12 L1832.29 731.907 L1827.69 736.676 L1823.08 741.427 L1818.47 746.161 L1813.87 750.878 L1809.26 755.577 L1804.66 760.259 L1800.05 764.923 L1795.45 769.569 L1790.84 774.199 L1786.23 778.81 L1781.63 783.405 L1777.02 787.982 L1772.42 792.541 L1767.81 797.083 L1763.2 801.607 L1758.6 806.114 L1753.99 810.604 L1749.39 815.076 L1744.78 819.53 L1740.17 823.967 L1735.57 828.387 L1730.96 832.789 L1726.36 837.174 L1721.75 841.541 L1717.15 845.891 L1712.54 850.223 L1707.93 854.538 L1703.33 858.835 L1698.72 863.115 L1694.12 867.378 L1689.51 871.622 L1684.9 875.85 L1680.3 880.06 L1675.69 884.252 L1671.09 888.427 L1666.48 892.585 L1661.87 896.725 L1657.27 900.848 L1652.66 904.953 L1648.06 909.041 L1643.45 913.111 L1638.85 917.164 L1634.24 921.199 L1629.63 925.217 L1625.03 929.217 L1620.42 933.2 L1615.82 937.166 L1611.21 941.113 L1606.6 945.044 L1602 948.957 L1597.39 952.853 L1592.79 956.731 L1588.18 960.591 L1583.57 964.434 L1578.97 968.26 L1574.36 972.068 L1569.76 975.859 L1565.15 979.632 L1560.55 983.388 L1555.94 987.126 L1551.33 990.847 L1546.73 994.551 L1542.12 998.237 L1537.52 1001.91 L1532.91 1005.56 L1528.3 1009.19 L1523.7 1012.81 L1519.09 1016.4 L1514.49 1019.99 L1509.88 1023.55 L1505.28 1027.1 L1500.67 1030.62 L1496.06 1034.14 L1491.46 1037.63 L1486.85 1041.11 L1482.25 1044.56 L1477.64 1048.01 L1473.03 1051.43 L1468.43 1054.84 L1463.82 1058.22 L1459.22 1061.6 L1454.61 1064.95 L1450 1068.29 L1445.4 1071.61 L1440.79 1074.91 L1436.19 1078.19 L1431.58 1081.46 L1426.98 1084.71 L1422.37 1087.94 L1417.76 1091.15 L1413.16 1094.35 L1408.55 1097.53 L1403.95 1100.69 L1399.34 1103.84 L1394.73 1106.96 L1390.13 1110.07 L1385.52 1113.16 L1380.92 1116.24 L1376.31 1119.3 L1371.7 1122.34 L1367.1 1125.36 L1362.49 1128.36 L1357.89 1131.35 L1353.28 1134.32 L1348.68 1137.27 L1344.07 1140.21 L1339.46 1143.12 L1334.86 1146.02 L1330.25 1148.91 L1325.65 1151.77 L1321.04 1154.62 L1316.43 1157.45 L1311.83 1160.26 L1307.22 1163.06 L1302.62 1165.83 L1298.01 1168.59 L1293.4 1171.34 L1288.8 1174.06 L1284.19 1176.77 L1279.59 1179.46 L1274.98 1182.13 L1270.38 1184.79 L1265.77 1187.42 L1261.16 1190.04 L1256.56 1192.65 L1251.95 1195.23 L1247.35 1197.8 L1242.74 1200.35 L1238.13 1202.88 L1233.53 1205.4 L1228.92 1207.9 L1224.32 1210.38 L1219.71 1212.84 L1215.11 1215.29 L1210.5 1217.72 L1205.89 1220.13 L1201.29 1222.52 L1196.68 1224.89 L1192.08 1227.25 L1187.47 1229.59 L1182.86 1231.92 L1178.26 1234.22 L1173.65 1236.51 L1169.05 1238.78 L1164.44 1241.04 L1159.83 1243.27 L1155.23 1245.49 L1150.62 1247.69 L1146.02 1249.88 L1141.41 1252.04 L1136.81 1254.19 L1132.2 1256.32 L1127.59 1258.43 L1122.99 1260.53 L1118.38 1262.61 L1113.78 1264.67 L1109.17 1266.72 L1104.56 1268.74 L1099.96 1270.75 L1095.35 1272.74 L1090.75 1274.72 L1086.14 1276.67 L1081.53 1278.61 L1076.93 1280.53 L1072.32 1282.44 L1067.72 1284.32 L1063.11 1286.19 L1058.51 1288.04 L1053.9 1289.88 L1049.29 1291.7 L1044.69 1293.49 L1040.08 1295.28 L1035.48 1297.04 L1030.87 1298.79 L1026.26 1300.52 L1021.66 1302.23 L1017.05 1303.92 L1012.45 1305.6 L1007.84 1307.26 L1003.23 1308.9 L998.629 1310.53 L994.023 1312.13 L989.417 1313.72 L984.811 1315.3 L980.205 1316.85 L975.6 1318.39 L970.994 1319.91 L966.388 1321.41 L961.782 1322.9 L957.176 1324.36 L952.57 1325.81 L947.964 1327.24 L943.358 1328.66 L938.753 1330.06 L934.147 1331.44 L929.541 1332.8 L924.935 1334.14 L920.329 1335.47 L915.723 1336.78 L911.117 1338.08 L906.511 1339.35 L901.906 1340.61 L897.3 1341.85 L892.694 1343.07 L888.088 1344.28 L883.482 1345.46 L878.876 1346.64 L874.27 1347.79 L869.664 1348.92 L865.059 1350.04 L860.453 1351.14 L855.847 1352.23 L851.241 1353.29 L846.635 1354.34 L842.029 1355.37 L837.423 1356.38 L832.817 1357.38 L828.212 1358.36 L823.606 1359.32 L819 1360.26 L814.394 1361.19 L809.788 1362.1 L805.182 1362.99 L800.576 1363.86 L795.97 1364.72 L791.365 1365.55 L786.759 1366.37 L782.153 1367.18 L777.547 1367.96 L772.941 1368.73 L768.335 1369.48 L763.729 1370.22 L759.123 1370.93 L754.518 1371.63 L749.912 1372.31 L745.306 1372.98 L740.7 1373.62 L736.094 1374.25 L731.488 1374.86 L726.882 1375.46 L722.276 1376.04 L717.671 1376.59 L713.065 1377.14 L708.459 1377.66 L703.853 1378.17 L699.247 1378.66 L694.641 1379.13 L690.035 1379.58 L685.429 1380.02 L680.824 1380.44 L676.218 1380.84 L671.612 1381.22 L667.006 1381.59 L662.4 1381.94 L657.794 1382.27 L653.188 1382.59 L648.583 1382.88 L643.977 1383.16 L639.371 1383.42 L634.765 1383.67 L630.159 1383.9 L625.553 1384.11 L620.947 1384.3 L616.341 1384.47 L611.736 1384.63 L607.13 1384.77 L602.524 1384.89 L597.918 1385 L593.312 1385.08 L588.706 1385.15 L584.1 1385.21 L574.889 1385.24 L570.283 1385.24 L561.071 1385.28 L556.465 1385.28 L547.253 1385.31 L542.647 1385.31 L533.436 1385.35 L528.83 1385.35 L519.618 1385.38 L515.012 1385.52 L510.406 1385.63 L505.8 1385.74 L501.195 1385.84 L496.589 1385.92 L491.983 1386 L487.377 1386.07 L482.771 1386.13 L478.165 1386.19 L473.559 1386.23 L468.953 1386.26 L464.348 1386.29 L455.136 1386.31 L455.136 1386.31  Z" fill="#009af9" fill-rule="evenodd" fill-opacity="0.3"></path>
<polyline clip-path="url(#clip282)" style="stroke:#009af9; stroke-linecap:round; stroke-linejoin:round; stroke-width:4; stroke-opacity:1; fill:none" points="455.136,1386.35 455.136,1386.35 464.348,1386.33 468.953,1386.31 473.559,1386.27 478.165,1386.23 482.771,1386.18 487.377,1386.12 491.983,1386.05 496.589,1385.97 501.195,1385.88 505.8,1385.78 510.406,1385.68 515.012,1385.57 519.618,1385.52 528.83,1385.49 533.436,1385.49 542.647,1385.45 547.253,1385.45 556.465,1385.42 561.071,1385.42 570.283,1385.38 574.889,1385.38 584.1,1385.35 588.706,1385.29 593.312,1385.22 597.918,1385.14 602.524,1385.03 607.13,1384.91 611.736,1384.77 616.341,1384.61 620.947,1384.44 625.553,1384.25 630.159,1384.04 634.765,1383.81 639.371,1383.56 643.977,1383.3 648.583,1383.02 653.188,1382.73 657.794,1382.41 662.4,1382.08 667.006,1381.73 671.612,1381.36 676.218,1380.98 680.824,1380.58 685.429,1380.16 690.035,1379.72 694.641,1379.27 699.247,1378.8 703.853,1378.31 708.459,1377.8 713.065,1377.28 717.671,1376.73 722.276,1376.18 726.882,1375.6 731.488,1375.01 736.094,1374.39 740.7,1373.76 745.306,1373.12 749.912,1372.45 754.518,1371.77 759.123,1371.07 763.729,1370.36 768.335,1369.62 772.941,1368.87 777.547,1368.1 782.153,1367.32 786.759,1366.52 791.365,1365.69 795.97,1364.86 800.576,1364 805.182,1363.13 809.788,1362.24 814.394,1361.33 819,1360.4 823.606,1359.46 828.212,1358.5 832.817,1357.52 837.423,1356.52 842.029,1355.51 846.635,1354.48 851.241,1353.43 855.847,1352.37 860.453,1351.28 865.059,1350.18 869.664,1349.06 874.27,1347.93 878.876,1346.78 883.482,1345.61 888.088,1344.42 892.694,1343.21 897.3,1341.99 901.906,1340.75 906.511,1339.49 911.117,1338.22 915.723,1336.92 920.329,1335.61 924.935,1334.29 929.541,1332.94 934.147,1331.58 938.753,1330.2 943.358,1328.8 947.964,1327.39 952.57,1325.95 957.176,1324.5 961.782,1323.04 966.388,1321.55 970.994,1320.05 975.6,1318.53 980.205,1316.99 984.811,1315.44 989.417,1313.86 994.023,1312.27 998.629,1310.67 1003.23,1309.04 1007.84,1307.4 1012.45,1305.74 1017.05,1304.06 1021.66,1302.37 1026.26,1300.66 1030.87,1298.93 1035.48,1297.18 1040.08,1295.42 1044.69,1293.64 1049.29,1291.84 1053.9,1290.02 1058.51,1288.18 1063.11,1286.33 1067.72,1284.46 1072.32,1282.58 1076.93,1280.67 1081.53,1278.75 1086.14,1276.81 1090.75,1274.86 1095.35,1272.88 1099.96,1270.89 1104.56,1268.88 1109.17,1266.86 1113.78,1264.81 1118.38,1262.75 1122.99,1260.67 1127.59,1258.58 1132.2,1256.46 1136.81,1254.33 1141.41,1252.18 1146.02,1250.02 1150.62,1247.83 1155.23,1245.63 1159.83,1243.41 1164.44,1241.18 1169.05,1238.92 1173.65,1236.65 1178.26,1234.36 1182.86,1232.06 1187.47,1229.73 1192.08,1227.39 1196.68,1225.04 1201.29,1222.66 1205.89,1220.27 1210.5,1217.86 1215.11,1215.43 1219.71,1212.98 1224.32,1210.52 1228.92,1208.04 1233.53,1205.54 1238.13,1203.02 1242.74,1200.49 1247.35,1197.94 1251.95,1195.37 1256.56,1192.79 1261.16,1190.18 1265.77,1187.56 1270.38,1184.93 1274.98,1182.27 1279.59,1179.6 1284.19,1176.91 1288.8,1174.2 1293.4,1171.48 1298.01,1168.73 1302.62,1165.97 1307.22,1163.2 1311.83,1160.4 1316.43,1157.59 1321.04,1154.76 1325.65,1151.91 1330.25,1149.05 1334.86,1146.16 1339.46,1143.26 1344.07,1140.35 1348.68,1137.41 1353.28,1134.46 1357.89,1131.49 1362.49,1128.5 1367.1,1125.5 1371.7,1122.48 1376.31,1119.44 1380.92,1116.38 1385.52,1113.3 1390.13,1110.21 1394.73,1107.1 1399.34,1103.98 1403.95,1100.83 1408.55,1097.67 1413.16,1094.49 1417.76,1091.29 1422.37,1088.08 1426.98,1084.85 1431.58,1081.6 1436.19,1078.33 1440.79,1075.05 1445.4,1071.75 1450,1068.43 1454.61,1065.09 1459.22,1061.74 1463.82,1058.36 1468.43,1054.98 1473.03,1051.57 1477.64,1048.15 1482.25,1044.7 1486.85,1041.25 1491.46,1037.77 1496.06,1034.28 1500.67,1030.76 1505.28,1027.24 1509.88,1023.69 1514.49,1020.13 1519.09,1016.54 1523.7,1012.95 1528.3,1009.33 1532.91,1005.7 1537.52,1002.05 1542.12,998.377 1546.73,994.691 1551.33,990.988 1555.94,987.267 1560.55,983.528 1565.15,979.773 1569.76,975.999 1574.36,972.209 1578.97,968.4 1583.57,964.575 1588.18,960.732 1592.79,956.871 1597.39,952.993 1602,949.097 1606.6,945.184 1611.21,941.254 1615.82,937.306 1620.42,933.34 1625.03,929.357 1629.63,925.357 1634.24,921.339 1638.85,917.304 1643.45,913.251 1648.06,909.181 1652.66,905.093 1657.27,900.988 1661.87,896.865 1666.48,892.725 1671.09,888.568 1675.69,884.393 1680.3,880.2 1684.9,875.99 1689.51,871.763 1694.12,867.518 1698.72,863.255 1703.33,858.976 1707.93,854.678 1712.54,850.363 1717.15,846.031 1721.75,841.681 1726.36,837.314 1730.96,832.929 1735.57,828.527 1740.17,824.108 1744.78,819.671 1749.39,815.216 1753.99,810.744 1758.6,806.255 1763.2,801.748 1767.81,797.223 1772.42,792.681 1777.02,788.122 1781.63,783.545 1786.23,778.951 1790.84,774.339 1795.45,769.71 1800.05,765.063 1804.66,760.399 1809.26,755.717 1813.87,751.018 1818.47,746.302 1823.08,741.567 1827.69,736.816 1832.29,732.047 1836.9,727.26 1841.5,722.457 1846.11,717.635 1850.72,712.796 1855.32,707.94 1859.93,703.066 1864.53,698.175 1869.14,693.266 1873.75,688.34 1878.35,683.396 1882.96,678.435 1887.56,673.456 1892.17,668.46 1896.77,663.447 1901.38,658.416 1905.99,653.367 1910.59,648.301 1915.2,643.218 1919.8,638.117 1924.41,632.999 1929.02,627.863 1933.62,622.709 1938.23,617.539 1942.83,612.35 1947.44,607.145 1952.04,601.922 1956.65,596.681 1961.26,591.423 1965.86,586.147 1970.47,580.854 1975.07,575.544 1979.68,570.216 1984.29,564.87 1988.89,559.507 1993.5,554.127 1998.1,548.729 2002.71,543.314 2007.32,537.881 2011.92,532.43 2016.53,526.963 2021.13,521.478 2025.74,515.975 2030.34,510.455 2034.95,504.917 2039.56,499.362 2044.16,493.789 2048.77,488.199 2053.37,482.592 2057.98,476.967 2062.59,471.324 2067.19,465.665 2071.8,459.987 2076.4,454.292 2081.01,448.58 2085.62,442.85 2090.22,437.103 2094.83,431.338 2099.43,425.556 2104.04,419.756 2108.64,413.939 2113.25,408.105 2117.86,402.253 2122.46,396.383 2127.07,390.496 2131.67,384.592 2136.28,378.67 2140.89,372.73 2145.49,366.773 2150.1,360.799 2154.7,354.807 2159.31,348.798 2163.92,342.771 2168.52,336.727 2173.13,330.665 2177.73,324.586 2182.34,318.49 2186.94,312.376 2191.55,306.244 2196.16,300.095 2200.76,293.928 2205.37,287.744 2209.97,281.543 2214.58,275.324 2219.19,269.088 2223.79,262.834 2228.4,256.563 2233,250.274 2237.61,243.968 2242.21,237.644 2246.82,231.303 2251.43,224.944 2256.03,218.568 2260.64,212.174 2265.24,205.763 2269.85,199.335 2274.46,192.889 2279.06,186.425 2283.67,179.944 2288.27,173.446 2292.88,166.93 2297.49,160.397 519.618,1385.57 528.83,1385.55 533.436,1385.55 542.647,1385.51 547.253,1385.51 556.465,1385.48 561.071,1385.48 570.283,1385.44 574.889,1385.44 584.1,1385.41 588.706,1385.41 597.918,1385.37 602.524,1385.32 607.13,1385.25 611.736,1385.16 616.341,1385.06 620.947,1384.94 625.553,1384.8 630.159,1384.64 634.765,1384.46 639.371,1384.27 643.977,1384.06 648.583,1383.84 653.188,1383.59 657.794,1383.33 662.4,1383.05 667.006,1382.75 671.612,1382.44 676.218,1382.11 680.824,1381.76 685.429,1381.39 690.035,1381.01 694.641,1380.6 699.247,1380.19 703.853,1379.75 708.459,1379.29 713.065,1378.82 717.671,1378.33 722.276,1377.83 726.882,1377.3 731.488,1376.76 736.094,1376.2 740.7,1375.63 745.306,1375.03 749.912,1374.42 754.518,1373.79 759.123,1373.15 763.729,1372.48 768.335,1371.8 772.941,1371.1 777.547,1370.39 782.153,1369.65 786.759,1368.9 791.365,1368.13 795.97,1367.35 800.576,1366.54 805.182,1365.72 809.788,1364.88 814.394,1364.03 819,1363.15 823.606,1362.26 828.212,1361.35 832.817,1360.43 837.423,1359.48 842.029,1358.52 846.635,1357.55 851.241,1356.55 855.847,1355.54 860.453,1354.51 865.059,1353.46 869.664,1352.39 874.27,1351.31 878.876,1350.21 883.482,1349.09 888.088,1347.96 892.694,1346.8 897.3,1345.63 901.906,1344.44 906.511,1343.24 911.117,1342.02 915.723,1340.78 920.329,1339.52 924.935,1338.24 929.541,1336.95 934.147,1335.64 938.753,1334.31 943.358,1332.97 947.964,1331.6 952.57,1330.22 957.176,1328.83 961.782,1327.41 966.388,1325.98 970.994,1324.53 975.6,1323.06 980.205,1321.58 984.811,1320.07 989.417,1318.55 994.023,1317.02 998.629,1315.46 1003.23,1313.89 1007.84,1312.3 1012.45,1310.69 1017.05,1309.07 1021.66,1307.43 1026.26,1305.77 1030.87,1304.09 1035.48,1302.4 1040.08,1300.68 1044.69,1298.95 1049.29,1297.21 1053.9,1295.44 1058.51,1293.66 1063.11,1291.86 1067.72,1290.05 1072.32,1288.21 1076.93,1286.36 1081.53,1284.49 1086.14,1282.6 1090.75,1280.7 1095.35,1278.78 1099.96,1276.84 1104.56,1274.88 1109.17,1272.91 1113.78,1270.92 1118.38,1268.91 1122.99,1266.88 1127.59,1264.84 1132.2,1262.78 1136.81,1260.7 1141.41,1258.6 1146.02,1256.49 1150.62,1254.36 1155.23,1252.21 1159.83,1250.04 1164.44,1247.86 1169.05,1245.66 1173.65,1243.44 1178.26,1241.2 1182.86,1238.95 1187.47,1236.68 1192.08,1234.39 1196.68,1232.08 1201.29,1229.76 1205.89,1227.42 1210.5,1225.06 1215.11,1222.69 1219.71,1220.29 1224.32,1217.88 1228.92,1215.45 1233.53,1213.01 1238.13,1210.55 1242.74,1208.06 1247.35,1205.57 1251.95,1203.05 1256.56,1200.52 1261.16,1197.97 1265.77,1195.4 1270.38,1192.81 1274.98,1190.21 1279.59,1187.59 1284.19,1184.95 1288.8,1182.3 1293.4,1179.63 1298.01,1176.94 1302.62,1174.23 1307.22,1171.5 1311.83,1168.76 1316.43,1166 1321.04,1163.22 1325.65,1160.43 1330.25,1157.61 1334.86,1154.78 1339.46,1151.94 1344.07,1149.07 1348.68,1146.19 1353.28,1143.29 1357.89,1140.37 1362.49,1137.44 1367.1,1134.49 1371.7,1131.52 1376.31,1128.53 1380.92,1125.52 1385.52,1122.5 1390.13,1119.46 1394.73,1116.41 1399.34,1113.33 1403.95,1110.24 1408.55,1107.13 1413.16,1104 1417.76,1100.86 1422.37,1097.7 1426.98,1094.52 1431.58,1091.32 1436.19,1088.11 1440.79,1084.87 1445.4,1081.63 1450,1078.36 1454.61,1075.07 1459.22,1071.77 1463.82,1068.45 1468.43,1065.12 1473.03,1061.76 1477.64,1058.39 1482.25,1055 1486.85,1051.6 1491.46,1048.17 1496.06,1044.73 1500.67,1041.27 1505.28,1037.8 1509.88,1034.3 1514.49,1030.79 1519.09,1027.26 1523.7,1023.72 1528.3,1020.15 1532.91,1016.57 1537.52,1012.97 1542.12,1009.36 1546.73,1005.72 1551.33,1002.07 1555.94,998.404 1560.55,994.718 1565.15,991.014 1569.76,987.293 1574.36,983.555 1578.97,979.799 1583.57,976.026 1588.18,972.235 1592.79,968.427 1597.39,964.601 1602,960.758 1606.6,956.898 1611.21,953.019 1615.82,949.124 1620.42,945.211 1625.03,941.28 1629.63,937.332 1634.24,933.367 1638.85,929.384 1643.45,925.384 1648.06,921.366 1652.66,917.331 1657.27,913.278 1661.87,909.208 1666.48,905.12 1671.09,901.015 1675.69,896.892 1680.3,892.752 1684.9,888.594 1689.51,884.419 1694.12,880.227 1698.72,876.017 1703.33,871.789 1707.93,867.544 1712.54,863.282 1717.15,859.002 1721.75,854.705 1726.36,850.39 1730.96,846.058 1735.57,841.708 1740.17,837.341 1744.78,832.956 1749.39,828.554 1753.99,824.134 1758.6,819.697 1763.2,815.243 1767.81,810.771 1772.42,806.281 1777.02,801.774 1781.63,797.25 1786.23,792.708 1790.84,788.149 1795.45,783.572 1800.05,778.977 1804.66,774.366 1809.26,769.736 1813.87,765.09 1818.47,760.426 1823.08,755.744 1827.69,751.045 1832.29,746.328 1836.9,741.594 1841.5,736.843 1846.11,732.074 1850.72,727.287 1855.32,722.483 1859.93,717.662 1864.53,712.823 1869.14,707.967 1873.75,703.093 1878.35,698.201 1882.96,693.293 1887.56,688.367 1892.17,683.423 1896.77,678.462 1901.38,673.483 1905.99,668.487 1910.59,663.473 1915.2,658.442 1919.8,653.394 1924.41,648.328 1929.02,643.245 1933.62,638.144 1938.23,633.025 1942.83,627.889 1947.44,622.736 1952.04,617.565 1956.65,612.377 1961.26,607.171 1965.86,601.948 1970.47,596.708 1975.07,591.449 1979.68,586.174 1984.29,580.881 1988.89,575.57 1993.5,570.242 1998.1,564.897 2002.71,559.534 2007.32,554.153 2011.92,548.756 2016.53,543.34 2021.13,537.907 2025.74,532.457 2030.34,526.989 2034.95,521.504 2039.56,516.001 2044.16,510.481 2048.77,504.944 2053.37,499.389 2057.98,493.816 2062.59,488.226 2067.19,482.619 2071.8,476.994 2076.4,471.351 2081.01,465.691 2085.62,460.014 2090.22,454.319 2094.83,448.607 2099.43,442.877 2104.04,437.13 2108.64,431.365 2113.25,425.583 2117.86,419.783 2122.46,413.966 2127.07,408.131 2131.67,402.279 2136.28,396.41 2140.89,390.523 2145.49,384.618 2150.1,378.696 2154.7,372.757 2159.31,366.8 2163.92,360.826 2168.52,354.834 2173.13,348.825 2177.73,342.798 2182.34,336.754 2186.94,330.692 2191.55,324.613 2196.16,318.516 2200.76,312.402 2205.37,306.271 2209.97,300.122 2214.58,293.955 2219.19,287.771 2223.79,281.57 2228.4,275.351 2233,269.114 2237.61,262.861 2242.21,256.589 2246.82,250.3 2251.43,243.994 2256.03,237.67 2260.64,231.329 2265.24,224.971 2269.85,218.594 2274.46,212.201 2279.06,205.79 2283.67,199.361 2288.27,192.915 2292.88,186.452 2297.49,179.971 "></polyline>
<path clip-path="url(#clip280)" d="M464.962 270.476 L1023.88 270.476 L1023.88 166.796 L464.962 166.796  Z" fill="#ffffff" fill-rule="evenodd" fill-opacity="1"></path>
<polyline clip-path="url(#clip280)" style="stroke:#000000; stroke-linecap:round; stroke-linejoin:round; stroke-width:4; stroke-opacity:1; fill:none" points="464.962,270.476 1023.88,270.476 1023.88,166.796 464.962,166.796 464.962,270.476 "></polyline>
<polyline clip-path="url(#clip280)" style="stroke:#009af9; stroke-linecap:round; stroke-linejoin:round; stroke-width:4; stroke-opacity:1; fill:none" points="486.66,218.636 616.853,218.636 "></polyline>
<path clip-path="url(#clip280)" d="M638.552 201.356 L643.228 201.356 L643.228 235.916 L638.552 235.916 L638.552 201.356 Z" fill="#000000" fill-rule="nonzero" fill-opacity="1"></path><path clip-path="url(#clip280)" d="M673.899 220.268 L673.899 235.916 L669.64 235.916 L669.64 220.407 Q669.64 216.726 668.205 214.897 Q666.769 213.069 663.899 213.069 Q660.45 213.069 658.459 215.268 Q656.469 217.467 656.469 221.263 L656.469 235.916 L652.186 235.916 L652.186 209.99 L656.469 209.99 L656.469 214.018 Q657.996 211.68 660.056 210.522 Q662.14 209.365 664.848 209.365 Q669.316 209.365 671.607 212.143 Q673.899 214.897 673.899 220.268 Z" fill="#000000" fill-rule="nonzero" fill-opacity="1"></path><path clip-path="url(#clip280)" d="M686.607 202.629 L686.607 209.99 L695.38 209.99 L695.38 213.3 L686.607 213.3 L686.607 227.374 Q686.607 230.545 687.464 231.448 Q688.343 232.351 691.005 232.351 L695.38 232.351 L695.38 235.916 L691.005 235.916 Q686.075 235.916 684.2 234.087 Q682.325 232.235 682.325 227.374 L682.325 213.3 L679.2 213.3 L679.2 209.99 L682.325 209.99 L682.325 202.629 L686.607 202.629 Z" fill="#000000" fill-rule="nonzero" fill-opacity="1"></path><path clip-path="url(#clip280)" d="M723.158 221.888 L723.158 223.971 L703.575 223.971 Q703.853 228.369 706.214 230.684 Q708.598 232.976 712.834 232.976 Q715.288 232.976 717.579 232.374 Q719.894 231.772 722.163 230.569 L722.163 234.596 Q719.871 235.568 717.464 236.078 Q715.056 236.587 712.579 236.587 Q706.376 236.587 702.741 232.976 Q699.13 229.365 699.13 223.207 Q699.13 216.842 702.556 213.115 Q706.005 209.365 711.839 209.365 Q717.07 209.365 720.102 212.745 Q723.158 216.101 723.158 221.888 M718.899 220.638 Q718.852 217.143 716.931 215.059 Q715.033 212.976 711.885 212.976 Q708.32 212.976 706.167 214.99 Q704.038 217.004 703.714 220.661 L718.899 220.638 Z" fill="#000000" fill-rule="nonzero" fill-opacity="1"></path><path clip-path="url(#clip280)" d="M745.172 213.971 Q744.454 213.555 743.598 213.37 Q742.764 213.161 741.746 213.161 Q738.135 213.161 736.19 215.522 Q734.269 217.86 734.269 222.258 L734.269 235.916 L729.987 235.916 L729.987 209.99 L734.269 209.99 L734.269 214.018 Q735.612 211.657 737.764 210.522 Q739.917 209.365 742.996 209.365 Q743.436 209.365 743.968 209.434 Q744.5 209.481 745.149 209.596 L745.172 213.971 Z" fill="#000000" fill-rule="nonzero" fill-opacity="1"></path><path clip-path="url(#clip280)" d="M746.584 209.99 L751.098 209.99 L759.199 231.749 L767.301 209.99 L771.815 209.99 L762.093 235.916 L756.306 235.916 L746.584 209.99 Z" fill="#000000" fill-rule="nonzero" fill-opacity="1"></path><path clip-path="url(#clip280)" d="M789.477 222.883 Q784.315 222.883 782.324 224.064 Q780.334 225.244 780.334 228.092 Q780.334 230.36 781.815 231.703 Q783.32 233.022 785.889 233.022 Q789.431 233.022 791.56 230.522 Q793.713 227.999 793.713 223.832 L793.713 222.883 L789.477 222.883 M797.972 221.124 L797.972 235.916 L793.713 235.916 L793.713 231.981 Q792.255 234.342 790.079 235.476 Q787.903 236.587 784.755 236.587 Q780.773 236.587 778.412 234.365 Q776.074 232.119 776.074 228.369 Q776.074 223.994 778.991 221.772 Q781.931 219.55 787.741 219.55 L793.713 219.55 L793.713 219.133 Q793.713 216.194 791.769 214.596 Q789.847 212.976 786.352 212.976 Q784.13 212.976 782.023 213.508 Q779.917 214.041 777.972 215.106 L777.972 211.17 Q780.31 210.268 782.509 209.828 Q784.709 209.365 786.792 209.365 Q792.417 209.365 795.195 212.282 Q797.972 215.198 797.972 221.124 Z" fill="#000000" fill-rule="nonzero" fill-opacity="1"></path><path clip-path="url(#clip280)" d="M806.745 199.897 L811.005 199.897 L811.005 235.916 L806.745 235.916 L806.745 199.897 Z" fill="#000000" fill-rule="nonzero" fill-opacity="1"></path><path clip-path="url(#clip280)" d="M853.597 222.976 Q853.597 218.277 851.653 215.615 Q849.731 212.93 846.352 212.93 Q842.972 212.93 841.028 215.615 Q839.106 218.277 839.106 222.976 Q839.106 227.675 841.028 230.36 Q842.972 233.022 846.352 233.022 Q849.731 233.022 851.653 230.36 Q853.597 227.675 853.597 222.976 M839.106 213.925 Q840.449 211.61 842.486 210.499 Q844.546 209.365 847.393 209.365 Q852.116 209.365 855.055 213.115 Q858.018 216.865 858.018 222.976 Q858.018 229.087 855.055 232.837 Q852.116 236.587 847.393 236.587 Q844.546 236.587 842.486 235.476 Q840.449 234.342 839.106 232.027 L839.106 235.916 L834.824 235.916 L834.824 199.897 L839.106 199.897 L839.106 213.925 Z" fill="#000000" fill-rule="nonzero" fill-opacity="1"></path><path clip-path="url(#clip280)" d="M875.125 212.976 Q871.699 212.976 869.708 215.661 Q867.717 218.323 867.717 222.976 Q867.717 227.629 869.685 230.314 Q871.676 232.976 875.125 232.976 Q878.527 232.976 880.518 230.291 Q882.509 227.606 882.509 222.976 Q882.509 218.37 880.518 215.684 Q878.527 212.976 875.125 212.976 M875.125 209.365 Q880.68 209.365 883.852 212.976 Q887.023 216.587 887.023 222.976 Q887.023 229.342 883.852 232.976 Q880.68 236.587 875.125 236.587 Q869.546 236.587 866.375 232.976 Q863.227 229.342 863.227 222.976 Q863.227 216.587 866.375 212.976 Q869.546 209.365 875.125 209.365 Z" fill="#000000" fill-rule="nonzero" fill-opacity="1"></path><path clip-path="url(#clip280)" d="M893.643 225.684 L893.643 209.99 L897.902 209.99 L897.902 225.522 Q897.902 229.203 899.338 231.055 Q900.773 232.883 903.643 232.883 Q907.092 232.883 909.083 230.684 Q911.097 228.485 911.097 224.689 L911.097 209.99 L915.356 209.99 L915.356 235.916 L911.097 235.916 L911.097 231.934 Q909.546 234.295 907.486 235.453 Q905.449 236.587 902.74 236.587 Q898.273 236.587 895.958 233.809 Q893.643 231.031 893.643 225.684 M904.361 209.365 L904.361 209.365 Z" fill="#000000" fill-rule="nonzero" fill-opacity="1"></path><path clip-path="url(#clip280)" d="M945.68 220.268 L945.68 235.916 L941.421 235.916 L941.421 220.407 Q941.421 216.726 939.986 214.897 Q938.55 213.069 935.68 213.069 Q932.231 213.069 930.24 215.268 Q928.249 217.467 928.249 221.263 L928.249 235.916 L923.967 235.916 L923.967 209.99 L928.249 209.99 L928.249 214.018 Q929.777 211.68 931.837 210.522 Q933.921 209.365 936.629 209.365 Q941.097 209.365 943.388 212.143 Q945.68 214.897 945.68 220.268 Z" fill="#000000" fill-rule="nonzero" fill-opacity="1"></path><path clip-path="url(#clip280)" d="M971.235 213.925 L971.235 199.897 L975.495 199.897 L975.495 235.916 L971.235 235.916 L971.235 232.027 Q969.893 234.342 967.833 235.476 Q965.796 236.587 962.925 236.587 Q958.226 236.587 955.263 232.837 Q952.323 229.087 952.323 222.976 Q952.323 216.865 955.263 213.115 Q958.226 209.365 962.925 209.365 Q965.796 209.365 967.833 210.499 Q969.893 211.61 971.235 213.925 M956.722 222.976 Q956.722 227.675 958.643 230.36 Q960.587 233.022 963.967 233.022 Q967.346 233.022 969.291 230.36 Q971.235 227.675 971.235 222.976 Q971.235 218.277 969.291 215.615 Q967.346 212.93 963.967 212.93 Q960.587 212.93 958.643 215.615 Q956.722 218.277 956.722 222.976 Z" fill="#000000" fill-rule="nonzero" fill-opacity="1"></path><path clip-path="url(#clip280)" d="M1000.8 210.754 L1000.8 214.782 Q998.99 213.856 997.045 213.393 Q995.101 212.93 993.018 212.93 Q989.846 212.93 988.249 213.902 Q986.675 214.874 986.675 216.819 Q986.675 218.3 987.809 219.157 Q988.944 219.99 992.369 220.754 L993.828 221.078 Q998.365 222.05 1000.26 223.832 Q1002.18 225.592 1002.18 228.763 Q1002.18 232.374 999.314 234.481 Q996.467 236.587 991.467 236.587 Q989.383 236.587 987.115 236.17 Q984.87 235.777 982.37 234.967 L982.37 230.569 Q984.731 231.795 987.022 232.42 Q989.314 233.022 991.559 233.022 Q994.569 233.022 996.189 232.004 Q997.809 230.962 997.809 229.087 Q997.809 227.351 996.629 226.425 Q995.471 225.499 991.513 224.643 L990.032 224.295 Q986.073 223.462 984.314 221.749 Q982.555 220.013 982.555 217.004 Q982.555 213.346 985.147 211.356 Q987.74 209.365 992.508 209.365 Q994.869 209.365 996.953 209.712 Q999.036 210.059 1000.8 210.754 Z" fill="#000000" fill-rule="nonzero" fill-opacity="1"></path></svg>